<?xml version="1.0" standalone="no"?>
<!DOCTYPE svg PUBLIC "-//W3C//DTD SVG 20010904//EN"
 "http://www.w3.org/TR/2001/REC-SVG-20010904/DTD/svg10.dtd">
<svg version="1.0" xmlns="http://www.w3.org/2000/svg"
 width="4500.000000pt" height="3000.000000pt" viewBox="0 0 4500.000000 3000.000000"
 preserveAspectRatio="xMidYMid meet">
<g transform="translate(0.000000,3000.000000) scale(0.100000,-0.100000)"
fill="#000000" stroke="none">
<path d="M21143 25528 c-56 -211 -249 -1095 -241 -1103 5 -5 4880 -127 4883
-123 5 7 313 1193 311 1195 -4 4 -4771 223 -4846 223 l-57 0 -50 -192z" fill="#262C2A"/>
<path d="M22243 5631 c-46 -42 -83 -81 -83 -87 0 -5 100 -350 222 -767 l223
-757 1689 2 1689 3 320 558 c176 307 318 559 316 561 -6 5 -4251 567 -4274
566 -11 -1 -57 -36 -102 -79z" fill="#262C2A"/>
<path d="M19700 25955 c-368 -74 -674 -362 -772 -725 l-23 -85 0 -10335 0
-10335 23 -85 c91 -339 373 -621 712 -712 l85 -23 4575 0 4575 0 85 23 c339
91 621 373 712 712 l23 85 0 10335 0 10335 -23 85 c-52 196 -183 396 -342 523
-96 77 -247 155 -365 189 l-80 23 -4560 2 c-3719 1 -4572 -1 -4625 -12z m2501
-558 c52 -35 79 -82 79 -137 0 -55 -27 -102 -79 -137 -70 -47 -165 -23 -218
56 -47 70 -23 165 56 218 23 16 49 23 81 23 32 0 58 -7 81 -23z m3459 -97 c11
-11 20 -29 20 -40 0 -11 -9 -29 -20 -40 -20 -20 -33 -20 -1360 -20 -1327 0
-1340 0 -1360 20 -11 11 -20 29 -20 40 0 11 9 29 20 40 20 20 33 20 1360 20
1327 0 1340 0 1360 -20z m-295 -20474 c68 -26 137 -98 159 -164 20 -60 25
-154 9 -174 -6 -7 -14 -24 -18 -38 -17 -57 -75 -119 -143 -152 l-67 -33 -1015
-5 c-1142 -6 -1071 -10 -1151 70 -55 55 -81 124 -81 215 0 156 86 265 233 294
24 5 490 8 1034 7 949 -1 992 -2 1040 -20z"/>
<path d="M23610 4771 c-353 -7 -357 -8 -424 -81 -102 -113 -61 -286 84 -354
45 -21 50 -21 1030 -21 909 0 988 1 1021 17 112 53 169 166 139 276 -14 55
-72 119 -130 146 -44 21 -57 21 -725 22 -374 0 -822 -2 -995 -5z" fill="#0F0E0C"/>
<path d="M23410 4543 c-14 -2 -40 -16 -59 -32 -26 -22 -34 -36 -38 -74 -5 -44
-4 -47 22 -57 18 -7 340 -9 984 -8 915 3 958 4 994 22 39 19 87 78 87 107 0
44 -1 44 -1010 45 -525 1 -966 -1 -980 -3z" fill="#0C0B09" opacity="0.25"/>
<path d="M22936 25304 c-9 -8 -16 -28 -16 -44 0 -65 -105 -60 1380 -60 1485 0
1380 -5 1380 60 0 65 105 60 -1380 60 -1213 0 -1350 -2 -1364 -16z m2718 -10
c9 -8 16 -24 16 -34 0 -10 -7 -26 -16 -34 -14 -14 -150 -16 -1354 -16 -1204 0
-1340 2 -1354 16 -9 8 -16 24 -16 34 0 10 7 26 16 34 14 14 150 16 1354 16
1204 0 1340 -2 1354 -16z" fill="#464646"/>
<path d="M22946 25294 c-9 -8 -16 -24 -16 -34 0 -10 7 -26 16 -34 14 -14 150
-16 1354 -16 1204 0 1340 2 1354 16 9 8 16 24 16 34 0 10 -7 26 -16 34 -14 14
-150 16 -1354 16 -1204 0 -1340 -2 -1354 -16z" fill="#212021"/>
<path d="M22074 25409 c-79 -23 -128 -113 -105 -191 44 -144 230 -159 292 -24
23 52 23 80 0 132 -30 67 -116 105 -187 83z" fill="#403F40"/>
<path d="M22070 25352 c-25 -12 -39 -28 -49 -58 -13 -37 -12 -44 5 -80 37 -77
141 -82 185 -10 23 38 24 67 4 106 -16 31 -61 60 -92 60 -10 0 -34 -8 -53 -18z" fill="#1C1C1B"/>

</g>
</svg>
