<?xml version="1.0" standalone="no"?>
<!DOCTYPE svg PUBLIC "-//W3C//DTD SVG 20010904//EN"
 "http://www.w3.org/TR/2001/REC-SVG-20010904/DTD/svg10.dtd">
<svg version="1.0" xmlns="http://www.w3.org/2000/svg"
 width="750.000000pt" height="450.000000pt" viewBox="0 0 750.000000 450.000000"
 preserveAspectRatio="xMidYMid meet">
<g transform="translate(0.000000,450.000000) scale(0.100000,-0.100000)"
fill="yellow" opacity="0.775" stroke="none">
<path d="M3662 4342 c-25 -20 -36 -40 -43 -73 -12 -63 -11 -652 1 -684 10 -26
10 -26 112 -24 57 1 111 4 121 6 16 4 17 29 17 353 0 206 -4 359 -10 375 -29
77 -133 101 -198 47z"/>
<path d="M2762 4104 c-34 -27 -62 -72 -62 -99 0 -18 50 -124 80 -170 11 -16
23 -37 27 -45 4 -8 26 -46 48 -85 23 -38 44 -77 48 -85 4 -8 16 -28 27 -45 11
-16 23 -37 27 -45 4 -8 26 -46 48 -85 23 -38 44 -78 48 -87 8 -23 42 -23 75 0
15 10 34 22 42 25 8 4 29 16 45 27 17 11 40 24 53 30 29 13 28 30 -7 82 -16
24 -39 61 -51 83 -12 22 -30 54 -41 70 -10 17 -22 37 -26 45 -4 8 -26 47 -48
85 -23 39 -44 77 -48 85 -4 8 -16 29 -27 45 -10 17 -29 49 -42 73 -12 24 -37
61 -56 83 -30 35 -38 39 -80 39 -35 0 -55 -7 -80 -26z"/>
<path d="M4558 4091 c-19 -22 -45 -61 -58 -86 -14 -26 -30 -54 -35 -63 -6 -10
-28 -48 -50 -87 -22 -38 -45 -79 -52 -90 -7 -11 -17 -29 -23 -40 -6 -11 -19
-33 -30 -50 -11 -16 -23 -37 -27 -45 -4 -8 -26 -47 -50 -86 -24 -39 -43 -77
-43 -83 0 -6 10 -16 23 -21 37 -17 136 -75 149 -88 18 -18 58 -15 65 6 4 9 26
49 48 87 23 39 44 77 48 85 4 8 16 29 27 45 11 17 23 37 27 45 4 8 25 47 48
85 22 39 44 77 48 85 4 8 16 29 27 45 30 46 80 152 80 170 0 28 -29 73 -63 99
-25 19 -46 26 -80 26 -41 0 -49 -4 -79 -39z"/>
<path d="M2114 3451 c-68 -42 -99 -114 -70 -168 13 -26 75 -83 90 -83 2 0 37
-19 78 -43 40 -24 80 -46 88 -50 8 -4 29 -16 45 -27 17 -11 39 -24 50 -30 11
-6 47 -26 80 -45 33 -19 69 -40 80 -46 25 -12 52 -29 87 -52 38 -26 60 -15 93
49 43 81 51 94 64 107 24 24 8 52 -44 78 -11 5 -42 23 -70 40 -27 16 -63 37
-80 45 -16 8 -43 23 -60 34 -16 11 -39 24 -50 30 -11 6 -33 19 -50 29 -16 11
-52 32 -80 47 -89 49 -99 55 -140 79 -49 29 -71 31 -111 6z"/>
<path d="M5255 3445 c-41 -24 -51 -30 -140 -79 -27 -15 -63 -36 -80 -47 -16
-10 -39 -23 -50 -29 -11 -6 -33 -19 -50 -30 -16 -11 -43 -26 -60 -34 -16 -8
-52 -29 -80 -45 -27 -17 -59 -35 -70 -40 -52 -26 -68 -54 -44 -78 13 -13 21
-26 64 -107 33 -64 55 -75 93 -49 35 23 62 40 87 52 11 6 47 27 80 46 33 19
69 39 80 45 11 6 34 19 50 30 17 11 37 23 45 27 8 4 48 26 88 50 41 24 76 43
78 43 3 0 21 12 40 27 36 27 64 70 64 98 0 54 -85 146 -134 145 -12 -1 -39
-12 -61 -25z"/>
<path d="M3620 3309 c-19 -5 -57 -13 -85 -18 -198 -37 -415 -188 -539 -375
-45 -68 -96 -169 -96 -191 0 -9 -5 -26 -12 -38 -19 -35 -38 -166 -38 -262 0
-161 30 -272 123 -453 78 -152 109 -215 139 -282 22 -49 35 -80 69 -168 22
-56 48 -142 63 -207 40 -177 46 -205 46 -223 0 -27 31 -93 55 -118 38 -40 75
-44 395 -44 329 0 352 3 396 52 29 31 85 223 84 289 0 26 48 181 90 289 12 30
24 63 27 74 3 10 56 118 118 241 122 244 148 314 166 453 13 102 -1 277 -27
341 -8 18 -14 40 -14 47 0 18 -58 137 -94 194 -67 105 -194 227 -291 279 -22
12 -47 26 -55 30 -139 78 -393 122 -520 90z m0 -1040 c57 -63 109 -115 115
-117 6 -1 78 69 159 158 81 88 154 160 162 160 12 0 14 -54 14 -325 0 -282 -2
-325 -15 -325 -13 0 -15 38 -15 284 0 157 -4 287 -9 290 -4 3 -32 -22 -62 -57
-29 -34 -56 -64 -59 -67 -3 -3 -38 -42 -79 -87 -40 -46 -81 -83 -91 -83 -21 0
-126 107 -232 237 -24 29 -48 52 -54 53 -7 0 -10 -90 -10 -279 1 -154 -2 -282
-6 -286 -4 -4 -14 -5 -23 -2 -13 6 -15 47 -15 320 0 237 3 316 12 325 10 10
22 3 58 -36 25 -27 92 -101 150 -163z m-30 -71 c0 -12 38 -48 50 -48 6 0 10
-4 10 -10 0 -5 18 -28 39 -50 34 -36 42 -40 60 -30 12 6 21 15 21 20 0 6 5 10
10 10 11 0 50 36 50 48 1 16 159 173 169 167 7 -4 11 -86 11 -241 0 -201 -2
-234 -15 -234 -13 0 -15 29 -15 205 0 158 -3 205 -12 204 -7 0 -30 -21 -52
-47 -74 -90 -165 -182 -179 -182 -17 0 -207 201 -207 219 0 6 -6 11 -14 11
-12 0 -14 -32 -13 -202 2 -180 0 -203 -14 -206 -25 -5 -29 26 -29 249 0 145 3
208 12 217 9 9 24 0 65 -41 29 -28 53 -55 53 -59z m72 -175 c33 -35 67 -63 76
-63 13 0 152 135 152 148 0 12 34 42 47 42 11 0 13 -30 11 -160 -4 -197 -22
-223 -26 -37 -2 101 -5 127 -17 127 -7 0 -16 -8 -19 -17 -11 -32 -134 -153
-156 -153 -11 0 -20 4 -20 8 0 4 -22 31 -48 58 -27 28 -56 61 -65 74 -10 14
-22 20 -31 17 -13 -5 -16 -26 -16 -122 0 -63 -4 -115 -9 -115 -13 0 -19 292
-7 309 8 10 16 6 40 -20 16 -19 56 -62 88 -96z"/>
<path d="M3399 863 c-21 -5 -33 -62 -19 -97 l10 -26 343 0 c253 0 346 3 355
12 7 7 12 31 12 55 0 32 -5 45 -19 53 -19 10 -646 13 -682 3z"/>
<path d="M3385 656 c-22 -33 -11 -92 18 -100 40 -11 657 -7 678 4 14 8 19 21
19 55 0 34 -5 47 -19 55 -13 6 -141 10 -350 10 l-331 0 -15 -24z"/>
<path d="M3390 470 c-25 -25 -26 -61 -2 -89 17 -20 25 -21 350 -22 245 0 337
3 348 11 20 18 18 90 -3 106 -14 10 -89 13 -345 14 -315 0 -329 -1 -348 -20z"/>
<path d="M3504 291 c-23 -24 42 -99 112 -131 87 -38 228 -23 304 32 27 20 67
84 58 93 -6 7 -468 12 -474 6z"/>
</g>
</svg>
