<?xml version="1.0" standalone="no"?>
<!DOCTYPE svg PUBLIC "-//W3C//DTD SVG 20010904//EN"
 "http://www.w3.org/TR/2001/REC-SVG-20010904/DTD/svg10.dtd">
<svg version="1.0" xmlns="http://www.w3.org/2000/svg"
 width="250.000000pt" height="150.000000pt" viewBox="0 0 250.000000 150.000000"
 preserveAspectRatio="xMidYMid meet">
<g transform="translate(0.000000,150.000000) scale(0.100000,-0.100000)"
fill="#000000" stroke="none">
<path d="M1184 1461 c-54 -33 -68 -118 -27 -163 19 -21 12 -43 -55 -164 -92
-168 -207 -288 -300 -314 -101 -28 -201 3 -294 88 -74 69 -151 170 -143 189 5
16 -11 54 -29 65 -20 14 -63 8 -79 -10 -30 -32 -19 -88 18 -102 19 -7 25 -23
39 -97 52 -277 59 -609 17 -813 -10 -52 -17 -97 -15 -99 2 -2 50 4 106 13 448
72 1021 73 1631 0 56 -7 57 -6 57 18 0 29 5 27 -209 49 l-124 13 6 125 c3 79
11 145 22 176 14 44 22 53 58 68 41 17 195 148 254 217 l31 35 3 162 c3 136 7
164 22 180 33 37 16 92 -33 108 -36 11 -89 -37 -76 -70 6 -18 -79 -137 -140
-197 -135 -129 -266 -127 -399 5 -55 56 -142 182 -188 272 l-25 50 24 30 c17
21 24 43 24 74 0 36 -6 49 -34 77 -40 40 -92 46 -142 15z m136 -312 c0 -6 25
-49 56 -97 141 -216 295 -300 447 -242 69 26 166 112 234 207 25 35 46 63 47
61 0 -2 0 -71 -2 -155 l-3 -152 -102 -98 c-57 -54 -120 -107 -142 -117 -22
-10 -47 -22 -55 -26 -33 -15 -62 -128 -68 -262 l-5 -128 -32 0 c-18 0 -53 3
-79 6 l-46 7 1 46 c0 25 8 106 17 179 l18 134 -26 17 c-14 10 -75 45 -136 79
l-111 62 -12 228 c-7 125 -15 235 -17 245 -3 9 -1 17 5 17 6 0 11 -5 11 -11z
m-196 -741 c15 -112 29 -213 32 -225 4 -23 3 -23 -88 -23 -92 -1 -299 -13
-430 -26 l-68 -7 6 144 c4 79 9 161 13 182 l6 38 125 -161 c101 -131 126 -158
135 -146 5 9 60 108 120 221 61 112 113 205 116 205 3 0 18 -91 33 -202z m419
82 c5 -4 2 -64 -7 -132 -9 -68 -16 -143 -16 -167 l0 -43 -67 7 c-38 4 -70 8
-71 10 -4 4 -41 384 -42 422 0 20 7 18 98 -33 53 -30 101 -59 105 -64z"/>
</g>
</svg>
