<?xml version="1.0" standalone="no"?>
<!DOCTYPE svg PUBLIC "-//W3C//DTD SVG 1.1//EN" "http://www.w3.org/Graphics/SVG/1.1/DTD/svg11.dtd" >
<svg xmlns="http://www.w3.org/2000/svg" xmlns:xlink="http://www.w3.org/1999/xlink" version="1.1">
<metadata></metadata>
<defs>
<font id="font_twelveregular" horiz-adv-x="923" >
<font-face units-per-em="2048" ascent="1638" descent="-410" />
<missing-glyph horiz-adv-x="1024" />
<glyph horiz-adv-x="0" />
<glyph unicode="&#xd;" horiz-adv-x="1024" />
<glyph unicode=" "  horiz-adv-x="1024" />
<glyph unicode="&#x09;" horiz-adv-x="1024" />
<glyph unicode="&#xa0;" horiz-adv-x="1024" />
<glyph unicode="A" horiz-adv-x="991" d="M-23 502q0 102 23 303t23 287l-3 64q0 60 91 142q86 76 147 95q53 14 109 14q78 0 143 -29q35 47 100 47q20 0 61.5 -6t59.5 -6q10 0 27.5 4t25.5 4q49 0 50 -51l10 -1327q-1 -66 -187 -68q-78 0 -125 29q-72 -37 -163 -37q-59 0 -113 17q-279 125 -279 518zM80 528 q0 -352 213 -448q37 -12 72 -12q49 0 107 25.5t73 25.5q20 0 35.5 -20.5t74.5 -20.5q35 0 86 8l-10 1229q-37 2 -74 6q-17 1 -30 1q-26 0 -35 -5q-8 -25 -17.5 -49.5t-27.5 -24.5q-16 0 -39 19q-55 45 -141 45q-41 0 -78 -13q-90 -27 -166 -151q1 -12 1 -27q0 -85 -20 -260 q-24 -212 -24 -320v-8zM178 674q0 150 113 207q43 22 92 22h4q72 0 132.5 -41t80.5 -102l4 -8q10 -35 10 -72q0 -76 -46 -136.5t-119 -80.5l-7 -2q-16 -4 -39 -4q-74 0 -141 45q-74 49 -80 114q-4 33 -4 58zM283 637q48 -78 114 -78q10 0 21 2q90 35 90 127q0 18 -2 35 q-39 78 -123 78q-28 -1 -55 -17q-46 -30 -46 -119q0 -13 1 -28z" />
<glyph unicode="B" horiz-adv-x="1009" d="M-8 1581q0 51 51 51h227q51 0 64 -100l8 -172q73 24 142 24h5q125 0 216 -71l10 -10q100 -141 131 -199q35 -68 35 -137q0 -16 -29 -246q-29 -238 -33 -533q0 -59 -84 -135q-76 -66 -139 -86q-55 -18 -117 -18q-92 0 -172 41q-41 -31 -98 -31q-14 0 -72 6q-22 2 -40.5 2 t-33.5 -2q-7 -1 -13 -1q-44 0 -44 52zM94 1530l15 -1460q39 -4 75 -9q57 0 69.5 20.5t37.5 20.5q14 0 77.5 -25.5t116.5 -25.5q39 0 80 15q103 33 152 135l10 907l-92 129q-61 44 -138 44q-20 0 -40 -3q-72 -18 -146 -39q-11 -2 -20 -2q-42 0 -45 45l-23 248h-129zM223 651 q0 84 62 168l8 10q59 51 149 52q76 0 136.5 -41t78.5 -119q2 -25 2 -49q0 -135 -106 -205l-10 -4q-49 -18 -99 -19q-92 0 -156.5 59.5t-64.5 147.5zM324 653q0 -47 37.5 -76.5t87.5 -29.5q27 0 53 8q55 41 55 115q0 14 -2 32q-20 78 -115 78h-3q-40 0 -72 -24 q-41 -59 -41 -103z" />
<glyph unicode="C" horiz-adv-x="890" d="M-35 430q0 12 21 219q20 219 24 514l2 15q49 147 166 190q55 21 155 21q38 0 83 -3q79 -4 137 -4q75 0 115 7q10 2 18 2q41 0 41 -52v-524q0 -55 -102 -55q-25 0 -82.5 4t-85.5 4q-104 0 -144 -39q-1 -13 -1 -25q0 -100 44 -133h351q51 0 51 -51v-495q0 -52 -50 -52 q0 1 -2 1h-15q-53 0 -151 -9q-112 -10 -165 -10q-225 4 -316 149l-6 9q-88 236 -88 317zM98 287l49 -133q62 -95 228 -97q53 0 141 9q106 8 139 10v393h-313q-43 0 -91 74.5t-48 152.5q0 174 238 174h16q23 0 84 -4q53 -4 84 -4v420q-16 -2 -38 -2q-34 0 -83 4q-96 6 -135 6 q-207 0 -256 -137z" />
<glyph unicode="D" horiz-adv-x="991" d="M0 913q0 203 59 312q76 141 269 170l4 2q23 4 48 4q59 0 124 -21q0 86 2 172q8 98 59 99h215q49 0 51 -52l15 -1554q0 -39 -55 -55q-34 -13 -75 -13h-11q-16 2 -70.5 11.5t-81.5 9.5q-31 0 -66.5 -19.5t-72.5 -19.5q-66 0 -152 31q-78 27 -117 55q-80 57 -110 156 q-14 51 -29 190v12q8 53 8 127q0 57 -7 187.5t-7 195.5zM102 870q0 -63 7.5 -186t7.5 -178q0 -66 -8 -113q16 -178 73 -246q64 -79 207 -79q23 0 49 2q46 32 102 32h3q29 0 84 -10t82 -12q18 0 34 2l-14 1466h-115q-2 -96 -4 -194q-8 -102 -53 -103q-12 0 -31 9 q-68 36 -148 36q-17 0 -34 -2q-139 -31 -197 -153q-45 -96 -45 -271zM207 672q0 76 40.5 141.5t108.5 75.5q25 2 50 2q150 0 219 -107l4 -12q14 -47 14 -96q0 -150 -111 -195l-6 -2q-49 -20 -106 -20q-150 0 -197 131q-16 35 -16 82zM307 676q0 -23 10 -45l2 -6 q25 -59 103 -60q33 0 70 10q49 29 49 107q0 27 -6 51q-41 56 -128 56q-13 0 -28 -1q-72 -43 -72 -112z" />
<glyph unicode="E" horiz-adv-x="911" d="M-31 467q0 88 15.5 262t15.5 252q0 57 -6 106v8q0 63 112 150q115 86 183 87q238 0 344 -79q127 -96 135 -340q-4 -71 -4 -183q0 -74 2 -167v-6q0 -46 -96 -57q80 0 82 -49q0 -16 14 -148q14 -123 14 -194q0 -164 -65 -164h-494q-23 4 -28 8q-223 147 -224 514zM72 496 q0 -330 166 -449h424l-11 350h-352q-33 0 -63.5 43t-30.5 84q0 47 43 56q76 16 207 16q150 0 207 6q-1 12 -1 29q0 34 3 88q4 92 4 133q0 338 -224 373q-32 5 -99 5q-22 0 -48 -1q-156 -57 -201 -144q4 -37 4 -81q0 -72 -14 -245t-14 -263zM166 713q-1 7 -1 15q0 38 34 77 q37 41 84 57l10 2q31 2 57 2q180 0 248 -125q10 -18 10 -32q0 -41 -110 -50q-137 -2 -275 -4h-3q-46 0 -54 58zM219 758l86 2q-35 -18 -39 -37v4q-4 6 -4 11t-22.5 12.5t-20.5 7.5zM305 760l82 4q-18 1 -36.5 1t-39.5 -1z" />
<glyph unicode="F" horiz-adv-x="735" d="M-51 733v467q0 51 51 51h20q16 156 39 228q47 149 143 149h1h346q51 0 51 -51v-309q0 -53 -80 -54q-16 0 -54 3.5t-54 3.5q-47 0 -54 -23l-43 68q92 -4 187 -11q113 -12 112 -65v-457q0 -51 -51 -51h-188l-15 -662q-2 -63 -155 -63q-23 0 -59.5 2t-47.5 2h-7 q-46 0 -46 49l-14 672h-4q-7 -1 -14 -1q-64 0 -64 52zM51 784q123 -4 123 -317q0 -104 -14.5 -251.5t-14.5 -152.5q45 -2 73 -2t40 2l14 672q2 49 52 49h188v359q-82 6 -168 15t-86 54q0 8 2 21q33 90 148 90q18 0 79 -6h11v209h-281q-61 -43 -80 -144q-8 -80 -16 -156.5 t-55 -76.5h-15v-365z" />
<glyph unicode="G" horiz-adv-x="1038" d="M-37 438q0 84 17.5 256t17.5 248q0 33 -9 93.5t-9 88.5q0 82 106 174q90 80 168 103q33 14 72 14q47 0 116.5 -24.5t81.5 -24.5q16 0 23 10q14 27 45 27h176q51 0 51 -51q2 -176 42 -541t40 -547q0 -289 -74 -508q-47 -143 -163 -192q-71 -29 -206 -29h-34q-80 2 -137 2 q-85 0 -117 -4h-5q-42 0 -69 86q-22 79 -22 191v10q0 186 47 221q-158 117 -158 397zM68 465v-26q0 -151 43 -234q59 -106 211 -139q49 -12 49 -46q0 -27 -37 -49t-98 -22h-33l10 -309q79 -5 219 -5h84q164 12 213 146l-12 1519h-99q-37 -43 -86 -43q-33 0 -102.5 27 t-101.5 27q-18 0 -35 -6l-8 -2q-156 -55 -201 -193q16 -74 16 -170q0 -84 -14 -242q-18 -166 -18 -233zM178 692q0 154 131 201l13 2q25 2 48 2q183 0 232 -127l4 -12q2 -25 2 -47q0 -152 -106 -219l-10 -7q-47 -16 -99 -16q-147 0 -194 113l-2 6q-18 47 -19 104zM283 692 q0 -33 10 -67q29 -53 104 -54q27 0 54 9q55 39 55 124q0 17 -2 35q-25 55 -131 55q-16 0 -35 -1q-55 -23 -55 -101zM319 12q0 37 43 51q41 8 82 15q51 10 69.5 34.5t43.5 24.5q51 0 51 -67q0 -39 -30 -66q-6 -4 -19 -12l-45 -29h-135q-59 0 -60 49zM379 66h113q6 6 18 16 q0 -2 -2 -6q2 -6 0 -15q-6 -14 10 -14q12 0 51 10q31 8 31 2q0 -4 -4 -8q-37 -49 -93.5 -61.5t-109.5 -24.5z" />
<glyph unicode="H" horiz-adv-x="974" d="M-8 1554q0 51 51 52h227q55 0 66 -133v-175q78 29 162 29q66 0 120 -18l7 -2q59 -18 132.5 -109.5t73.5 -150.5v-1047q1 -63 -148 -63h-9h-94q-63 8 -66 51l-29 706q-51 76 -82 76q-8 0 -16 -4l-65 -86v-666q0 -65 -149 -65h-5q-100 0 -98 -2q-63 8 -64 53zM94 1503 l15 -1452h59q31 0 51 2v643q0 33 35 74q29 31 57 64l11 10q34 26 72 26h3q68 0 131 -59q57 -53 60 -98l26 -672q21 -2 62 -2q31 0 53 2v993q-68 145 -139 176q-49 12 -98 13q-100 0 -166 -45q-18 -14 -33 -15q-51 0 -62 154q0 94 -2 186h-135z" />
<glyph unicode="I" horiz-adv-x="540" d="M18 0v1204q0 51 52 51h254q51 0 51 -51l10 -1192q2 -55 -113 -63h-200h-4q-49 0 -50 51zM18 1245v281q0 51 52 51h264q51 0 51 -51v-271q0 -53 -115 -61h-198h-4q-49 0 -50 51zM121 53l162 6l-11 1094h-151v-1100zM121 1298l162 7v170h-162v-177z" />
<glyph unicode="J" horiz-adv-x="897" d="M-4 -55q0 67 209 67h6q41 0 100.5 -3t69.5 -3l6 6l10 1284q0 51 52 52h229q49 0 51 -52l12 -1501q-41 -154 -166 -252q-14 -10 -30 -10h-498q-51 0 -51 51v361zM98 -98v-267h428q84 74 115 181l-14 1429h-127l-11 -1249q-2 -94 -153 -94q-25 0 -62.5 2t-48.5 2 q-76 0 -127 -4zM397 1337v269q0 51 52 51h229q65 0 65 -171v-5v-130v3q2 -53 -102 -64l-188 -4h-7q-48 0 -49 51zM500 1391l141 10v85v-5q0 45 -4 73h-137v-163z" />
<glyph unicode="K" horiz-adv-x="878" d="M-18 1573q0 51 51 51h243q49 0 52 -49q-2 -111 -2 -328q33 25 113.5 44.5t152.5 19.5q121 0 123 -58l14 -471q2 -65 -131 -65h-4q-14 0 -49 2h-51q-135 0 -160 -53q-10 -16 -10 -37q0 -59 57 -92h283q43 0 71 -101q25 -92 25 -217q0 -109 -21 -178q-24 -74 -62 -74h-3 q-10 1 -23 1q-37 0 -92 -9q-80 -12 -113 -12q-71 0 -124 39q-16 -29 -46 -29h-229q-51 0 -51 49zM84 1522l14 -1463q45 0 125 -14q-2 13 -2 25q0 40 21 67q20 27 55 27q45 0 55 -37q18 -78 115 -78q31 0 82 8q61 10 76 13l-13 364h-243q-59 0 -102.5 60.5t-43.5 136.5 q0 82 56 133q59 57 176 57h8q80 -1 120.5 -1t41.5 1l-13 381q-29 1 -53 1q-73 0 -108 -9q-88 -23 -115 -104q-14 -45 -51 -46q-41 0 -49 54q-10 72 -11 424h-141z" />
<glyph unicode="L" horiz-adv-x="493" d="M-20 1565q0 51 51 51h256q51 0 51 -51v-1565q0 -51 -51 -51h-230q-51 0 -51 51zM84 1513l25 -1462h127v1462h-152z" />
<glyph unicode="M" horiz-adv-x="1415" d="M-16 1325q-2 70 170 70q125 0 143 -43q66 37 152 37q53 0 106 -13l14 -6q43 -27 93 -80q109 106 251 107q57 0 127 -15q90 -20 144 -75l8 -13q23 -35 45 -69q27 -43 27 -76v-1149q0 -51 -52 -51h-227q-49 0 -51 49q-2 37 -2 84q0 51 4 162.5t4 167.5q0 223 -49 348 q-16 12 -27 16l-53 -59l-14 -707q0 -35 -56.5 -55.5t-128.5 -20.5q-141 0 -147 62q-2 45 -2 102q0 49 3 158t3 164q0 217 -47 338q-31 25 -43 18l-51 -59l-15 -707q0 -63 -155 -63q-23 0 -62 2h-45h-4q-49 0 -49 51zM86 1286l14 -1235q44 -1 72 -1t41 1l14 686q0 29 29 60 q25 25 49 51l6 6q29 23 74 23q98 0 127 -68q59 -143 59 -377q0 -49 -4 -192q-3 -79 -3 -136q0 -28 1 -51l129 6l15 678q0 29 30 62q25 25 53.5 52.5t75.5 27.5q82 0 113 -70q59 -145 59 -385q0 -53 -4 -191q-3 -77 -3 -132q0 -28 1 -50h127v1086l-55 102q-33 33 -100 45 q-53 8 -109 16q-141 -45 -190 -114q-14 -20 -37 -21q-29 0 -78 47q-66 63 -70 66q-35 8 -66.5 8t-58.5 -8q-35 -10 -73.5 -35.5t-51.5 -25.5q-27 0 -57 69h-129z" />
<glyph unicode="N" horiz-adv-x="995" d="M-8 1337q0 51 51 52h227q45 0 48.5 -38t3.5 -75q31 115 186 115q162 0 250 -99.5t88 -142.5v-1149q0 -51 -51 -51h-217q-63 0 -64 151q0 6 6 121q14 250 15 246q0 219 -101 315q-5 1 -10 1q-44 0 -90 -62l-12 -711q0 -63 -156 -63q-23 0 -62 2h-45h-4q-49 0 -49 51z M94 1286l15 -1235q44 -1 72 -1t40 1l10 686q0 53 68 101.5t133 48.5q37 0 60 -19q145 -127 145 -395q0 -59 -8 -179t-8 -177q0 -35 2 -66h120v1084q-37 59 -57 84q-39 45 -84 57q-35 12 -72 12q-72 0 -158.5 -47t-103.5 -47q-33 0 -47 59q-2 15 -2 33h-125z" />
<glyph unicode="O" horiz-adv-x="888" d="M-27 885q0 186 56 299q68 143 235 207q27 10 68 10q70 0 152.5 -27.5t123.5 -62.5l8 -6q141 -170 142 -492q0 -84 -15 -285q-9 -135 -9 -219q0 -28 1 -51l-2 -14q-18 -86 -82.5 -158.5t-146.5 -105.5l-8 -3q-55 -12 -111 -12q-164 0 -276 90q-119 94 -119 252q0 20 2 41 v8q4 41 4 90q0 68 -11.5 216.5t-11.5 222.5zM84 864q0 -70 9 -205t9 -194q0 -72 -8 -123v-11q0 -123 84 -196q79 -67 203 -67h4q41 0 84 8q129 55 162 184v25q0 80 10 229q14 195 14 283q0 297 -114 438q-71 56 -218 56q-14 0 -30 -1q-209 -82 -209 -426zM154 668 q0 156 139 209l10 4q29 4 57 4q141 0 207 -105l6 -10q16 -45 17 -94q0 -141 -109 -197l-8 -4q-57 -18 -108 -18q-100 0 -158 65q-53 59 -53 146zM256 664q0 -104 111 -105q33 0 71 12q49 29 49 105q0 27 -8 53q-39 53 -119 53q-16 0 -34 -2q-70 -31 -70 -116z" />
<glyph unicode="P" horiz-adv-x="962" d="M-18 -221l10 1554q2 43 41 49h69q72 6 80 7q70 0 103 -41q81 30 161 30h5q125 0 215 -71l8 -11q104 -141 133 -196q33 -63 33 -133l-21 -232q-14 -161 -13 -352q0 -64 1 -131l-2 -16q-51 -179 -215 -261q-61 -30 -134 -30h-5q-74 0 -150 26q-4 -78 -8 -155 q-12 -88 -62 -88h-198q-51 0 -51 51zM84 -170h100q6 88 13 176q12 96 55 96q12 0 31 -10q82 -45 166 -45q88 0 157 61.5t96 149.5l-14 844l-92 129q-63 46 -137 46q-18 0 -37 -3q-68 -20 -135 -39q-10 -2 -19 -2q-45 0 -63 49h-8q-22 0 -103 -4zM180 659q0 129 135 197 q45 23 95 23q74 0 132 -46.5t74 -113.5l2 -8q6 -29 7 -56q0 -123 -111 -194l-10 -4q-51 -18 -98 -19q-96 0 -161 66.5t-65 154.5zM318.5 575.5q35.5 -34.5 89.5 -34.5q27 0 55 10q55 38 55 111q0 14 -2 30q-29 82 -110 82q-23 0 -46 -10q-77 -39 -77 -107q0 -47 35.5 -81.5z " />
<glyph unicode="Q" horiz-adv-x="942" d="M-68 483q0 102 25 338q18 165 18 261q0 30 -2 53v5q0 85 121 163q111 72 199 73h14q59 -8 176 -39q39 31 101 31q18 0 53 -3t51 -3q20 0 39 4q8 1 15 1q44 0 44 -52l17 -1542q0 -53 -101 -62q-88 0 -178 -2h-2q-47 0 -59 88q-6 82 -10 164q-65 -24 -138 -24h-6 q-57 0 -108 14l-13 4q-256 141 -256 528zM35 508q0 -348 196 -461q31 -6 64 -6q53 0 127 25.5t88 25.5q33 0 37 -47l22 -231l129 6l-12 1442l-78 4q-57 0 -67 -17q-12 -23 -41 -22q-20 0 -58 12q-43 16 -53 18q-35 4 -100 17q-135 -8 -211 -148v-16q0 -86 -19 -272 q-24 -214 -24 -322v-8zM147 649q0 144 125 201q43 18 88 18q121 0 203 -112l6 -13q20 -51 21 -98q0 -94 -69.5 -154.5t-160.5 -60.5q-139 0 -194 127q-18 43 -19 92zM250 649q0 -27 10 -51q29 -66 105 -66q49 0 85.5 32t36.5 83q0 27 -10 53q-51 66 -117 66q-47 0 -78.5 -35 t-31.5 -82z" />
<glyph unicode="R" horiz-adv-x="759" d="M-25 1311q-2 67 150 67h4q117 0 160 -30q100 47 243 47q109 0 109 -58v-508q0 -54 -109 -54q-17 0 -38 1q-83 5 -83 6h1q-78 0 -90 -51v-721q0 -35 -56.5 -55.5t-128.5 -20.5q-147 0 -147 66zM78 1268l14 -1215l127 6v689q29 133 195 133q23 0 64 -2t61 -2v409h-13 q-147 0 -219 -45q-10 -6 -20 -6q-14 0 -51 20.5t-70 20.5t-88 -8z" />
<glyph unicode="S" horiz-adv-x="931" d="M-63 266q0 113 20 191q23 86 61 88q6 1 32 1q52 0 186 -3h19q123 0 191 24q-8 -6 -14 -14q-20 -18 -18 -25q2 -4 2 -8l20 -12l-18 2q-242 4 -332 53q-135 74 -135 292v13q0 16 10 144q10 137 12 145q55 135 187 189q94 41 262 43h266h2q46 0 72 -99q24 -85 24 -207v-10 q0 -262 -71 -278q-57 -15 -203 -15h-18h-20q-130 0 -193 -24q6 6 12 14q20 18 18 25l-3 12t-3 8l6 -4q119 -2 240 -4q133 -14 188 -129l4 -12q31 -178 31 -297q0 -422 -395 -426q-82 7 -220 7q-55 0 -120 -1h-5q-43 0 -71 96q-26 87 -26 212v9zM53 856q0 -219 203 -242 q61 0 223 -22q37 -33 37 -74q0 -35 -35 -47q-82 -29 -202 -31q-102 2 -205 4l8 -389h29q47 0 114 -4q102 -4 137 -4q154 0 224 57q88 74 88 266v9q0 96 -31 260q-25 49 -100 66q-43 8 -146.5 11t-146.5 13l-6 4q-35 27 -35 70q0 35 33 47q78 31 202 31q172 0 207 6l-8 397 q-31 0 -98.5 2t-102.5 2q-297 0 -368 -160q0 -41 -10.5 -133t-10.5 -139z" />
<glyph unicode="T" horiz-adv-x="841" d="M-35 846v481q0 49 45 49q10 0 39 -4q20 -2 27 0q4 10 4 27q0 16 -5 64t-5 73q0 96 57 96h225q47 0 62 -86q6 -76 12 -151h209q51 0 51 -52l16 -126q14 -135 15 -230q0 -207 -70 -207h-223q-9 -63 -9 -114q0 -61 13 -105h207q51 0 51 -51v-494q0 -51 -49 -51h-4h-197 q-117 0 -186 33q-90 41 -133 145q-49 117 -49 301q0 53 6 170q4 109 4 164q-68 16 -68 17q-45 16 -45 51zM68 887q66 -16 65 -17q43 -16 45 -49q1 -20 1 -46q0 -52 -3 -130q-6 -139 -6 -188q0 -174 41 -273q51 -121 240 -121q27 0 71.5 2.5t61.5 2.5v391h-191q-39 0 -63 73 q-20 66 -21 158q0 193 72 193h213l-8 409h-205q-47 0 -62 86l-12 152h-135q0 -12 4 -56t4 -69q0 -135 -112 -135v-383z" />
<glyph unicode="U" horiz-adv-x="948" d="M-51 324v8l14 1018q2 49 51 49h215q49 0 50 -49l30 -736q19 -30 63 -30h3q18 0 35 4l51 67v693q0 51 51 51h225q49 0 51 -49l15 -1327q0 -43 -45 -50h-78q-69 -5 -96 -5q-9 0 -13 1q-61 2 -98 33q-76 -47 -180 -47q-61 0 -117 18l-8 2q-199 61 -219 349zM51 336 q33 -215 152 -264q49 -10 94 -11q100 0 147 52q23 25 37 24q8 1 39 -33q29 -32 71 -32h5q34 2 104 6l-14 1218h-123v-659q0 -23 -40 -76t-62 -63q-37 -14 -88 -15q-162 0 -166 115l-29 698h-112z" />
<glyph unicode="V" horiz-adv-x="985" d="M-51 1358q-1 5 -1 9q0 41 52 46h92q39 2 66 2q184 0 184 -129q0 -27 -6 -59q25 -263 74 -486l88 629q6 45 51 45h254q52 0 52 -46q0 -6 -1 -13l-188 -1325q-8 -59 -242 -60q-45 0 -117 2q-63 2 -78 2q-43 0 -51 43q-61 336 -123 672q-72 401 -106 668zM59 1309 q33 -246 99 -613q57 -309 112 -618q264 0 299 4l174 1231h-149l-100 -719q-4 -25 -37 -55.5t-64 -30.5t-41 39q-27 98 -69 309q-51 262 -52 354q0 12 3.5 33t3.5 31q0 45 -58 45q-20 0 -61 -4t-60 -6z" />
<glyph unicode="W" horiz-adv-x="1351" d="M-23 1329q-1 7 -1 13q0 46 51 47h229q61 0 80 -183q4 -117 8 -233q12 242 35 373q6 43 49 43h322q41 0 49 -41q30 -131 57 -426q4 88 4 184v60.5v52.5q0 127 43 147q23 12 246 23q23 0 39 -15.5t14 -40.5l-92 -1325q-2 -37 -78 -59q-68 -20 -162 -21q-184 0 -196 62 q-29 129 -53 403q-6 -129 -19 -385q-4 -37 -80 -59q-68 -20 -160 -21q-188 0 -198 66zM86 1286l174 -1233l242 8q8 188 18 377q10 223 31 373q6 43 51 43h14q41 0 52 -41q27 -129 51 -381q25 -264 47 -379l244 8l86 1223l-121 -6l-27 -598q-4 -80 -10 -105q-12 -57 -55 -83 q-16 -10 -31 -11q-37 0 -45 43q-29 125 -51 379q-25 262 -47 383h-236q-18 -121 -29.5 -378t-29.5 -382q-8 -47 -41 -47q-27 0 -55.5 25.5t-32.5 50.5l-76 731h-123z" />
<glyph unicode="X" horiz-adv-x="993" d="M-100 285q0 117 22 192q22 82 64 82h2q32 -1 57 -1q50 0 72 3q78 12 102 68q1 12 1 24q0 75 -56 115q-27 10 -74 10q-96 0 -96 -2h2q-61 6 -62 53v508q0 51 52 52h268q41 0 82 -99q23 -63 45 -127q16 66 35 131q27 94 67 95h310q49 0 51 -52l10 -508q2 -55 -129 -61 q-143 -10 -166 -59q-2 -17 -2 -33q0 -87 57 -117h179q49 0 51 -49l10 -498q2 -67 -229 -69q-139 0 -187 84l-6 12q-12 49 -43 113l-10 18q-45 -152 -57 -170q-25 -41 -89 -45q-117 -4 -231 -6h-2q-46 0 -74 106q-26 93 -26 220v10zM37 881h53q72 0 119 -21l8 -4 q106 -72 107 -203q0 -23 -5 -45l-4 -12q-56 -141 -270 -141h-6l10 -402l187 8q25 88 96 258q16 31 37 31q45 0 104 -125q37 -84 57 -153q21 -27 95 -27q37 0 127 12l-11 400h-137q-78 0 -117 82q-32 61 -32 146v5q0 20 2 39l4 12q37 88 123 111q2 0 168 18l-11 416h-219 q-25 -100 -39 -143q-27 -80 -67 -131q-20 -27 -39 -27q-37 0 -78 100.5t-80 200.5h-182v-405z" />
<glyph unicode="Y" horiz-adv-x="950" d="M-51 1370v7q0 48 51 48h213q39 0 49 -36q35 -119 64 -332q33 -238 53 -334l94 647q4 31 66 51q55 18 127 19q147 0 147 -64v-8q-100 -864 -229 -1663q-4 -33 -67.5 -104.5t-88.5 -71.5h-229q-68 0 -68 233q0 47 4 117q2 63 2 76q-2 29 29 49q-27 16 -29 37l-102 664 q-61 399 -86 665zM57 1323q25 -248 80 -616q49 -307 96 -615q39 -6 78 -14q57 -14 60 -51q1 -8 1 -16q0 -53 -38 -77q-24 -15 -67 -15q-12 0 -27 1q-1 -32 -1 -75q0 -85 5 -214h166q25 35 75 103q123 762 220 1587l-138 -6q-51 -369 -121 -768q-33 -47 -63 -47 q-63 0 -109 211q-12 49 -38 245q-16 125 -62 367h-117z" />
<glyph unicode="Z" horiz-adv-x="940" d="M-37 1085q0 129 25 222q28 98 72 98h3q201 -2 402 -6q231 -25 311 -213q6 -12 15 -174q6 -122 6 -159v-13q-8 -225 -181 -295l-12 -4q-2 0 -147 2q-106 0 -131 -27l-2 72l10 -13h385q49 0 51 -49q0 -2 14.5 -137t14.5 -219q0 -195 -70 -195h-19q-53 0 -149 -8 q-121 -10 -178 -10q-266 0 -354 180l-2 8q-53 106 -54 265q0 162 54 292l8 13q104 129 330 129q30 0 75 -2q4 4 6 4v-4q2 -12 -6 -21q-2 -2 15 -26q-2 2 -17 14h-391q-41 0 -63 86q-20 76 -21 190zM80 424q0 -137 41 -238q68 -117 252 -123q18 -1 40 -1q48 0 113 6 q135 10 152 10l-10 395h-355q-29 0 -51 24.5t-22 55.5q0 92 182 92h8q158 -4 154 -4q112 51 112 241q0 54 -9 148t-9 125q-70 152 -336 152q-39 0 -123 -4q-61 -3 -95 -3h-15l-9 -389h361q33 0 54.5 -23.5t21.5 -56.5q0 -41 -35 -71q-16 -23 -78 -23q-12 0 -41 2h-43 q-150 0 -221 -82q-39 -100 -39 -233z" />
<glyph unicode="a" d="M51.5 807q22.5 201 22.5 287q0 33 -2 61q90 156 202 188q45 14 93 15q104 0 172 -55q2 71 84 71h2q18 0 59 -5t59 -5q23 0 39 4l11 -1325q-106 -16 -140 -16q-84 0 -114 43q-70 -53 -170 -54q-49 0 -95 17q-245 111 -245 470q0 103 22.5 304zM229 674q0 -20 4 -53 q61 -113 164 -113q18 0 35 2q127 47 127 178q0 26 -6 51q-20 49 -68.5 81t-101.5 32q-37 0 -70 -16q-84 -45 -84 -162z" />
<glyph unicode="b" horiz-adv-x="907" d="M43 1581h227l27 -293q96 45 192 45q109 0 183 -61l108 -148l-12 -934q-55 -131 -188 -174q-47 -16 -101 -16q-104 0 -182 53q-25 -43 -96 -43q-14 0 -72 6q-24 2 -41.5 2t-30.5 -2zM272 653q0 -33 15 -61q45 -96 162 -96q41 0 75 14q84 55 84 160q0 20 -2 43 q-29 118 -162 118h-2q-70 0 -116 -40q-53 -76 -54 -138z" />
<glyph unicode="c" horiz-adv-x="821" d="M47 279l14 882q41 127 154 162q51 17 142 17q40 0 87 -3q77 -5 132 -5q66 0 100 7v-524q-25 -4 -60 -4q-29 0 -86 4t-86 4q-125 0 -180 -69q-2 -29 -2 -52q0 -135 80 -178h365v-495h-17q-50 0 -139 -9q-115 -10 -166 -10q-205 0 -283 125z" />
<glyph unicode="d" d="M51 899q0 182 53 283q68 129 234 164q19 2 38 2q95 0 175 -43l14 294h215l15 -1554q-35 -16 -76 -16q-31 0 -88.5 11t-83.5 11q-53 0 -88 -31q-29 -4 -56 -4q-133 0 -227 70q-70 49 -94 139q-12 41 -25 170q8 57 9 137q0 57 -7.5 181.5t-7.5 185.5zM270 608 q33 -94 150 -94q43 0 90 14q82 41 82 154q0 37 -12 74q-51 84 -174 84q-20 0 -44 -2q-108 -56 -108 -160q0 -37 16 -70z" />
<glyph unicode="e" horiz-adv-x="839" d="M20 469q0 86 15.5 260t15.5 254q0 59 -6 111q47 117 244 186q119 0 162 -6q88 -12 143 -60q123 -104 123 -342q0 -37 -3 -112.5t-3 -112.5q0 -49 4 -88q-72 -14 -228 -14q-158 0 -229 -15q-2 -8 -2 -16q0 -16 43 -65h401l15 -453h-494q-201 133 -201 473zM215 725 q0 -10 6 -18l332 10q-53 98 -203 98q-25 0 -51 -2q-29 -10 -56.5 -36.5t-27.5 -51.5z" />
<glyph unicode="f" horiz-adv-x="665" d="M0 733v467h66q12 104 24 209q25 115 113 168h346v-309q-12 -2 -31 -2q-18 0 -56 3t-54 3q-78 0 -99 -55l254 -27v-457h-239l-15 -710q-35 -13 -95 -13h-9h-109l-14 709q-12 14 -37 14q-53 0 -45 0z" />
<glyph unicode="g" horiz-adv-x="905" d="M14 438q0 80 17.5 252t17.5 252q0 98 -18 170q23 84 90 150.5t149 89.5q29 12 62 12q41 0 108.5 -25.5t89.5 -25.5q39 0 62 39h176l12 -1581q-43 -123 -153 -164q-65 -24 -180 -24q-24 0 -50 1q-92 3 -150.5 3t-82.5 -3l-14 416h-2h88q49 0 75 14q-168 37 -239 156 q-57 96 -58 268zM231 692q0 -43 15 -88q41 -84 151 -84q41 0 76 15q84 53 84 174q0 20 -2 43q-37 94 -174 94q-25 0 -55 -2q-94 -33 -95 -152zM379 14h135q4 6 23.5 22.5t19.5 31.5q0 6 -2 14q-27 -37 -84 -49q-47 -8 -92 -19z" />
<glyph unicode="h" horiz-adv-x="890" d="M43 1554h227q14 -48 14 -138q0 -14 -0.5 -29.5t-0.5 -29.5q0 -91 14 -138q78 55 195 55q57 0 114 -14q92 -37 174 -213v-1047q-39 -12 -104 -12l-111 2l-28 721q-73 110 -133 110h-1q-27 0 -51 -18l-82 -107v-682q-37 -14 -102 -14h-113h2z" />
<glyph unicode="i" horiz-adv-x="460" d="M70 0v1204h254l10 -1194zM70 1245v281h264v-271z" />
<glyph unicode="j" horiz-adv-x="811" d="M47 -55q68 12 178 12q182 -2 183 -2l30 41l11 1300h229l14 -1489q-37 -135 -147 -223h-498v361zM449 1337v269h229q14 -47 14 -125v-131v2z" />
<glyph unicode="k" horiz-adv-x="784" d="M33 1573h243l-2 -238q0 -141 13 -229q37 109 149 137q49 10 181 10h47l14 -473q-39 -14 -98 -14q-20 0 -63.5 2t-63.5 2q-127 0 -166 -82q-14 -29 -15 -59q0 -96 97 -144h295l14 -467h-12q-33 0 -95 -8q-80 -12 -114 -12q-127 0 -156 117q-29 -4 -29 -39q0 -8 4 -37 q2 -20 0 -31h-229z" />
<glyph unicode="l" horiz-adv-x="415" d="M31 1565h256v-1565h-230z" />
<glyph unicode="m" horiz-adv-x="1341" d="M35 1325q37 14 104 14l109 -2l31 -65q58 65 167 65h3q47 0 94 -12q33 -18 63 -49q57 -59 58 -59q59 84 229 135q68 -10 137 -21q74 -16 117 -59l65 -123v-1149h-227q-2 45 -2 98t3 163t3 163q0 229 -55 364q-41 41 -72 41q-20 0 -37 -16l-65 -76l-15 -727l-229 -10 q-2 51 -2 115q0 53 3 159.5t3 157.5q0 225 -55 356q-45 41 -82 41q-20 0 -39 -16l-65 -76l-17 -727q-37 -12 -102 -12l-111 2z" />
<glyph unicode="n" d="M43 1337h227v-49q-2 -31 13 -43q98 94 237 94q49 0 96 -14q86 -25 179 -176v-1149h-217q-8 53 -9 119q0 59 8.5 179t8.5 177q0 244 -127 354q-18 6 -37 7q-74 0 -139 -99l-13 -727q-37 -12 -102 -12l-111 2z" />
<glyph unicode="o" horiz-adv-x="827" d="M33 899q0 166 47 264q59 125 203 178h29q179 0 263 -69q131 -156 132 -459q0 -82 -15 -285q-9 -134 -9 -220q0 -28 1 -52q-16 -74 -72.5 -137.5t-128.5 -91.5q-61 -12 -116 -13q-131 0 -203 68q-121 116 -121 251v13q10 63 10 146q0 66 -10 204t-10 203zM207 666 q0 -31 8 -62q31 -94 152 -94q45 0 92 14q80 41 80 152q-1 39 -15 76q-51 82 -164 82q-25 0 -49 -5q-104 -41 -104 -163z" />
<glyph unicode="p" horiz-adv-x="872" d="M33 -221l10 1554q14 -4 35 -4q18 0 53 4t51 4q70 0 76 -55q96 45 191 45q109 0 184 -59l106 -148l17 -870q-45 -158 -189 -227q-53 -27 -116 -27q-98 0 -193 51l-27 -268h-198zM229 651q0 -33 17 -65q47 -94 164 -94q39 0 75 12q84 55 84 158q0 20 -2 40q-18 53 -62 88 t-97 35q-68 0 -123.5 -53t-55.5 -121z" />
<glyph unicode="q" horiz-adv-x="874" d="M-16 487q0 100 24 338q18 169 18 267q0 26 -1 47q41 80 113.5 132t156.5 54q10 -2 102 -18q63 -10 99 -33q24 43 101 43h7q135 -2 131 -2l17 -1544l-230 -11l-26 281q-78 -53 -187 -53q-49 0 -96 12q-229 125 -229 487zM199 649q0 -37 14 -71q41 -94 154 -95q39 0 75 15 q94 39 95 153q-1 39 -15 74q-66 92 -162 92q-35 0 -65 -14q-96 -43 -96 -154z" />
<glyph unicode="r" horiz-adv-x="681" d="M27 1311q113 16 143 16q82 0 111 -41q85 52 269 52q19 0 40 -1v-508q-20 -4 -49 -4q-20 0 -65.5 3t-65.5 3q-119 0 -140 -94v-727l-229 -10z" />
<glyph unicode="s" horiz-adv-x="845" d="M2 854q0 47 10 147q10 94 11 138q47 119 172 166q87 32 238 32h9h250l10 -493q-51 -13 -173 -13h-48q-143 0 -219 -28q-4 -14 7.5 -23.5t21.5 -17.5q111 0 223 -2q133 -8 178 -105q33 -182 33 -286q0 -160 -61 -250q-86 -125 -297 -125q-41 0 -126 5t-126 5q-45 0 -82 -4 l-10 494q5 1 32 1q53 0 191 -3q137 0 217 28q4 12 -8 25q-8 6 -17 14q-94 2 -186 6q-104 10 -164 62q-86 74 -86 227z" />
<glyph unicode="t" horiz-adv-x="761" d="M16 846v481q29 -6 50 -6q65 0 65 78q0 25 -5 72t-5 67q0 27 6 43h225l29 -238h254l12 -512h-266q-18 -94 -19 -167q0 -92 31 -154h242v-494q-16 1 -38.5 1t-51.5 -1q-72 -2 -92 -2q-225 0 -289 150q-45 106 -45 280q0 43 6 189q4 70 4 123q0 35 -2 63z" />
<glyph unicode="u" horiz-adv-x="880" d="M0 332l14 1016h215l29 -748q35 -68 117 -68q35 0 67 13l70 92v711h225l15 -1325q-18 4 -41 4q-20 0 -61.5 -3.5t-59.5 -3.5q-88 0 -107 58q-61 -68 -186 -68q-51 0 -109 13q-152 59 -188 309z" />
<glyph unicode="v" horiz-adv-x="892" d="M0 1364q18 -4 43 -4q20 0 64.5 3t66.5 3q117 0 117 -84q0 -23 -8 -51q37 -371 118 -670l41 41l107 762h254l-189 -1325q-72 -14 -190 -14l-195 2q-61 336 -123 671q-74 399 -106 666z" />
<glyph unicode="w" horiz-adv-x="1257" d="M27 1337h229l80 -778l26 -24q20 125 31 401q12 268 35 401h322q31 -133 55 -401q25 -276 51 -401q35 23 41 147l29 643l225 12l-92 -1327l-336 -10q-27 129 -53.5 400.5t-53.5 402.5h-14q-23 -154 -33 -393q-16 -362 -18 -400l-336 -10z" />
<glyph unicode="x" horiz-adv-x="919" d="M-14 508q29 -1 54 -1q75 0 112 9q86 20 116 98q4 20 4 39q0 104 -84 160q-37 16 -98 16h-107h3v508h268l121 -295q51 66 108 295h310l10 -508q-82 -10 -166 -18q-96 -12 -129 -88q-2 -25 -2 -45q0 -129 98 -170h189l10 -498q-12 0 -86 -8q-59 -8 -96 -8q-106 0 -138 57 q-14 51 -49 123q-29 61 -59 121q-27 -45 -55 -143.5t-52 -141.5l-268 -10z" />
<glyph unicode="y" horiz-adv-x="851" d="M0 1374h213q33 -111 74 -409q37 -266 88 -408q12 -2 21.5 8t15.5 21l110 778l240 10q-98 -862 -227 -1661q-6 -6 -50 -69q-27 -41 -57 -64h-229q-12 70 -13 184l2 193q12 12 45 12h17.5h17.5q52 0 52 44q0 5 -1 10l-131 26q-51 330 -102 662q-61 399 -86 663z" />
<glyph unicode="z" horiz-adv-x="866" d="M29 424q0 150 45 260q90 109 291 109q37 0 96 -2l20 18q10 10 8 22l-28 29h-414l12 494q188 -2 377 -2q221 -20 293 -187q0 -43 8 -141q10 -104 11 -154q0 -217 -152 -278q2 0 -164 2q-104 0 -145 -43l26 -27h406l10 -497h-19q-48 1 -140 -7q-110 -10 -164 -10 q-244 0 -332 154q-45 111 -45 260z" />
<glyph unicode="&#x2000;" horiz-adv-x="828" />
<glyph unicode="&#x2001;" horiz-adv-x="1657" />
<glyph unicode="&#x2002;" horiz-adv-x="828" />
<glyph unicode="&#x2003;" horiz-adv-x="1657" />
<glyph unicode="&#x2004;" horiz-adv-x="552" />
<glyph unicode="&#x2005;" horiz-adv-x="414" />
<glyph unicode="&#x2006;" horiz-adv-x="276" />
<glyph unicode="&#x2007;" horiz-adv-x="276" />
<glyph unicode="&#x2008;" horiz-adv-x="207" />
<glyph unicode="&#x2009;" horiz-adv-x="331" />
<glyph unicode="&#x200a;" horiz-adv-x="92" />
<glyph unicode="&#x202f;" horiz-adv-x="331" />
<glyph unicode="&#x205f;" horiz-adv-x="414" />
<glyph unicode="&#x25fc;" horiz-adv-x="1341" d="M0 0v1341h1341v-1341h-1341z" />
</font>
</defs>
</svg>
