<?xml version="1.0" standalone="no"?>
<!DOCTYPE svg PUBLIC "-//W3C//DTD SVG 1.1//EN" "http://www.w3.org/Graphics/SVG/1.1/DTD/svg11.dtd" >
<svg xmlns="http://www.w3.org/2000/svg" xmlns:xlink="http://www.w3.org/1999/xlink" version="1.1">
<metadata></metadata>
<defs>
<font id="i_am_online_with_uline" horiz-adv-x="1126" >
<font-face units-per-em="2048" ascent="1536" descent="-512" />
<missing-glyph horiz-adv-x="765" />
<glyph horiz-adv-x="0" />
<glyph unicode="&#xd;" horiz-adv-x="765" />
<glyph unicode=" " horiz-adv-x="765" d="M-31 31q0 14 9.5 22t21.5 8h766q12 0 21.5 -8t9.5 -22q0 -12 -9.5 -21.5t-21.5 -9.5h-766q-12 0 -21.5 9t-9.5 22z" />
<glyph unicode="!" horiz-adv-x="450" d="M-31 31q0 12 8 20q10 10 23 10h96q-6 20 -6 43q0 57 39 97.5t96 40.5t96 -40t39 -98q0 -23 -6 -43h97q14 0 20 -10q10 -6 10 -20q0 -10 -7 -20.5t-25 -10.5h-150q-23 0 -29 18q-6 20 6 33q23 23 23 53q0 31 -21.5 53.5t-52.5 22.5t-52 -22.5t-21 -53.5t22 -53 q12 -12 6 -33q-6 -18 -28 -18h-150q-18 0 -25.5 10t-7.5 21zM111 868v4v388q0 12 9 21t21 9h168q12 0 21.5 -9t9.5 -21v-388v-4l-45 -546q0 -12 -9.5 -20.5t-21.5 -8.5h-78q-12 0 -21 8t-9 21zM172 872l41 -518h25l41 518v357h-107v-357z" />
<glyph unicode="&#x22;" horiz-adv-x="768" d="M-31 31q0 14 9.5 22t21.5 8h328h112h328q31 0 31 -30q0 -12 -8.5 -21.5t-22.5 -9.5h-328h-112h-328q-12 0 -21.5 9t-9.5 22zM92 872v197q0 57 12 107q6 27 16.5 49t22.5 43q29 41 72 65q43 25 100 25q14 0 22.5 -9.5t8.5 -21.5v-88q0 -12 -8 -21.5t-23 -9.5q-20 0 -28 -8 q-16 -14 -25 -29q-10 -23 -12 -47q-2 -6 -2 -12t-2 -12h71q14 0 22.5 -9.5t8.5 -21.5v-197q0 -12 -8 -21t-23 -9h-194q-12 0 -21.5 9t-9.5 21zM154 903h133v135h-72q-31 0 -31 31v31.5t4 32.5q6 39 19 65q14 27 41 51q20 14 37 17v28q-10 -2 -19.5 -6t-19.5 -8 q-27 -16 -51 -47q-20 -31 -31 -72q-10 -47 -10 -92v-166zM420 872v197q0 57 12 107q6 27 16.5 49t22.5 43q29 41 72 65q43 25 100 25q14 0 22.5 -9.5t8.5 -21.5v-88q0 -12 -8.5 -21.5t-22.5 -9.5q-20 0 -29 -8q-16 -14 -24 -29q-10 -23 -12 -47q-2 -6 -2.5 -12t-2.5 -12h72 q14 0 22.5 -9.5t8.5 -21.5v-197q0 -12 -8.5 -21t-22.5 -9h-194q-12 0 -21.5 9t-9.5 21zM481 903h133v135h-71q-31 0 -31 31v31.5t4 32.5q6 39 19 65q14 27 40 51q20 14 37 17v28q-10 -2 -19 -6t-20 -8q-27 -16 -51 -47q-20 -31 -30 -72q-10 -47 -11 -92v-166z" />
<glyph unicode="#" horiz-adv-x="1101" d="M-31 31q0 12 9.5 21t21.5 9h213l43 301h-135q-12 0 -21.5 9.5t-9.5 21.5v121q0 12 9.5 21.5t21.5 9.5h162l28 203h-145q-12 0 -21.5 9t-9.5 21v121q0 12 9.5 21.5t21.5 9.5h170l47 334q4 27 31 26h121q14 0 24 -10t6 -25l-45 -325h156l47 334q4 27 31 26h123q12 0 22 -10 t6 -25l-45 -325h121q14 0 22.5 -9.5t8.5 -21.5v-121q0 -12 -8.5 -21t-22.5 -9h-145l-29 -203h125q12 0 21.5 -9.5t9.5 -21.5v-121q0 -12 -9.5 -21.5t-21.5 -9.5h-152l-43 -301h365q12 0 21.5 -9t9.5 -21q0 -14 -9.5 -22.5t-21.5 -8.5h-400q-12 0 -22 10q-8 8 -8 25l51 362 q4 27 31 27h147v59h-129q-14 0 -24 11q-8 14 -7 24l37 264q4 27 31 27h141v59h-125q-16 0 -24 11q-10 8 -6 24l45 326h-60l-47 -334q-4 -27 -31 -27h-219q-14 0 -22 11q-10 8 -6 24l45 326h-60l-47 -334q-4 -27 -31 -27h-165v-59h149q16 0 23 -10q12 -12 8 -25l-37 -264 q-4 -27 -31 -27h-157v-59h139q14 0 24 -10t7 -25l-52 -362q-4 -27 -30 -27h-240q-12 0 -21.5 8t-9.5 23z" />
<glyph unicode="$" d="M-31 31q0 12 9.5 21t21.5 9h268q-12 10 -24.5 20.5t-24.5 20.5q-111 115 -127 310q0 12 8 24q8 8 23 8h149q31 0 31 -28q6 -106 66 -166q51 -51 123 -70v404q-78 20 -144 47q-68 27 -121 69q-49 43 -73 105q-25 57 -25 143t31 158q31 70 84 123q55 55 125 84 q29 12 59.5 20t63.5 13v88q0 31 30 30h96q12 0 21.5 -8t9.5 -22v-91q137 -25 219 -110q90 -96 127 -258q2 -14 -6 -27q-12 -12 -24 -12h-150q-25 0 -29 25q-29 135 -137 172v-371l82 -23q41 -10 88 -32q47 -20 101 -66q47 -41 81 -104q33 -63 33 -154q0 -92 -30 -166 q-31 -72 -89 -125q-16 -16 -36 -31h247v-61h-370q-27 0 -31 25q-4 29 20 34q4 2 17 7q33 14 61.5 31.5t50.5 39.5q47 45 72 105q27 59 27 141q0 74 -27 125q-29 55 -67 88q-39 37 -84 55q-23 10 -42.5 17.5t-35.5 11.5l-107 29q-23 8 -22 30v432q0 14 10 25q12 8 27 6 q88 -14 145 -76q47 -47 70 -129h86q-35 121 -103 193q-78 82 -209 96q-27 4 -26 31v86h-35v-84q0 -12 -8 -21.5t-21 -9.5q-74 -6 -133 -33q-59 -25 -104 -69q-23 -23 -40.5 -48.5t-29.5 -56.5q-27 -63 -27 -133q0 -35 5.5 -65.5t15.5 -55.5q16 -45 57 -79q39 -35 105 -62 q68 -27 155 -47q25 -6 25 -31v-467q0 -14 -12 -22q-8 -8 -25 -8q-57 10 -105.5 33.5t-84.5 62.5q-70 66 -82 176h-86q18 -147 106 -236q57 -59 137 -88q25 -6 21 -34q-4 -25 -31 -25h-391q-12 0 -21.5 9t-9.5 22z" />
<glyph unicode="%" horiz-adv-x="1488" d="M-31 31q0 12 9.5 21t21.5 9h109l354 488q-16 -2 -31.5 -3t-32.5 -1q-86 0 -147 30q-63 31 -100 84q-18 27 -30.5 56.5t-23.5 64.5q-8 35 -11 71t-3 73q0 80 14 143q16 72 52 125q35 51 100 88q61 33 149 33t150 -33q61 -31 98 -86q35 -49 51 -123q12 -66 13 -141v-39 l311 430q6 12 25 12h149q20 0 27 -16q8 -14 -2 -33l-885 -1223h530q-8 8 -15 15.5t-13 17.5q-39 53 -54 121q-16 72 -16 143q0 72 16 144q8 35 20.5 65.5t31.5 57.5q37 53 98 90q61 31 151 30q90 0 150 -30q61 -31 98 -86q35 -49 51 -123q12 -68 13 -144q0 -76 -15 -139 q-18 -72 -55 -123q-16 -23 -33 -39h195q14 0 22.5 -9t8.5 -21t-8.5 -21.5t-22.5 -9.5h-295q-25 0 -29 25q-6 25 19 34q8 2 16 9q47 25 78 67q31 43 43 103q14 57 14 124q0 70 -12 132q-12 61 -41 100q-27 41 -76 65q-47 25 -121 25q-76 0 -120 -25q-51 -25 -78 -67 q-31 -47 -43 -105q-6 -29 -10.5 -61.5t-4.5 -67.5t4.5 -66.5t10.5 -62.5q16 -59 45 -98q27 -39 76 -65q4 -2 16 -7q23 -10 18 -34q-6 -25 -30 -25h-693q-6 0 -10 2q-4 0 -8 4q-6 6 -8 10q-4 8 -4 13q0 8 2 10q0 6 4 10l885 1223h-76l-379 -524q0 -4 -4 -5q-2 -4 -10 -8 q-4 0 -7.5 -1t-7.5 1q-6 0 -10 2t-8 6q-6 6 -6 13q-2 4 -2 12q0 4 2 6q2 10 4 17.5t4 11.5q12 61 12 127q0 68 -12 129q-6 29 -15.5 54.5t-25.5 45.5q-29 43 -74 68q-49 25 -123 24q-72 0 -120 -26q-51 -25 -78 -68q-31 -45 -43 -102q-12 -61 -13 -131q0 -68 13 -129 q8 -29 18 -53.5t27 -47.5q29 -41 76 -63q49 -25 120 -25q68 0 115 25q6 4 10 6t8 6t7 4q4 2 12 2q10 0 14 -2q2 -2 4 -3t4 -3t3.5 -4t3.5 -4q2 -4 2 -15q0 -8 -2 -12q-2 -2 -2 -3t-3 -3l-425 -588q-11 -12 -27 -12h-123q-12 0 -21.5 9t-9.5 22z" />
<glyph unicode="&#x26;" horiz-adv-x="1325" d="M-31 31q0 12 9.5 21t21.5 9h233q-20 14 -35.5 31t-29.5 33q-45 57 -62 125q-6 31 -10 55.5t-4 46.5q0 41 7 77t20 67q25 59 69 108q20 25 45 46.5t54 39.5q20 14 41.5 27.5t44.5 25.5l-31 43q-12 16 -24.5 34t-22.5 36q-23 41 -35 80t-12 94q0 59 20 109q20 51 62 92 q43 43 100 65q57 23 131 23q61 0 123 -16q63 -18 109 -56q49 -35 75 -90q29 -57 29 -127q0 -66 -20 -115q-10 -27 -25.5 -51t-32.5 -47q-18 -23 -38.5 -42t-43.5 -36q-14 -10 -28.5 -21t-30.5 -22l168 -204q20 72 22 135q0 12 9.5 20t21.5 8h141q16 0 23 -10q10 -10 8 -24 q-2 -29 -4 -52.5t-6 -44.5q-4 -23 -8 -42t-11 -36q-10 -39 -24 -69q-4 -12 -11.5 -26.5t-13.5 -31.5l221 -258h111q12 0 21.5 -9t9.5 -21t-9.5 -21.5t-21.5 -9.5h-123q-14 0 -24 10l-244 285q-12 12 -6 33q10 20 18 38.5t17 34.5q6 16 12 30.5t10 31.5q4 16 7 33.5t7 35.5 q2 14 4.5 30t4.5 32h-80q-4 -45 -14.5 -88t-26.5 -88q-8 -18 -25 -19q-16 -4 -28 11l-228 276q-8 14 -6 25q4 12 14 20q23 14 44.5 27.5t41.5 29.5q37 29 70 68q29 35 49 82q16 45 17 92q0 59 -23 98q-18 39 -59 72q-37 27 -86 43q-49 14 -107 14q-63 0 -108 -18 q-25 -10 -44.5 -22.5t-35.5 -28.5q-33 -33 -47 -72q-16 -45 -17 -86q0 -41 10 -78q8 -33 29 -65q10 -16 20.5 -32.5t22.5 -33.5q12 -16 25.5 -34.5t25.5 -34.5q6 -8 7 -25q-2 -14 -17 -20q-29 -16 -56.5 -33t-53.5 -33q-27 -16 -48.5 -35.5t-40.5 -42.5q-35 -39 -57 -92 q-23 -51 -22 -119q0 -35 12 -90q14 -53 51 -100q37 -49 109 -84q10 -4 21 -9.5t24 -9.5q25 -6 20 -32q-4 -27 -29 -27h-362q-12 0 -21.5 9t-9.5 22z" />
<glyph unicode="'" horiz-adv-x="440" d="M-31 31q0 14 9.5 22t21.5 8h440q31 0 31 -30q0 -12 -8.5 -21.5t-22.5 -9.5h-440q-12 0 -21.5 9t-9.5 22zM92 872v197q0 57 12 107q6 27 16.5 49t22.5 43q29 41 72 65q43 25 102 25q12 0 21.5 -9.5t9.5 -21.5v-88q0 -12 -9 -21.5t-22 -9.5q-23 0 -30 -8q-16 -14 -25 -29 q-10 -23 -12 -47q-2 -6 -2 -12t-2 -12h71q14 0 22.5 -9.5t8.5 -21.5v-197q0 -12 -8.5 -21t-22.5 -9h-194q-12 0 -21.5 9t-9.5 21zM154 903h133v135h-72q-31 0 -31 31v31.5t4 32.5q6 41 21 65q14 31 39 51q20 14 39 17v28q-12 -2 -21.5 -6t-19.5 -8q-27 -16 -51 -47 q-20 -31 -31 -72q-10 -47 -10 -92v-166z" />
<glyph unicode="(" horiz-adv-x="765" d="M-31 31q0 12 9.5 21t21.5 9h170q-2 2 -2 3.5t-2 3.5q-37 100 -55 211q-10 53 -15.5 110t-5.5 117q0 211 72 430q35 109 88 209t123 194q12 12 24 13h115q20 0 27 -17q10 -16 0 -32q-123 -195 -177 -390q-51 -190 -51 -407q0 -109 12.5 -212.5t38.5 -201.5 q4 -10 7.5 -23.5t7.5 -25.5l2 -2q10 -35 21.5 -62.5t31.5 -70.5q23 -47 53.5 -97.5t61.5 -97.5h45q-92 158 -139 307q-2 14 4 29q12 12 26 12h283q12 0 21.5 -9t9.5 -21t-9.5 -21.5t-21.5 -9.5h-242q55 -152 148 -301q10 -16 0 -31q-7 -16 -27 -16h-115q-16 0 -26 14l-4 6 q-33 51 -66 105.5t-57 103.5q-23 45 -34 74t-21 63q0 2 -3 2q-4 14 -8 28.5t-8 29.5q-53 203 -53 428q0 111 12 216t41 208q23 90 61.5 179t92.5 181h-43q-66 -86 -113 -180t-82 -192q-68 -207 -67 -412q0 -115 18 -215q18 -104 55 -203q4 -10 8.5 -21.5t8.5 -25.5 q8 -16 -2 -29q-10 -12 -27 -12h-213q-12 0 -21.5 9t-9.5 22z" />
<glyph unicode=")" horiz-adv-x="770" d="M-31 31q0 12 8.5 21t22.5 9h285q12 0 24 -12q10 -14 4 -29q-47 -150 -139 -307h45q31 47 62.5 98.5t54.5 96.5q20 43 31.5 70.5t21.5 62.5l2 2q4 12 7 25.5t8 23.5q53 201 53 414q0 211 -53 407q-27 96 -71 193.5t-106 196.5q-10 18 -2 32q10 16 27 17h117q12 0 24 -13 q143 -188 213 -403q72 -219 72 -430q0 -59 -5 -116.5t-16 -110.5q-10 -53 -24 -106.5t-33 -104.5q0 -2 -1 -3.5t-1 -3.5h170q12 0 21.5 -9t9.5 -21t-9.5 -21.5t-21.5 -9.5h-215q-16 0 -25 12q-10 16 -4 29q10 25 19 47q37 98 55 203q18 100 18 215q0 102 -17 204.5 t-52 207.5q-66 201 -195 372h-45q53 -92 93 -181t63 -179q55 -203 55 -424q0 -229 -55 -428q-4 -14 -8 -28.5t-8 -29.5l-3 -2q-10 -35 -21 -63.5t-34 -73.5q-25 -49 -58.5 -103t-66.5 -106l-4 -6q-10 -14 -26 -14h-115q-20 0 -27 16q-10 14 0 31q47 76 84 150.5t64 150.5 h-242q-14 0 -22.5 9t-8.5 22z" />
<glyph unicode="*" horiz-adv-x="1212" d="M-31 31q0 12 8.5 21t22.5 9h291l-55 39q-10 6 -15 19q0 12 6 24l183 256l-297 107q-14 6 -19 16q-6 12 0 25l56 151q6 12 16 17q10 6 24 2l295 -113v316q0 12 9.5 21t21.5 9h168q14 0 22.5 -9t8.5 -21v-316l299 113q27 10 41 -17l63 -153q4 -14 -2 -25q-4 -12 -16 -16 l-309 -107l186 -256q18 -25 -6 -43l-51 -39h292q12 0 21.5 -9t9.5 -21t-9 -21.5t-22 -9.5h-385q-23 0 -28 20q-6 20 10 35l100 76l-192 264q-6 14 -4 29q8 16 20 18l316 111l-41 96l-312 -117q-14 -6 -28 3q-14 10 -15 26v328h-106v-328q0 -18 -12 -26q-16 -8 -29 -3 l-309 115l-35 -94l307 -111q12 -2 20 -18q4 -16 -6 -27l-188 -264l113 -78q16 -10 10 -35q-6 -20 -29 -20h-389q-14 0 -22.5 9t-8.5 22z" />
<glyph unicode="+" horiz-adv-x="1132" d="M-31 31q0 12 8.5 21t22.5 9h475v324h-352q-14 0 -22.5 9t-8.5 22v121q0 12 8.5 21t22.5 9h352v355q0 12 9.5 21t21.5 9h121q12 0 21 -9t9 -21v-355h353q12 0 21 -9t9 -21v-121q0 -12 -9 -21.5t-21 -9.5h-353v-324h476q12 0 21 -9t9 -21t-9 -21.5t-21 -9.5h-506 q-14 0 -22.5 9t-8.5 22v385q0 31 31 30h352v60h-352q-31 0 -31 31v354h-59v-354q0 -14 -9.5 -22.5t-21.5 -8.5h-352v-60h352q12 0 21.5 -8t9.5 -22v-385q0 -12 -9.5 -21.5t-21.5 -9.5h-506q-14 0 -22.5 9t-8.5 22z" />
<glyph unicode="," horiz-adv-x="540" d="M-31 31q0 12 9.5 21t21.5 9h102q-14 33 -14 60q0 57 40 96t97 39t94 -37q16 -18 27.5 -41.5t13.5 -52.5v-2v-2v-74v-16q0 -12 -1 -24.5t-3 -26.5q-6 -33 -20 -58q-8 -14 -17.5 -27.5t-21.5 -23.5q-14 -18 -41 -31v-24q61 29 92 75q39 59 41 142q0 12 9.5 20t21.5 8h121 q12 0 21 -9t9 -21t-9 -21.5t-21 -9.5h-92q-10 -84 -50 -141q-53 -84 -166 -115q-2 -2 -8 -2q-10 0 -18 6q-12 8 -12 25v88q0 23 20 28q23 8 39 25q16 14 27 37q10 16 14 39q2 10 3 20t1 19v2v16v72q-4 35 -23.5 55.5t-50.5 20.5t-53 -21.5t-22 -52.5q0 -18 11 -35.5 t27 -28.5q18 -14 13 -34q-6 -23 -29 -23h-172q-12 0 -21.5 9t-9.5 22z" />
<glyph unicode="-" horiz-adv-x="755" d="M-31 31q0 12 9.5 21t21.5 9h756q12 0 21 -9t9 -21t-9 -21.5t-21 -9.5h-756q-12 0 -21.5 9t-9.5 22zM92 406v141q0 12 9.5 21.5t21.5 9.5h510q12 0 21.5 -9.5t9.5 -21.5v-141q0 -12 -9.5 -21.5t-21.5 -9.5h-510q-12 0 -21.5 9t-9.5 22zM154 436h448v80h-448v-80z" />
<glyph unicode="." horiz-adv-x="446" d="M-33 31q0 12 10 22q8 8 21 8h96q-6 20 -6 45q0 55 40 95.5t95 40.5q57 0 96 -40t39 -96q0 -25 -6 -45h97q14 0 22 -8t8 -22q0 -10 -7 -20.5t-26 -10.5h-149q-18 0 -29 18q-8 23 8 35q20 20 21 53q0 31 -21.5 52.5t-52.5 21.5t-52 -21.5t-21 -52.5t22 -53q12 -14 6 -35 q-8 -18 -28 -18h-150q-16 0 -24.5 10t-8.5 21z" />
<glyph unicode="/" horiz-adv-x="888" d="M-31 31q0 12 9.5 21t21.5 9h98l514 1299q6 18 29 18h129q14 0 25 -12q10 -12 2 -29l-504 -1276h596q12 0 21.5 -9t9.5 -21t-9.5 -21.5t-21.5 -9.5h-641q-18 0 -27 12q-8 14 -2 29l504 1276h-61l-515 -1299q-8 -18 -26 -18h-121q-12 0 -21.5 9t-9.5 22z" />
<glyph unicode="0" horiz-adv-x="1071" d="M-31 31q0 31 31 30h266q-10 8 -18 15.5t-17 17.5q-49 49 -77 119q-27 63 -43 139q-14 70 -19 150q-2 37 -3 72.5t-1 70.5t1 72t3 74q2 76 19 149q16 74 43 139q27 68 77 121q47 49 127 82q74 31 179 31q100 0 178 -31q78 -33 125 -82q49 -51 80 -121q14 -33 23 -67.5 t18 -71.5q16 -74 18 -149q2 -39 3 -75t1 -71t-1 -70.5t-3 -72.5q-4 -80 -18 -150t-41 -139q-33 -72 -80 -119q-8 -10 -16.5 -17t-18.5 -16h266q31 0 31 -30q0 -12 -8.5 -21.5t-22.5 -9.5h-391q-25 0 -29 27q-6 27 21 34q4 2 10 3.5t10 3.5q61 25 105 67q20 23 36.5 48.5 t28.5 54.5t21.5 60.5t17.5 66.5q6 35 10 69.5t7 69.5q2 37 3 71.5t1 69.5t-1 70t-3 71q-2 37 -6.5 72t-10.5 70q-8 35 -17.5 66.5t-21.5 60.5q-25 57 -65 102q-43 41 -107 70q-61 25 -153 24q-92 0 -156 -24q-66 -29 -105 -70q-43 -43 -67 -102q-12 -29 -21.5 -60.5 t-17.5 -66.5q-6 -35 -10 -70t-6 -72q-2 -35 -3 -70.5t-1 -70.5t1 -69.5t3 -71.5q2 -35 6 -70t10 -69q8 -35 17.5 -67t21.5 -60q25 -59 67 -103q20 -20 46 -37.5t59 -29.5q12 -4 20 -7q25 -6 21 -34q-4 -27 -31 -27h-391q-14 0 -22.5 9t-8.5 22z" />
<glyph unicode="1" horiz-adv-x="714" d="M-31 31q0 14 9.5 22t21.5 8h414v836h-293q-14 0 -22.5 9t-8.5 22v121q0 12 8 21t23 9q29 0 59.5 2t59.5 6q27 4 51 13.5t47 19.5q43 27 72 64q29 41 41 104q4 25 28 25h115q31 0 31 -31v-1221h90q12 0 21 -8t9 -22q0 -12 -9 -21.5t-21 -9.5h-121q-12 0 -21.5 9t-9.5 22 v1220h-57q-14 -61 -47 -102q-35 -51 -92 -82q-27 -14 -56.5 -24.5t-62.5 -14.5q-23 -4 -47.5 -6t-48.5 -4v-60h292q12 0 21.5 -9t9.5 -21v-897q0 -12 -9 -21.5t-22 -9.5h-444q-12 0 -21.5 9t-9.5 22z" />
<glyph unicode="2" horiz-adv-x="1056" d="M-31 31q0 14 9.5 22t21.5 8h92q4 49 14.5 92.5t24.5 79.5q16 41 36.5 77t47.5 67q25 31 52.5 58.5t60.5 49.5q66 47 127 84q41 25 74.5 47.5t64.5 42.5q29 20 52.5 40t41.5 40q35 37 53 82q18 43 19 103q0 43 -17 80q-18 39 -45 61q-25 25 -67 41q-18 6 -39 10t-43 4 q-57 0 -96 -24q-20 -10 -37 -26.5t-31 -35.5q-27 -39 -39 -90q-14 -53 -10 -102q0 -14 -8 -23q-10 -10 -23 -10h-149q-12 0 -21.5 8t-9.5 21q-6 104 20 188q29 90 82 152q61 66 142 100q86 35 188 35q88 0 162 -25q78 -25 135 -76q57 -49 92 -120q33 -72 33 -168 q0 -92 -27 -160q-29 -70 -73 -121q-43 -53 -103 -96q-29 -20 -56.5 -40t-57.5 -38v-2q-29 -16 -59 -33.5t-58 -36.5q-29 -16 -54.5 -33.5t-48.5 -35.5q-49 -39 -77 -80q-20 -27 -31 -53h602q14 0 22.5 -9.5t8.5 -21.5v-103h90q12 0 21 -8t9 -22q0 -12 -9 -21.5t-21 -9.5 h-121q-12 0 -21.5 9t-9.5 22v102h-610q-14 0 -25 10q-8 12 -6 27q12 66 51 117q18 23 40 45t48 43q25 20 52.5 39.5t58.5 36.5q29 16 57.5 34.5t57.5 34.5q29 18 56.5 36.5t53.5 39.5q51 39 92 86q20 23 36 50.5t28 55.5q12 29 17.5 63t5.5 73q0 82 -27 141 q-14 31 -33.5 55.5t-42.5 46.5q-49 39 -115 62q-35 12 -69.5 17t-73.5 5q-94 0 -164 -30q-72 -31 -119 -84q-49 -59 -69 -129q-20 -61 -21 -138h90q2 45 13 88q14 59 47 111q33 47 88 80t127 33q55 0 104 -19q51 -18 86 -51q37 -35 60 -82q23 -49 22 -106q0 -68 -22 -125 q-20 -55 -66 -103q-23 -23 -48.5 -44t-55.5 -44q-31 -20 -66 -42.5t-76 -47.5v-2q-66 -37 -122 -80q-29 -23 -54.5 -46t-48.5 -52q-45 -51 -74 -127q-31 -74 -36 -182q-2 -10 -11.5 -19.5t-19.5 -9.5h-121q-12 0 -21.5 9t-9.5 22z" />
<glyph unicode="3" horiz-adv-x="1087" d="M-31 31q0 14 9.5 22t21.5 8h250q-10 8 -19.5 16.5t-19.5 16.5q-61 57 -92 139q-31 86 -29 185q0 14 9.5 22.5t21.5 8.5h149q12 0 21.5 -8.5t9.5 -20.5q2 -111 64 -180q57 -66 172 -66q53 0 94 14q47 16 76 43q31 23 51 66q20 35 20 88q0 49 -18 90q-18 39 -49 66 q-29 27 -74 39q-41 14 -94 14q-45 0 -88 -6q-14 0 -23 8q-10 8 -10 22v127q0 14 10 25q12 8 27 6h8h51q20 0 41 2t39 8q37 12 68 35q29 25 43 53q16 37 16 74q0 88 -53 127q-53 45 -140 45q-55 0 -90 -20q-39 -18 -63 -49q-27 -33 -39 -76q-12 -47 -12 -96q0 -12 -9.5 -21.5 t-21.5 -9.5h-150q-12 0 -22 10t-8 23q4 96 30 172q29 82 78 137q53 59 131 90q74 33 176 33q90 0 160 -21q76 -20 131 -67q55 -41 90 -115q31 -68 31 -162q0 -96 -55 -170q-29 -41 -76 -73q80 -33 125 -101q59 -90 59 -213q0 -102 -36 -178q-35 -74 -101 -129q-8 -6 -15 -11 t-14 -12h256q12 0 21.5 -8t9.5 -22q0 -12 -9.5 -21.5t-21.5 -9.5h-399q-27 0 -31 27t23 34q4 2 7 2t7 3q37 10 68 26.5t59 38.5q53 43 84 109q31 63 31 151q0 102 -49 180q-47 70 -152 95q-25 4 -24 28v4q0 18 18 29q70 33 111 88q43 57 43 133q0 82 -27 137q-23 53 -70 93 q-45 35 -110 55q-68 18 -144 18q-90 0 -151 -26q-66 -27 -109 -76t-67 -117q-18 -55 -25 -123h86q2 23 6 42.5t9 39.5q16 57 49 96q33 43 84 68q51 27 118 27q104 0 179 -58q76 -59 75 -176q0 -55 -22 -100q-25 -45 -62 -76q-18 -14 -39.5 -25.5t-46.5 -17.5q-23 -8 -48 -11 t-50 -3h-35v-62q14 2 28.5 2h31.5q57 0 112 -16q59 -20 97 -51q39 -35 63 -86q25 -53 25 -117q0 -68 -27 -115q-25 -51 -65 -86q-39 -33 -97 -53q-55 -18 -114 -18q-143 0 -220 86q-68 80 -75 188h-90q4 -74 24 -131q14 -35 32.5 -64.5t43.5 -52.5q51 -47 121 -71 q6 -2 11 -3.5t11 -3.5q27 -8 23 -34q-4 -27 -31 -27h-387q-12 0 -21.5 9t-9.5 22z" />
<glyph unicode="4" horiz-adv-x="1093" d="M-31 31q0 14 9.5 22t21.5 8h633v234h-518q-12 0 -21.5 8t-9.5 23v143q0 8 6 18l569 813q8 12 25 13h121q12 0 21.5 -8.5t9.5 -22.5v-795h139q12 0 21.5 -9t9.5 -21v-131q0 -14 -9.5 -22.5t-21.5 -8.5h-139v-234h258q31 0 30 -30q0 -12 -8 -21.5t-22 -9.5h-289 q-12 0 -21.5 9t-9.5 22v295q0 12 9.5 21t21.5 9h139v70h-139q-12 0 -21.5 9t-9.5 22v794h-74l-555 -792v-103h519q12 0 21 -9t9 -21v-295q0 -12 -9 -21.5t-21 -9.5h-664q-12 0 -21.5 9t-9.5 22z" />
<glyph unicode="5" horiz-adv-x="1077" d="M-31 31q0 14 9.5 22t21.5 8h246q-6 4 -12.5 9.5t-12.5 11.5q-61 51 -94 123q-33 70 -37 164q0 14 8 22q12 8 23 8h149q12 0 21.5 -8t9.5 -20q2 -20 7 -40t14 -38q18 -35 49 -64q29 -25 69 -41q41 -14 95 -14q51 0 90 16q43 16 73 48q33 35 50 84q20 47 20 116 q0 55 -18 105q-18 47 -52 80q-33 33 -77 51q-47 18 -105 18q-66 0 -117 -28q-51 -27 -92 -78q-10 -12 -26 -13l-127 9q-16 0 -23 12q-10 8 -6 24l115 650q6 25 30 24h619q12 0 21.5 -9t9.5 -21v-134q0 -12 -9.5 -21t-21.5 -9h-479l-50 -260q25 14 56 24q68 25 137 25 q86 0 168 -29q78 -27 139 -88t94 -143q33 -84 33 -201q0 -41 -6 -82t-23 -82q-16 -41 -37.5 -76.5t-50.5 -66.5q-33 -33 -65 -58h272q12 0 21.5 -8t9.5 -22q0 -12 -9 -21.5t-22 -9.5h-409q-27 0 -31 27t22 34q25 6 39 15q78 31 127 84q53 59 76 123q25 70 25 143 q0 98 -29 178q-31 74 -80 123t-117 74q-72 25 -147 24q-29 0 -58.5 -5t-60.5 -15q-55 -18 -90 -60q-10 -10 -22 -10q-14 0 -23 8l-4 5q-12 8 -8 26l67 361q4 25 29 24h475v72h-561l-107 -590l80 -4q43 49 99 80q63 37 147 37q66 0 127 -23q57 -25 100 -67q41 -41 64 -99 q23 -61 22 -127q0 -78 -24 -139q-20 -57 -64 -104q-39 -39 -96 -62q-49 -20 -110 -20q-63 0 -115 18q-49 18 -92 53q-35 33 -62 82q-16 37 -22 72h-90q4 -29 10 -56.5t18 -52.5q29 -59 78 -100q47 -41 117 -63q8 -4 12 -5q27 -8 23 -34q-4 -27 -31 -27h-381q-12 0 -21.5 9 t-9.5 22z" />
<glyph unicode="6" horiz-adv-x="1087" d="M-31 31q0 14 9.5 22t21.5 8h283q-74 61 -115 138q-49 96 -64 204q-8 53 -11 105.5t-3 103.5q0 66 5 130.5t18 125.5q23 123 77 224q57 102 152 159q94 61 238 62q170 0 268 -90q100 -88 117 -256q0 -16 -9 -25q-10 -10 -22 -10h-152q-10 0 -19 8t-9 18q-8 74 -58 119 q-47 43 -123 43q-84 0 -135 -41q-51 -43 -82 -106q-31 -68 -43 -146q-2 -16 -3 -31.5t-3 -31.5q35 35 84 61q88 41 195 41q100 0 174 -32q76 -33 131 -95q51 -57 80 -137q29 -82 28 -172q0 -37 -6 -74t-16 -77q-20 -78 -76 -146q-29 -37 -76 -72h262q31 0 31 -30 q0 -12 -8.5 -21.5t-22.5 -9.5h-391q-23 0 -30 27q-4 27 22 34q27 6 47 19q72 37 119 92q47 59 64 125q20 63 20 133q0 80 -25 152q-25 68 -69 118q-41 47 -109 76q-33 16 -70.5 22.5t-78.5 6.5q-92 0 -168 -35q-68 -33 -119 -115q-6 -10 -23 -14q-16 0 -24 10l-4 2 q-8 8 -8 23q0 37 4 77t10 83q12 86 47 161q33 76 100 131q66 53 172 54q100 0 166 -60q55 -55 70 -129h90q-18 119 -92 185q-84 74 -227 73q-127 0 -205 -51q-80 -51 -131 -139q-51 -92 -72 -205q-10 -59 -15 -119.5t-5 -124.5q0 -47 3 -97t11 -103q12 -96 57 -185 q45 -84 121 -133q27 -18 72 -33q25 -6 20 -34q-4 -27 -30 -27h-406q-12 0 -21.5 9t-9.5 22z" />
<glyph unicode="7" horiz-adv-x="1050" d="M-31 31q0 14 9.5 22t21.5 8h254q6 74 19.5 146t31.5 143q45 156 109 293q35 72 72.5 138.5t80.5 127.5q35 47 70 93.5t72 87.5h-588q-12 0 -21.5 9t-9.5 21v142q0 12 9.5 21t21.5 9h811q12 0 21.5 -9t9.5 -21v-129q0 -12 -11 -23q-94 -90 -174 -217q-41 -63 -76.5 -131 t-68.5 -139q-31 -72 -56.5 -146t-46.5 -151q-18 -68 -29.5 -133.5t-17.5 -131.5h568q12 0 21 -8t9 -22q0 -12 -9 -21.5t-21 -9.5h-600q-12 0 -23 10q-8 8 -8 23q10 154 51 309q20 78 47 154.5t60 150.5t70.5 144.5t78.5 136.5q41 61 84 115.5t90 101.5v86h-749v-80h626 q18 0 27 -18q10 -20 -6 -33q-47 -51 -93.5 -107.5t-87.5 -118.5q-41 -59 -78.5 -123.5t-70.5 -132.5q-31 -70 -57.5 -140t-46.5 -144t-33 -151t-19 -154q0 -10 -9 -19.5t-21 -9.5h-283q-12 0 -21.5 9t-9.5 22z" />
<glyph unicode="8" horiz-adv-x="1079" d="M-31 31q0 14 9.5 22t21.5 8h250q-8 6 -14.5 11.5t-12.5 9.5q-61 53 -98 131q-35 80 -35 178q0 121 62 211q23 33 52 58.5t64 46.5q-49 35 -82 84q-53 78 -53 172q0 86 35 151q29 61 88 111q57 45 127 65q66 23 147 23q106 0 187 -29q82 -33 129 -80q49 -49 72 -112 q25 -61 24 -129q0 -92 -53 -170q-16 -25 -37 -46.5t-43 -37.5q78 -37 121 -103q61 -90 61 -215q0 -98 -37 -174q-33 -74 -94 -129q-14 -14 -33 -27h252q31 0 31 -30q0 -12 -8.5 -21.5t-22.5 -9.5h-389q-27 0 -31 27t23 34q4 2 8 2t8 3q68 23 121 67q53 47 80 109 q31 63 31 149q0 106 -49 180q-49 72 -152 103q-18 6 -22 28q0 23 18 29q74 33 113 94q43 63 43 138q0 29 -5.5 55t-15.5 51q-18 51 -59 92q-43 43 -107 66q-66 25 -164 24q-68 0 -129 -18q-29 -10 -56.5 -24.5t-49.5 -32.5q-47 -39 -74 -91q-27 -57 -26 -122q0 -76 43 -140 q45 -63 112 -90q20 -10 21 -31q-4 -20 -23 -26q-96 -35 -145 -109q-51 -72 -51 -176q0 -86 28 -153q33 -68 82 -109q55 -45 125 -63q8 -4 12 -5q27 -8 23 -32q-4 -29 -31 -29h-391q-12 0 -21.5 9t-9.5 22z" />
<glyph unicode="9" horiz-adv-x="1081" d="M-31 31q0 14 9.5 22t21.5 8h254l-6 7q-115 86 -131 264q0 14 8 22q10 10 22 11h150q27 0 31 -29q10 -82 61 -119q57 -43 137 -43q121 0 181 102q27 45 42 109t23 150q-27 -31 -72 -58q-86 -51 -184 -51q-51 0 -96 8t-86 25q-82 35 -135 94q-55 61 -82 143q-27 80 -27 178 t33 177q31 84 90 139q61 57 141 92q82 31 178 31q47 0 91.5 -6.5t85.5 -22.5q86 -33 147 -102q61 -72 100 -195q35 -123 35 -303q0 -330 -106 -514q-43 -68 -94 -109h290q12 0 21.5 -8t9.5 -22q0 -12 -9.5 -21.5t-21.5 -9.5h-415q-27 0 -31 27q-4 29 20 34q111 33 176 142 q49 82 74 202.5t25 278.5q0 178 -33 285q-35 111 -86 172q-51 59 -123 86q-74 25 -156 24q-88 0 -155 -26q-70 -29 -119 -78q-49 -47 -78 -119q-29 -70 -28 -154q0 -86 24 -159q20 -70 70 -121q43 -49 112 -78q70 -29 158 -29q82 0 154 43q74 45 108 115q6 14 23 14 q14 2 26 -8l4 -4q8 -12 9 -22q-6 -250 -80 -379q-78 -133 -234 -133q-100 0 -174 55q-63 49 -82 135h-88q18 -125 103 -186q45 -37 108 -56q27 -8 23 -34q-8 -27 -31 -27h-385q-12 0 -21.5 9t-9.5 22z" />
<glyph unicode=":" horiz-adv-x="446" d="M-33 31q0 10 8 22q8 8 23 8h96q-6 20 -6 45q0 55 39 95.5t96 40.5t96 -40t39 -96q0 -25 -6 -45h97q14 0 20 -8q10 -10 10 -22q0 -10 -7 -20.5t-26 -10.5h-149q-20 0 -29 18q-8 20 6 35q23 23 23 53q0 31 -21.5 52.5t-52.5 21.5t-52 -21.5t-21 -52.5t22 -53q12 -14 6 -35 q-8 -18 -28 -18h-150q-18 0 -25.5 10t-7.5 21zM88 588q0 55 39 95t96 40t96 -40t39 -95q0 -57 -39 -97t-96 -40t-96 39.5t-39 97.5zM150 588q0 -31 21.5 -53.5t51.5 -22.5q31 0 52.5 22.5t21.5 53.5t-21.5 52.5t-52.5 21.5t-52 -22t-21 -52z" />
<glyph unicode=";" horiz-adv-x="538" d="M-31 31q0 -12 8.5 -21.5t22.5 -9.5h172q23 0 29 23q6 20 -15 34q-16 10 -26 27.5t-10 36.5q0 31 22.5 52.5t52.5 21.5q31 0 50.5 -20.5t23.5 -55.5v-72v-14v-2v-2q0 -8 -1 -18.5t-3 -20.5q-2 -16 -14 -39q-8 -18 -27 -37q-16 -16 -39 -25q-20 -6 -20 -28v-88 q0 -16 12 -25q8 -6 18 -6q6 0 8 2q113 31 166 115q37 57 50 141h90q14 0 22 9t8 22q0 12 -8 21t-22 9h-119q-12 0 -21.5 -8t-9.5 -20q-2 -82 -41 -142q-31 -47 -92 -75v24q20 10 41 31q12 10 21.5 23.5t17.5 27.5q6 14 11 27.5t7 30.5q6 27 6 51v16v74v2v2q-6 57 -41 94 q-37 37 -94 37t-97 -39t-40 -96q0 -27 14 -60h-102q-14 0 -22.5 -9t-8.5 -21zM90 588q0 55 39 95t96 40t96 -40t39 -95q0 -57 -39 -97t-96 -40t-96 39.5t-39 97.5zM152 588q0 -31 21.5 -53.5t51.5 -22.5q31 0 52.5 22.5t21.5 53.5t-21.5 52.5t-52.5 21.5t-52 -22t-21 -52z " />
<glyph unicode="&#x3c;" horiz-adv-x="1136" d="M-31 31q0 12 9.5 21t21.5 9h612l-506 228q-18 8 -18 26v111q0 18 18 29l898 405q14 6 28 -2q14 -10 15 -27v-120q0 -20 -19 -27l-688 -313l682 -310h115q12 0 21 -9t9 -21t-9 -21.5t-21 -9.5h-121q-8 0 -12 2l-750 342q-18 6 -18 27q0 18 18 28l731 332v53l-835 -378v-70 l616 -279q23 -6 18 -32q-5 -25 -30 -25h-754q-12 0 -21.5 9t-9.5 22z" />
<glyph unicode="=" horiz-adv-x="1132" d="M-31 31q0 12 8.5 21t22.5 9h92v107q0 12 8.5 21.5t22.5 9.5h887q12 0 21 -9.5t9 -21.5v-107h93q12 0 21 -9t9 -21t-9 -21.5t-21 -9.5h-123q-12 0 -21.5 9t-9.5 22v106h-825v-106q0 -12 -9.5 -21.5t-21.5 -9.5h-123q-14 0 -22.5 9t-8.5 22zM92 438v137q0 12 8.5 21.5 t22.5 9.5h887q12 0 21 -9t9 -22v-137q0 -12 -9 -21t-21 -9h-887q-14 0 -22.5 9t-8.5 21zM154 469h825v76h-825v-76z" />
<glyph unicode="&#x3e;" horiz-adv-x="1138" d="M-31 31q0 12 8.5 21t22.5 9h113l684 310l-691 313q-18 8 -18 27v120q0 16 14 27q18 6 31 2l899 -405q18 -10 19 -29v-111q0 -18 -19 -26l-506 -228h613q14 0 22 -9t8 -21t-8 -21.5t-22 -9.5h-756q-27 0 -31 25q-4 27 19 32l618 279v70l-839 378v-53l735 -332 q18 -10 18 -28t-18 -27l-752 -342q-4 -2 -14 -2h-119q-14 0 -22.5 9t-8.5 22z" />
<glyph unicode="?" horiz-adv-x="1005" d="M-33 31q0 14 10 20q6 10 21 10h379q-4 10 -6 21.5t-2 21.5q0 57 40 97.5t97 40.5q55 0 95 -40t40 -98q0 -25 -8 -43h373q12 0 22 -10q8 -6 8 -20q0 -10 -7 -20.5t-23 -10.5h-426q-23 0 -29 18q-8 18 6 33q23 23 23 53q0 31 -21.5 53.5t-52.5 22.5t-53.5 -22.5 t-22.5 -53.5t23 -53q14 -12 8 -33q-10 -18 -29 -18h-432q-16 0 -24.5 10t-8.5 21zM88 866q-2 90 27 178q31 84 86 146q57 63 135 96q82 35 178 35q90 0 162 -27q72 -25 127 -73q51 -45 84 -121q31 -72 31 -162q0 -31 -4.5 -57.5t-10.5 -51.5q-16 -51 -39 -84 q-10 -20 -23.5 -37.5t-27.5 -33.5q-14 -14 -27.5 -28.5t-29.5 -29.5v-2q-14 -12 -27.5 -25.5t-28.5 -27.5q-12 -12 -23 -25.5t-22 -27.5q-18 -25 -32 -59q-10 -37 -11 -72v-64q0 -12 -9 -21t-21 -9h-152q-12 0 -21.5 9t-9.5 21v78q6 82 31 137t64 101q16 23 35.5 42t37.5 36 q37 33 70 69q29 35 47 76q14 39 12 98q-6 86 -53 131q-45 45 -129 45q-57 0 -96 -18q-41 -23 -66 -53q-25 -31 -39 -82q-14 -45 -14 -107q0 -12 -9 -21t-22 -9h-149q-12 0 -21.5 9t-9.5 21zM150 897h90q0 25 4 47.5t10 44.5q16 59 49 103q37 45 88 69q51 27 123 27 q109 0 172 -64q66 -61 72 -170v-2q4 -72 -19 -125q-23 -51 -57 -92q-16 -18 -34.5 -37.5t-37.5 -35.5q-18 -16 -35.5 -35t-33.5 -37t-29.5 -41t-26.5 -45q-10 -23 -16 -51.5t-8 -63.5v-45h90v33q0 51 14 92q16 43 39 74q12 16 24.5 31.5t28.5 29.5l56 55l27.5 27.5 t27.5 30.5q12 14 23.5 28.5t21.5 30.5q20 37 31 72q12 39 12 90q0 82 -27 137q-25 57 -67 101q-47 41 -107 61q-68 23 -141 23q-84 0 -154 -29q-72 -33 -114 -82q-47 -53 -72 -125q-20 -57 -24 -127z" />
<glyph unicode="@" horiz-adv-x="1513" d="M-31 31q0 12 9.5 21t21.5 9h436q-84 45 -147 111q-94 92 -146 219q-29 63 -41 132t-12 143q0 141 53 266q53 123 148 219q47 47 101 83t118 62q123 55 264 56q127 0 242 -43q117 -45 201 -119q88 -76 137 -180q51 -102 51 -234q0 -121 -43 -221q-23 -49 -49.5 -92 t-61.5 -78q-66 -72 -141 -111q-12 -6 -24.5 -2t-16.5 17q-6 10 -2 22.5t14 18.5q70 35 125 96q57 63 99 154q39 86 38 196q0 117 -45 207q-43 94 -120 162q-80 68 -183 106q-53 18 -107 28.5t-114 10.5q-129 0 -242 -49q-55 -25 -105 -58.5t-91 -76.5q-84 -82 -135 -199 q-49 -111 -49 -241q0 -133 47 -250q47 -113 135 -201q84 -84 198 -133q16 -6 31 -12.5t31 -10.5q25 -6 20 -32q-3 -27 -30 -27h-584q-12 0 -21.5 8t-9.5 23zM209 657q0 121 43 230q23 53 52.5 101t68.5 89q78 80 180 129q106 47 223 47q100 0 191 -32q90 -35 161 -97 q74 -68 115 -155q43 -90 43 -201q0 -78 -24 -152q-27 -82 -62 -137q-20 -33 -40.5 -58.5t-45.5 -45.5q-20 -18 -43 4q-8 10 -7 22.5t11 20.5q20 16 37.5 38.5t34.5 49.5q35 55 55 125q23 72 23 133q0 47 -10.5 91t-26.5 85q-37 76 -101 133q-59 53 -143 86q-82 29 -168 29 q-104 0 -198 -41q-92 -43 -160 -117q-70 -76 -109 -170q-18 -49 -28.5 -101t-10.5 -106q0 -111 41 -208q20 -49 49 -91.5t64 -76.5q68 -68 164 -113q47 -20 111.5 -29.5t115.5 -9.5q55 0 129 12.5t131 40.5q113 55 182 148q8 12 25 12h113q16 0 26 -16q6 -14 0 -31 q-47 -80 -108 -137q-59 -57 -127 -97h327q12 0 21.5 -9t9.5 -21q0 -14 -9.5 -22.5t-21.5 -8.5h-477q-27 0 -30 27q-4 25 22 32q61 18 117 50q35 20 65.5 42.5t59.5 49.5q37 37 67 80h-41q-76 -94 -192 -154q-70 -35 -151 -47t-138 -12q-55 0 -127 10t-125 35 q-106 47 -184 125q-80 78 -125 186q-45 113 -45 233zM385 492q0 117 74 178q66 59 180 75l192 25q18 2 23.5 7t7.5 9v2q6 6 6 33q0 29 -10 43.5t-20 20.5q-39 23 -109 22q-80 0 -111 -39q-16 -23 -22 -69q-4 -27 -31 -27h-112q-12 0 -21 8q-10 10 -10 23q6 150 100 211 q90 57 209 57q133 0 221 -53q94 -55 95 -176v-414v-10q0 -2 2 -2q0 -2 6 -2q4 0 9 2t9 6q10 10 22.5 9t22.5 -11q8 -10 8 -22.5t-10 -20.5q-16 -14 -32.5 -19.5t-26.5 -5.5q-41 0 -60 29q-12 18 -12 47v414q0 86 -63 125q-72 43 -191 43q-98 0 -176 -47q-57 -37 -70 -129h56 q8 43 30 71q45 63 158 64q90 0 141 -33q20 -12 40 -40t20 -75q0 -37 -12 -61q-8 -16 -26 -31.5t-54 -19.5l-193 -25q-94 -12 -147 -59q-51 -45 -52 -133q0 -76 54 -130q53 -51 143 -51q76 0 137 31q61 33 97 76q12 16 32 12q18 -6 23 -27q4 -23 8 -35t8 -18 q10 -16 21.5 -24.5t38.5 -12.5h19t20 2q8 2 13 4.5t23 10.5q10 6 22.5 1t18.5 -16q4 -12 0 -24t-16 -17q-18 -10 -26.5 -12t-20.5 -6q-16 -4 -30.5 -5t-31.5 3q-70 8 -104 61q-4 6 -5 11.5t-5 11.5q-29 -25 -76 -49q-76 -39 -166 -39q-115 0 -184 67q-74 70 -74 175z" />
<glyph unicode="A" horiz-adv-x="1363" d="M-31 31q0 14 9.5 22t21.5 8h100l465 1239q10 20 31 21h192q18 0 29 -21l449 -1239h98q12 0 21.5 -8t9.5 -22q0 -12 -9.5 -21.5t-21.5 -9.5h-119q-20 0 -31 20l-448 1240h-150l-466 -1240q-6 -20 -29 -20h-121q-12 0 -21.5 9t-9.5 22z" />
<glyph unicode="B" horiz-adv-x="1230" d="M-31 31q0 14 9.5 22t21.5 8h90v1229q0 31 31 31h457h88q47 0 94 -6q47 -2 90 -12q47 -14 76 -31q68 -39 114 -113q49 -72 50 -176q0 -109 -54 -190q-16 -27 -38.5 -48.5t-49.5 -39.5q78 -31 127 -97q68 -86 68 -215q0 -70 -27 -145q-29 -74 -80 -125q-35 -35 -75 -62h270 q31 0 31 -30q0 -12 -8.5 -21.5t-22.5 -9.5h-502q-12 0 -21.5 9t-9.5 22q0 14 9.5 22t21.5 8q84 0 152 29q35 14 61.5 32.5t48.5 41.5q23 23 39.5 50.5t28.5 55.5q22 58 22 118v5q0 106 -55 178t-160 95q-25 6 -24 30v4q0 23 18 29q80 31 125 96q43 63 43 158q0 86 -39 143 q-35 57 -94 93q-27 16 -59 22q-37 8 -82 12q-43 6 -90 7h-86h-426v-1229q0 -12 -9.5 -21.5t-21.5 -9.5h-121q-12 0 -21.5 9t-9.5 22z" />
<glyph unicode="C" horiz-adv-x="1366" d="M-31 31q0 31 31 30h367q-70 43 -127 111q-76 96 -113 219q-18 61 -28.5 128t-10.5 138q0 139 41 269q20 63 50 118.5t69 102.5q78 92 198 149q117 55 271 56q106 0 194 -27q47 -16 89 -35.5t77 -48.5q78 -55 123 -137q51 -82 66 -189q0 -14 -9 -24q-10 -10 -22 -10h-168 q-25 0 -31 24q-25 121 -110 182q-90 61 -211 62q-109 0 -180 -39q-72 -37 -121 -104q-51 -70 -72 -154q-25 -86 -25 -182q0 -104 25 -197q23 -90 72 -156q45 -68 123 -104q72 -39 180 -39q76 0 135 25q57 25 100 67q43 47 68 107q12 31 18 64.5t11 70.5q4 29 30 29h168 q12 0 23 -11q8 -8 8 -22q-29 -252 -174 -391q-29 -27 -64 -52h326q31 0 31 -30q0 -12 -8.5 -21.5t-22.5 -9.5h-463q-27 0 -31 27q-4 25 21 34q100 31 168 97q121 111 151 317h-104q-10 -70 -33 -125q-27 -70 -78 -125q-49 -51 -123 -84q-35 -16 -74.5 -22t-82.5 -6 q-125 0 -209 45q-88 45 -143 123q-29 39 -49.5 83t-32.5 95q-14 49 -20.5 102t-6.5 109q0 106 27 198q12 49 32.5 92.5t49.5 81.5q55 76 141 123q88 45 209 45q139 0 246 -71q98 -70 131 -197h106q-14 72 -49 131q-43 72 -107 119q-33 25 -69.5 43t-77.5 31q-83 24 -171 24 h-7q-139 0 -244 -49q-106 -49 -178 -133q-68 -84 -107 -201q-18 -59 -28 -121.5t-10 -128.5q0 -131 34 -247q18 -57 44 -107.5t61 -91.5q68 -82 170 -129q12 -6 25.5 -11t27.5 -10q10 -4 17.5 -14t2.5 -20q-4 -27 -28 -27h-504q-14 0 -22.5 9t-8.5 22z" />
<glyph unicode="D" horiz-adv-x="1275" d="M-31 31q0 31 31 30h88v1229q0 14 9 22.5t22 8.5h432q307 0 469 -156q84 -78 127 -198q41 -123 41 -275q0 -166 -37 -291q-37 -131 -117 -219q-66 -74 -164 -121h406q31 0 31 -30q0 -12 -8.5 -21.5t-22.5 -9.5h-725q-12 0 -21.5 9t-9.5 22q0 14 9.5 22t21.5 8 q152 0 262 43q102 39 176 119q70 82 103 195q34 120 34 266v8q0 289 -147 428q-150 139 -428 140h-401v-1229q0 -12 -9.5 -21.5t-21.5 -9.5h-119q-14 0 -22.5 9t-8.5 22z" />
<glyph unicode="E" horiz-adv-x="1114" d="M-31 31q0 31 31 30h88v1229q0 14 9 22.5t22 8.5h870q12 0 21.5 -8t9.5 -23v-141q0 -12 -9.5 -21.5t-21.5 -9.5h-672v-338h625q12 0 21.5 -9t9.5 -21v-142q0 -12 -9.5 -21t-21.5 -9h-625v-375h678q12 0 21.5 -8.5t9.5 -22.5v-111h88q12 0 21.5 -8t9.5 -22 q0 -12 -9.5 -21.5t-21.5 -9.5h-119q-14 0 -22 9t-8 22v110h-678q-12 0 -21.5 9.5t-9.5 21.5v436q0 12 9 21.5t22 9.5h624v80h-624q-12 0 -21.5 9t-9.5 22v399q0 14 9 22.5t22 8.5h671v80h-808v-1229q0 -12 -8.5 -21.5t-22.5 -9.5h-119q-14 0 -22.5 9t-8.5 22z" />
<glyph unicode="F" horiz-adv-x="1067" d="M-31 31q0 31 31 30h88v1229q0 14 9 22.5t22 8.5h827q12 0 21.5 -8t9.5 -23v-141q0 -12 -9.5 -21.5t-21.5 -9.5h-629v-338h549q12 0 21.5 -9t9.5 -21v-142q0 -12 -9 -21t-22 -9h-549v-517h750q12 0 21.5 -8t9.5 -22q0 -12 -9.5 -21.5t-21.5 -9.5h-780q-12 0 -21.5 9 t-9.5 22v577q0 12 9 21.5t22 9.5h549v80h-549q-12 0 -21.5 9t-9.5 22v399q0 14 9 22.5t22 8.5h628v80h-765v-1229q0 -12 -9.5 -21.5t-21.5 -9.5h-119q-14 0 -22.5 9t-8.5 22z" />
<glyph unicode="G" horiz-adv-x="1392" d="M-31 31q0 31 31 30h389q-80 51 -135 115q-80 92 -123 213q-43 117 -43 248q0 72 10.5 138.5t28.5 131.5q39 129 119 230q78 96 196 155q123 59 277 60q104 0 201 -25q100 -27 172 -80q80 -57 129 -139q51 -80 69 -201q4 -14 -6 -24t-22 -11h-168q-27 0 -31 25 q-6 35 -16.5 62.5t-24.5 52.5q-31 45 -76 75q-41 29 -102 46q-29 10 -59.5 13t-65.5 3q-104 0 -182 -41q-37 -23 -69 -50.5t-54 -62.5q-51 -74 -72 -161q-25 -90 -25 -189q0 -47 6.5 -92t20.5 -88q29 -88 78 -152q25 -33 56.5 -57.5t68.5 -44.5q74 -37 172 -37q47 0 88 6 t76 23q35 14 63.5 34.5t52.5 45.5q47 49 72 118q10 29 15.5 60t5.5 61h-371q-12 0 -21.5 9.5t-9.5 21.5v141q0 14 9.5 22.5t21.5 8.5h553q12 0 21.5 -8t9.5 -23v-633h88q12 0 21 -8t9 -22q0 -12 -9 -21.5t-21 -9.5h-119q-14 0 -22.5 9t-8.5 22v633h-491v-80h370 q12 0 21.5 -8.5t9.5 -20.5q1 -17 1 -34q0 -29 -4 -56q-7 -43 -22 -84q-27 -78 -84 -141q-29 -29 -63.5 -53.5t-75.5 -41.5q-76 -32 -180 -32h-6q-117 0 -201 45q-43 23 -79 52.5t-66 65.5q-57 78 -88 170q-29 98 -29 199q0 53 6 104.5t21 100.5q25 104 79 180q57 82 146 131 q88 49 211 49q74 0 141 -18q68 -14 121 -53q53 -35 92 -95q29 -47 45 -110h105q-14 82 -56 143q-23 35 -50 66t-60 55q-72 49 -152 70q-45 10 -91 16t-95 6q-141 0 -248 -53q-109 -53 -176 -139q-70 -86 -109 -209q-36 -114 -36 -245v-7q0 -115 38 -227q41 -115 113 -195 q72 -82 178 -131q14 -8 28.5 -13t29.5 -10q25 -10 20 -34q-4 -27 -29 -27h-528q-14 0 -22.5 9t-8.5 22z" />
<glyph unicode="H" horiz-adv-x="1236" d="M-31 31q0 31 31 30h88v1229q0 14 9 22.5t22 8.5h168q12 0 21 -8t9 -23v-510h603v510q0 14 9 22.5t21 8.5h168q12 0 21.5 -8t9.5 -23v-1229h88q31 0 31 -30q0 -12 -8.5 -21.5t-22.5 -9.5h-119q-12 0 -21.5 9t-9.5 22v1229h-106v-510q0 -12 -9 -21.5t-22 -9.5h-663 q-12 0 -21.5 9t-9.5 22v510h-106v-1229q0 -12 -8.5 -21.5t-22.5 -9.5h-119q-14 0 -22.5 9t-8.5 22z" />
<glyph unicode="I" horiz-adv-x="407" d="M-31 31q0 14 9.5 22t21.5 8h90v1229q0 14 9.5 22.5t21.5 8.5h168q12 0 21 -8t9 -23v-1229h89q31 0 30 -30q0 -12 -8 -21.5t-22 -9.5h-119q-12 0 -21.5 9t-9.5 22v1229h-106v-1229q0 -12 -9.5 -21.5t-21.5 -9.5h-121q-12 0 -21.5 9t-9.5 22z" />
<glyph unicode="J" horiz-adv-x="978" d="M-31 31q0 14 9.5 22t21.5 8h207l-12 13q-106 102 -107 295v77q0 12 9 21.5t22 9.5h168q14 0 22 -9t8 -22v-53q0 -27 2.5 -49t6.5 -45q10 -45 26 -70q20 -27 49 -41q31 -14 88 -14q98 0 134 47q39 57 39 150v919q0 31 30 31h166q31 0 31 -31v-944q0 -68 -19 -135 q-23 -72 -69 -121q-6 -8 -12.5 -14t-14.5 -15h205q12 0 21.5 -8t9.5 -22q0 -12 -9.5 -21.5t-21.5 -9.5h-317q-25 0 -31 25q-2 10 4 20t16 14q68 29 105 72q39 43 55 98q10 29 13 58.5t3 58.5v914h-104v-889q0 -115 -49 -185q-52 -73 -181 -73h-4q-72 0 -112 20 q-45 20 -76 64q-27 39 -35 90q-4 25 -7 51.5t-3 54.5v23h-106v-47q0 -164 86 -250q37 -37 92 -60q27 -8 18 -32q-4 -27 -29 -27h-317q-12 0 -21.5 9t-9.5 22z" />
<glyph unicode="K" horiz-adv-x="1284" d="M-31 31q0 12 8.5 21t22.5 9h88v1229q0 14 9 22.5t22 8.5h168q12 0 21 -8t9 -23v-555l586 578q8 8 23 8h217q23 0 28 -18q6 -20 -8 -35l-510 -490l527 -717h104q12 0 21.5 -9t9.5 -21t-9.5 -21.5t-21.5 -9.5h-121q-16 0 -24 12l-551 752q-8 10 -7 21.5t9 19.5l477 455 h-129l-629 -619q-18 -14 -35 -6q-18 8 -18 29v596h-106v-1229q0 -12 -8.5 -21.5t-22.5 -9.5h-119q-14 0 -22.5 9t-8.5 22z" />
<glyph unicode="L" horiz-adv-x="1075" d="M-31 31q0 12 9.5 21t21.5 9h90v1229q0 14 9.5 22.5t21.5 8.5h168q12 0 21 -8t9 -23v-1087h637q12 0 21.5 -9.5t9.5 -21.5v-111h88q12 0 21.5 -9t9.5 -21t-9.5 -21.5t-21.5 -9.5h-119q-14 0 -22 9t-8 22v110h-637q-12 0 -21.5 9.5t-9.5 21.5v1088h-106v-1229 q0 -12 -9.5 -21.5t-21.5 -9.5h-121q-12 0 -21.5 9t-9.5 22z" />
<glyph unicode="M" horiz-adv-x="1492" d="M-31 31q0 12 8.5 21t22.5 9h88v1229q0 14 9 22.5t22 8.5h229q20 0 29 -18l368 -984l371 984q8 18 29 18h229q12 0 21.5 -8t9.5 -23v-1229h88q14 0 22.5 -9t8.5 -21t-8.5 -21.5t-22.5 -9.5h-119q-14 0 -22.5 9t-8.5 22v1229h-178l-391 -1039q-6 -20 -29 -20t-28 20 l-389 1039h-178v-1229q0 -12 -9.5 -21.5t-21.5 -9.5h-119q-14 0 -22.5 9t-8.5 22z" />
<glyph unicode="N" horiz-adv-x="1243" d="M-31 31q0 12 9.5 21t21.5 9h90v1229q0 31 31 31h178q16 0 25 -14l610 -940v923q0 14 9 22.5t22 8.5h159q12 0 21.5 -8t9.5 -23v-1229h88q14 0 22.5 -9t8.5 -21t-8.5 -21.5t-22.5 -9.5h-119q-12 0 -21 9t-9 22v1229h-99v-992q0 -12 -8 -21t-22 -9h-2q-16 0 -27 14 l-653 1008h-131v-1229q0 -12 -9.5 -21.5t-21.5 -9.5h-121q-12 0 -21.5 9t-9.5 22z" />
<glyph unicode="O" horiz-adv-x="1447" d="M-31 31q0 12 9.5 21t21.5 9h387q-76 47 -137 121q-80 96 -121 221q-39 119 -39 259q0 137 39 256q39 125 121 221q39 49 89 88t110 67q121 57 276 58q152 0 276 -58q121 -61 199 -155t119 -221q39 -119 39 -256q0 -139 -39 -259q-20 -61 -49 -117.5t-70 -103.5 q-59 -72 -139 -121h387q12 0 21.5 -9t9.5 -21t-9.5 -21.5t-21.5 -9.5h-526q-27 0 -31 27q-4 25 22 32l62 25q106 53 178 137q74 90 107 201q36 110 36 233v7q0 123 -36 237q-33 111 -107 201q-76 88 -180 139q-109 51 -248 51q-141 0 -250 -51q-106 -51 -178 -139 q-70 -82 -109 -201q-36 -112 -36 -231v-6q0 -127 36 -240q18 -57 45 -107.5t64 -93.5q70 -84 178 -137q27 -12 62 -25q25 -6 20 -32q-4 -27 -31 -27h-526q-12 0 -21.5 9t-9.5 22z" />
<glyph unicode="P" horiz-adv-x="1179" d="M-31 31q0 12 9.5 21t21.5 9h90v1229q0 12 9.5 21.5t21.5 9.5h553q205 0 309 -109q106 -104 107 -294q0 -190 -107 -297q-106 -106 -303 -107h-6h-355v-453h861q12 0 21 -9t9 -21q0 -14 -9 -22.5t-21 -8.5h-891q-12 0 -21.5 8t-9.5 23v514q0 12 9 21t22 9h385 q178 0 266 89q88 88 88 254q0 164 -88 251q-90 90 -266 91h-522v-1229q0 -14 -9.5 -22.5t-21.5 -8.5h-121q-12 0 -21.5 8t-9.5 23z" />
<glyph unicode="Q" horiz-adv-x="1445" d="M-31 31q0 12 8.5 21t22.5 9h387q-41 25 -76 54.5t-63 66.5q-82 96 -121 221q-18 61 -28.5 126t-10.5 130q0 66 10.5 131.5t28.5 127.5q39 121 121 221q80 96 198 153q117 57 277 58q160 0 276 -58q121 -59 199 -153q78 -96 119 -221q20 -61 29.5 -127t9.5 -132 q0 -150 -49 -284q-43 -117 -125 -213l127 -101h137q12 0 21.5 -9t9.5 -21q0 -14 -9.5 -22.5t-21.5 -8.5h-148q-10 0 -18 6l-164 129q-8 6 -12 23q0 12 10 22q88 88 135 215q45 121 45 264q0 119 -34 240q-37 111 -109 201q-35 43 -80 76.5t-98 60.5q-104 51 -250 51 q-145 0 -250 -51q-109 -53 -178 -137q-37 -45 -63.5 -95.5t-45.5 -105.5q-36 -114 -36 -234v-6q0 -125 36 -237q18 -57 45 -107.5t64 -93.5q74 -90 178 -137q27 -16 62 -25q25 -6 20 -34q-4 -25 -31 -25h-524q-31 0 -31 31z" />
<glyph unicode="R" horiz-adv-x="1259" d="M-31 31q0 12 9.5 21t21.5 9h90v1229q0 12 9.5 21.5t21.5 9.5h592q190 0 303 -96q110 -97 110 -261q0 -128 -55 -221q-41 -66 -110 -102q6 -4 12 -7t12 -7q37 -25 64 -70q18 -33 32 -84q4 -23 8.5 -46.5t8.5 -45.5v-2q2 -23 3 -46.5t1 -47.5q2 -23 3 -45.5t5 -44.5 q4 -23 9 -42.5t11 -39.5q10 -31 25 -52h105q14 0 22 -9t8 -21q1 -31 -30 -31h-119q-14 0 -25 10q-31 37 -45 84q-6 23 -11 45.5t-9 46.5q-4 23 -6.5 47.5t-4.5 49.5q0 23 -1 46t-3 46q-4 23 -7 43t-7 41q-4 18 -11 34.5t-16 32.5q-20 33 -47 49q-27 20 -76 31q-27 8 -26 31 v4q0 20 22 29q102 27 150 104q47 82 47 187q0 139 -90 217q-94 82 -262 82h-561v-1229q0 -14 -9.5 -22.5t-21.5 -8.5h-121q-12 0 -21.5 8t-9.5 23z" />
<glyph unicode="S" horiz-adv-x="1253" d="M-31 31q0 12 9.5 21t21.5 9h289q-18 10 -33 23q-78 57 -123 147q-43 92 -43 213q0 12 8 21.5t23 9.5h158q12 0 21 -9t9 -22q0 -66 27 -122q29 -51 74 -84q43 -33 106 -50q66 -16 129 -16q29 0 54.5 2t54.5 8q53 10 94 33t63 59q23 39 23 97q0 53 -27 86q-35 37 -82 57 q-27 12 -57.5 21.5t-65.5 17.5q-41 10 -76.5 17.5t-70.5 15.5q-39 10 -76 19t-73 22q-76 20 -138 61q-33 20 -57.5 46t-44.5 57q-39 68 -39 159q0 102 43 180q43 76 113 125q35 25 73.5 42.5t81.5 29.5q90 23 178 23q96 0 187 -23q88 -25 158 -78q72 -57 106 -135 q41 -84 43 -192q0 -14 -8 -23q-8 -8 -23 -8h-157q-27 0 -31 27q-12 121 -86 176q-78 53 -197 53q-25 0 -49 -2t-49 -6q-23 -6 -43.5 -14.5t-36.5 -18.5q-33 -20 -53 -55q-20 -37 -21 -88q0 -47 27 -72q27 -31 80 -53q53 -20 125 -37q37 -6 73.5 -14.5t75.5 -18.5 q72 -14 150 -41q39 -12 72.5 -29.5t64.5 -40.5q33 -23 57.5 -50t42.5 -60q39 -70 39 -172q0 -109 -49 -189q-47 -72 -125 -125h-2h266q12 0 21.5 -9t9.5 -21q0 -14 -9.5 -22.5t-21.5 -8.5h-409q-27 0 -31 25q-4 27 23 34q63 18 120 54q66 43 105 106q41 66 41 156 q0 86 -31 141q-29 53 -82 92q-57 39 -123 60q-35 12 -70.5 22t-72.5 19q-39 10 -76 17t-72 15q-37 8 -70.5 18.5t-64.5 20.5q-63 29 -102 68q-43 43 -43 115q0 68 29 118q27 45 73 78q23 14 47.5 23.5t53.5 15.5t55.5 8t54.5 2q139 0 234 -65q84 -63 106 -191h99 q-6 74 -35 135q-29 66 -90 113q-53 45 -136 68q-74 20 -170 20q-86 0 -161 -20q-78 -23 -138 -64q-59 -41 -92 -104q-37 -61 -37 -150q0 -78 31 -127q31 -51 82 -84q55 -35 123 -55t145 -37q35 -8 71 -16t75 -17q74 -18 137 -43q66 -33 102 -75q41 -51 41 -125 q0 -82 -32 -129q-31 -51 -84 -80q-47 -29 -113 -41q-31 -4 -61.5 -7t-59.5 -3q-76 0 -145 18q-70 18 -127 59q-53 39 -90 105q-14 27 -22.5 56.5t-10.5 64.5h-98q2 -45 11 -83t25 -71q41 -78 105 -127q63 -49 149 -74q27 -8 23 -34q-4 -25 -31 -25h-434q-12 0 -21.5 8 t-9.5 23z" />
<glyph unicode="T" horiz-adv-x="1247" d="M-31 31q0 12 9.5 21t21.5 9h510v1057h-389q-31 0 -31 31v141q0 12 8 21.5t23 9.5h1007q12 0 21.5 -9t9.5 -22v-141q0 -14 -9 -22.5t-22 -8.5h-391v-1057h510q12 0 21.5 -9t9.5 -21q0 -14 -9.5 -22.5t-21.5 -8.5h-540q-12 0 -21.5 8t-9.5 23v1118q0 12 9 21.5t22 9.5h391 v80h-946v-80h389q12 0 21 -9.5t9 -21.5v-1118q0 -14 -9 -22.5t-21 -8.5h-541q-12 0 -21.5 8t-9.5 23z" />
<glyph unicode="U" horiz-adv-x="1253" d="M-31 31q0 12 9.5 21t21.5 9h283q-25 16 -45 33q-147 123 -148 391v805q0 12 8 21.5t23 9.5h168q12 0 21 -9t9 -22v-805q0 -156 80 -235q82 -78 238 -78q145 0 223 78q74 76 74 235v805q0 12 9 21.5t22 9.5h168q12 0 21 -9t9 -22v-805q0 -254 -137 -385q-12 -10 -24.5 -20 t-24.5 -19h276q12 0 21.5 -9t9.5 -21q0 -14 -9.5 -22.5t-21.5 -8.5h-411q-27 0 -31 25q-4 29 20 34q90 29 152 86q119 111 119 340v775h-107v-775q0 -184 -92 -278q-92 -96 -266 -96q-180 0 -281 96q-98 94 -98 278v775h-106v-775q0 -240 124 -344q63 -53 156 -82 q25 -6 21 -34q-4 -25 -31 -25h-422q-12 0 -21.5 8t-9.5 23z" />
<glyph unicode="V" horiz-adv-x="1320" d="M-31 31q0 12 8.5 21t22.5 9h518l-428 1219q-4 16 4 27q10 14 25 14h180q20 0 29 -23l334 -1009l335 1009q6 23 29 23h174q16 0 27 -14q6 -14 4 -27l-434 -1219h524q12 0 21.5 -9t9.5 -21q0 -14 -9.5 -22.5t-21.5 -8.5h-567q-18 0 -27 12q-6 14 -4 29l434 1219h-108 l-357 -1072q-8 -23 -28 -22h-5q-20 0 -28 22l-355 1072h-112l428 -1219q4 -18 -4 -29q-10 -12 -25 -12h-563q-31 0 -31 31z" />
<glyph unicode="W" horiz-adv-x="1830" d="M-31 31q0 12 9.5 21t21.5 9h403l-313 1221q-4 14 6 27q8 12 23 12h172q25 0 31 -25l219 -936l254 938q4 23 28 23h183q25 0 28 -25l250 -938l229 938q6 25 31 25h168q14 0 23 -12q10 -12 6 -27l-326 -1221h416q12 0 21.5 -9t9.5 -21q0 -14 -9.5 -22.5t-21.5 -8.5h-457 q-14 0 -24 10q-10 12 -7 27l328 1223h-104l-250 -1027q-4 -23 -29 -22h-4q-25 0 -29 22l-274 1027h-133l-277 -1027q-6 -23 -30 -22h-2q-23 0 -31 22l-242 1027h-106l313 -1223q4 -14 -6 -27q-10 -10 -25 -10h-442q-12 0 -21.5 8t-9.5 23z" />
<glyph unicode="X" horiz-adv-x="1318" d="M-31 31q0 12 9.5 21t21.5 9h104l416 617l-403 594q-10 16 0 33q6 16 26 16h201q16 0 27 -14l288 -453l302 453q10 14 26 14h187q20 0 26 -16q8 -14 -2 -33l-403 -594l422 -617h102q14 0 22.5 -9t8.5 -21q0 -31 -31 -31h-119q-18 0 -26 12l-443 647q-10 16 0 35l385 566 h-112l-320 -480q-10 -14 -27 -14q-18 0 -24 14l-305 480h-127l383 -566q10 -18 0 -35l-439 -647q-10 -12 -24 -12h-121q-12 0 -21.5 8t-9.5 23z" />
<glyph unicode="Y" horiz-adv-x="1376" d="M-31 31q0 14 9.5 22t21.5 8h578v476l-484 737q-10 16 0 33q6 14 27 14h198q18 0 27 -14l352 -557l342 557q8 14 27 14h190q16 0 27 -14q8 -14 -2 -33l-475 -737v-476h569q31 0 31 -30q0 -12 -8.5 -21.5t-22.5 -9.5h-600q-14 0 -22.5 9t-8.5 22v516q0 12 5 16l450 697 h-117l-360 -584q-6 -14 -25 -14q-18 0 -26 14l-369 584h-125l455 -697q6 -6 6 -16v-516q0 -12 -9 -21.5t-22 -9.5h-608q-12 0 -21.5 9t-9.5 22z" />
<glyph unicode="Z" horiz-adv-x="1241" d="M-31 31q0 31 31 30h88v111q0 10 6 21l744 927h-660q-12 0 -21.5 8.5t-9.5 22.5v139q0 14 9.5 22.5t21.5 8.5h922q12 0 21 -8t9 -23v-139q0 -12 -6 -21l-741 -927h737q31 0 31 -31v-111h90q12 0 21.5 -8t9.5 -22q0 -12 -9.5 -21.5t-21.5 -9.5h-121q-12 0 -21 9t-9 22v110 h-773q-18 0 -26 19q-10 16 4 33l774 968v99h-860v-78h694q18 0 27 -19q10 -16 -4 -33l-776 -968v-131q0 -12 -9.5 -21.5t-21.5 -9.5h-119q-14 0 -22.5 9t-8.5 22z" />
<glyph unicode="[" horiz-adv-x="710" d="M-31 31q0 12 9.5 21t21.5 9h90v1260q0 12 8 21.5t23 9.5h330q12 0 21 -9.5t9 -21.5v-121q0 -12 -9 -21.5t-21 -9.5h-158v-1456h268v60h-158q-31 0 -30 30v228q0 12 8 21t22 9h308q14 0 22 -9t8 -21t-8 -21.5t-22 -9.5h-277v-166h158q12 0 21.5 -9t9.5 -22v-120 q0 -12 -9.5 -21.5t-21.5 -9.5h-330q-14 0 -22.5 9t-8.5 22v1517q0 14 9 23q12 8 22 8h158v59h-268v-1259q0 -12 -9.5 -21.5t-21.5 -9.5h-121q-12 0 -21.5 9t-9.5 22z" />
<glyph unicode="\" horiz-adv-x="888" d="M-31 31q0 12 9.5 21t21.5 9h596l-504 1276q-6 12 2 29q8 12 27 12h127q18 0 28 -18l515 -1299h98q14 0 22.5 -9t8.5 -21t-8.5 -21.5t-22.5 -9.5h-119q-20 0 -29 18l-514 1299h-61l504 -1276q6 -12 -4 -29q-10 -12 -25 -12h-641q-12 0 -21.5 9t-9.5 22z" />
<glyph unicode="]" horiz-adv-x="710" d="M-31 31q0 12 9.5 21t21.5 9h309q12 0 21.5 -9t9.5 -21v-228q0 -14 -9 -22t-22 -8h-157v-60h268v1456h-158q-14 0 -22.5 9.5t-8.5 21.5v121q0 12 8.5 21.5t22.5 9.5h330q12 0 21.5 -9.5t9.5 -21.5v-1260h88q12 0 21 -9t9 -21t-9 -21.5t-21 -9.5h-119q-14 0 -22.5 9 t-8.5 22v1259h-268v-59h158q12 0 20 -8q10 -10 10 -23v-1517q0 -12 -9 -21.5t-21 -9.5h-330q-14 0 -22.5 9t-8.5 22v120q0 12 8 21.5t23 9.5h158v166h-279q-12 0 -21.5 9t-9.5 22z" />
<glyph unicode="^" horiz-adv-x="925" d="M-31 31q0 12 8.5 21t22.5 9h102l332 732q6 16 29 16q20 0 26 -16l332 -732h105q12 0 21 -9t9 -21t-9 -21.5t-21 -9.5h-123q-23 0 -29 18l-311 687l-313 -687q-6 -18 -27 -18h-123q-14 0 -22.5 9t-8.5 22z" />
<glyph unicode="_" horiz-adv-x="1122" d="M-31 31q0 12 9.5 21t21.5 9h121q12 0 21.5 -9t9.5 -21v-90h821v90q0 12 8 21t23 9h118q14 0 22.5 -9t8.5 -21t-8 -21.5t-23 -9.5h-88v-90q0 -12 -9 -21.5t-21 -9.5h-883q-12 0 -21.5 9.5t-9.5 21.5v90h-90q-12 0 -21.5 9t-9.5 22z" />
<glyph unicode="`" horiz-adv-x="587" d="M-31 31q0 12 9.5 21t21.5 9h588q12 0 21 -9t9 -21t-9 -21.5t-21 -9.5h-588q-12 0 -21.5 9t-9.5 22zM94 1649q10 18 29 18h190q16 0 27 -16l152 -252q10 -14 0 -31q-9 -14 -27 -14h-113q-14 0 -22 8l-230 252q-12 16 -6 35zM193 1606l174 -191h43l-113 191h-104z" />
<glyph unicode="a" horiz-adv-x="1107" d="M-31 31q0 14 9.5 22t21.5 8h174q-4 4 -6 9q-79 82 -79 183q0 9 1 19q6 123 72 199q27 31 63.5 53.5t89.5 42.5q41 14 94.5 21.5t106.5 11.5q35 4 65.5 7t57.5 7q29 6 43 13q6 4 8 6q14 28 14 63v8q-2 40 -34 70q-29 27 -71 31t-83 4h-18q-25 0 -50.5 -5t-47 -20.5 t-38 -44t-20.5 -73.5q0 -12 -9 -20.5t-22 -8.5h-143q-10 0 -23 8q-8 12 -8 23q0 2 1 25.5t8.5 55t21.5 68.5t39 66q103 118 309 118h23q217 -6 315 -108q47 -47 55.5 -98.5t8.5 -77.5v-51v-457q0 -8 1 -22.5t5 -18.5q2 -2 10 -2l51 6q14 0 25 -8q8 -8 8 -23v-80h90 q12 0 21.5 -8t9.5 -22q0 -12 -9.5 -21.5t-21.5 -9.5h-121q-12 0 -21.5 9t-9.5 22v75l-16 -2q-23 -2 -36 4.5t-21 12.5q-20 18 -23.5 43.5t-3.5 44.5v457v51q0 23 -5 60.5t-40 72.5q-88 86 -274 90h-15q-184 0 -270 -98q-27 -31 -37 -73t-14 -71h84q18 96 86 140 q35 23 68.5 28.5t60.5 3.5h18q47 0 99.5 -7t93.5 -42q45 -39 55 -104q1 -11 1 -22q0 -49 -22 -91q-18 -35 -74.5 -46t-148.5 -19q-53 -4 -101 -10.5t-83 -18.5q-82 -29 -131 -80t-55 -160q-1 -9 -1 -18q0 -42 16 -75q19 -40 44 -66.5t47 -38.5l23 -13q20 -10 16 -34 q-6 -25 -31 -25h-266q-12 0 -21.5 9t-9.5 22z" />
<glyph unicode="b" horiz-adv-x="1105" d="M-31 31q0 14 9.5 22t21.5 8h90v1229q0 14 9.5 22.5t21.5 8.5h149q31 0 31 -31v-381q33 31 78 49q86 37 186 37q111 0 199 -41q82 -43 141 -114q29 -35 48.5 -76t35.5 -86q27 -88 27 -193q0 -106 -27 -192q-14 -47 -34.5 -87t-49.5 -75q-16 -20 -33.5 -36.5t-37.5 -33.5 h272q12 0 21.5 -8t9.5 -22q0 -12 -9.5 -21.5t-21.5 -9.5h-399q-27 0 -31 27q-4 25 20 34q10 4 21.5 7.5t21.5 7.5q76 39 119 94q51 59 72 139q24 79 24 169v7q0 90 -24 174q-27 84 -74 144q-45 57 -119 96q-76 35 -172 35q-90 0 -162 -33q-68 -27 -102 -94q-8 -18 -27 -19 h-4q-12 0 -21 9.5t-9 21.5v441h-88v-1229q0 -12 -9.5 -21.5t-21.5 -9.5h-121q-12 0 -21.5 9t-9.5 22z" />
<glyph unicode="c" horiz-adv-x="1071" d="M-31 31q0 14 9.5 22t21.5 8h270q-16 14 -32.5 28.5t-30.5 31.5q-55 61 -88 158q-29 92 -29 196t29 201q27 94 86 166q57 74 145 112q88 41 201 41q86 0 154 -20q72 -18 131 -62q29 -23 52 -48t42 -58q35 -61 45 -154q2 -10 -6 -22q-10 -10 -25 -10h-153q-27 0 -31 24 q-14 74 -64 117q-47 39 -133 39q-72 0 -121 -25q-23 -14 -42 -30.5t-33 -38.5q-31 -47 -43 -105q-12 -61 -13 -127q0 -59 13 -115q14 -55 43 -98t71 -63q45 -25 109 -25q98 0 151 49q55 49 68 146q4 27 31 26h153q12 0 23 -10q8 -8 8 -25q-29 -182 -137 -278q-6 -8 -23 -21 h250q12 0 21.5 -8t9.5 -22q0 -12 -9.5 -21.5t-21.5 -9.5h-379q-25 0 -28 27q-4 29 20 34q68 18 119 66q82 74 110 207h-90q-20 -98 -82 -156q-71 -65 -190 -65h-4q-80 0 -137 30q-59 35 -95 86q-31 45 -51 115q-8 33 -11 65.5t-3 65.5q0 78 14 141q8 35 20.5 66t30.5 57 q39 57 99 90q59 33 149 33q106 0 172 -53q55 -49 78 -127h96q-4 27 -13 50.5t-19 43.5q-33 55 -78 88q-49 35 -111 54q-66 16 -137 16q-96 0 -176 -35q-72 -33 -123 -96q-25 -31 -44.5 -67t-31.5 -77q-24 -83 -24 -176v-8q0 -100 26 -178q25 -80 74 -135q47 -57 123 -88 l37 -13q27 -8 22 -34q-4 -27 -31 -27h-403q-12 0 -21.5 9t-9.5 22z" />
<glyph unicode="d" horiz-adv-x="1105" d="M-31 31q0 14 9.5 22t21.5 8h279q-45 37 -78 74q-53 70 -82 162q-29 96 -29 192q0 106 27 193q29 94 84 162q55 70 141 110q86 41 195 41q18 0 38.5 -2t42.5 -6q41 -6 89 -24q47 -20 81 -50q4 -4 8.5 -6t8.5 -6v389q0 14 9 22.5t22 8.5h149q12 0 21.5 -8t9.5 -23v-1229h90 q12 0 21.5 -8t9.5 -22q0 -12 -9.5 -21.5t-21.5 -9.5h-121q-12 0 -21.5 9t-9.5 22v1229h-88v-439q0 -12 -9 -21t-21 -9h-5q-16 0 -26 14q-10 18 -23.5 33.5t-29.5 25.5q-16 14 -34 23.5t-36 17.5q-41 16 -74 23q-41 6 -71 6q-94 0 -168 -35q-74 -33 -121 -94 q-25 -29 -42.5 -63.5t-29.5 -75.5q-24 -81 -24 -170v-7q0 -92 24 -174q25 -80 74 -141q47 -59 121 -96q18 -10 43 -17q10 -4 17 -14t3 -20q-3 -27 -28 -27h-406q-12 0 -21.5 9t-9.5 22z" />
<glyph unicode="e" horiz-adv-x="1083" d="M-31 31q0 14 9.5 22t21.5 8h281q-20 14 -37 31t-33 35q-59 66 -88 162q-29 88 -33 200q0 113 33 203q35 92 96 160t146 104q41 20 88 29.5t96 9.5q129 0 219 -55q43 -27 77 -61.5t60 -75.5q53 -86 72 -180q16 -90 16 -166v-17q-4 -29 -30 -28h-654q4 -43 15 -74 q12 -47 45 -84q31 -37 77 -59q47 -20 117 -21q84 0 137 37q51 37 70 117q4 25 29 24h149q16 0 23 -12q8 -8 8 -25q-35 -166 -145 -249l-5 -5h254q12 0 21.5 -8t9.5 -22q0 -12 -9.5 -21.5t-21.5 -9.5h-383q-27 0 -30 27q-2 10 4 20t16 14q57 14 107 54q82 59 112 176h-86 q-25 -86 -86 -129q-68 -49 -174 -49q-82 0 -141 26q-59 27 -100 74q-37 43 -58 106q-10 29 -13 60t-3 63q4 31 31 31h653q0 35 -4 68.5t-10 68.5q-18 88 -64 160q-23 35 -52.5 65.5t-66.5 53.5q-72 45 -186 45q-88 0 -160 -33q-72 -31 -125 -90q-53 -63 -84 -141 q-28 -79 -28 -172v-6q2 -98 28 -185q23 -80 76 -141q55 -61 125 -90q10 -4 19.5 -7t19.5 -8q27 -8 22 -34q-4 -27 -30 -27h-412q-12 0 -21.5 9t-9.5 22z" />
<glyph unicode="f" horiz-adv-x="743" d="M-31 31q0 14 9.5 22t21.5 8h242v719h-123q-12 0 -21.5 9.5t-9.5 21.5v133q0 12 9 21.5t22 9.5h123v104q0 123 75 193q72 63 209 63h22.5t29.5 -4q16 -2 29.5 -4t25.5 -6q20 -6 20 -31v-129q0 -18 -12 -26q-16 -8 -29 -2l-16 4t-18 4q-10 0 -20.5 1t-18.5 1q-45 0 -68 -17 q-10 -8 -13 -23.5t-3 -31.5v-96h145q12 0 21.5 -9.5t9.5 -21.5v-133q0 -12 -9.5 -21.5t-21.5 -9.5h-145v-719h288q12 0 21.5 -8t9.5 -22q0 -12 -9.5 -21.5t-21.5 -9.5h-319q-14 0 -22.5 9t-8.5 22v780q0 12 8.5 21.5t22.5 9.5h145v71h-145q-31 0 -31 31v127q0 76 43 107 q38 26 98 26h5q10 0 21 -1t24 -3h8v68q-4 2 -10.5 2t-12.5 2q-12 2 -22 2h-21q-113 0 -168 -49t-55 -146v-135q0 -31 -31 -31h-122v-71h122q14 0 22.5 -9.5t8.5 -21.5v-780q0 -12 -8 -21.5t-23 -9.5h-272q-12 0 -21.5 9t-9.5 22z" />
<glyph unicode="g" horiz-adv-x="1218" d="M-31 31q0 14 9.5 22t21.5 8h285q-47 33 -86 78q-53 66 -82 158q-14 43 -20.5 90t-6.5 96q0 41 5 85t18 89q23 94 73 166q29 37 64 69t78 54q88 49 215 49q94 0 172 -41q39 -23 69 -51v41q0 12 9.5 21.5t21.5 9.5h141q12 0 21.5 -9.5t9.5 -21.5v-835v-38t-2 -40 q0 -2 -2 -2q0 -14 -2 -24.5t-4 -20.5l-2 -4q-16 -68 -53 -119t-97 -80q-61 -29 -139 -29q-43 0 -84 8q-43 8 -82 29q-43 23 -67 53q-23 25 -29 58h-90q10 -45 31 -76q29 -45 79 -76q51 -29 111 -41q57 -14 123 -14q203 0 299 102q74 80 90 240q4 27 31 26h121q12 0 21 -8 t9 -22q0 -12 -9 -21.5t-21 -9.5h-95q-18 -154 -102 -248q-111 -121 -344 -121q-35 0 -69 4.5t-68 10.5q-35 8 -68 21.5t-61 29.5q-59 33 -99 92q-39 55 -43 141q-2 12 9 23q8 8 22 8h150q27 0 30 -29q0 -31 19 -51q10 -10 21 -20.5t28 -16.5q14 -10 30.5 -15t34.5 -9 q37 -6 72 -6q63 0 113 22q43 20 73 62q27 39 43 96v4q6 18 7 35l2 2q2 16 2 35.5v38.5v804h-80v-100q0 -12 -9.5 -21.5t-21.5 -9.5h-2q-16 0 -27 17q-37 68 -100 100q-66 35 -143 35q-109 0 -185 -41q-80 -45 -120 -107q-47 -68 -66 -143q-20 -80 -20 -160q0 -92 24 -168 q10 -41 28.5 -74.5t41.5 -62.5q51 -57 116 -90q35 -18 78 -27q29 -6 25 -32q-4 -29 -31 -29h-434q-12 0 -21.5 9t-9.5 22z" />
<glyph unicode="h" horiz-adv-x="995" d="M-31 31q0 14 9.5 22t21.5 8h90v1229q0 14 9.5 22.5t21.5 8.5h149q31 0 31 -31v-387h2q31 31 80 53q23 10 44.5 17.5t43.5 11.5q51 10 90 10q100 0 162 -26q68 -29 108 -78q45 -51 60 -117q16 -70 16 -143v-570h88q31 0 31 -30q0 -12 -8.5 -21.5t-22.5 -9.5h-118 q-14 0 -22.5 9t-8.5 22v600q0 35 -4 67.5t-11 61.5q-12 49 -45 92q-35 39 -86 59q-57 23 -139 23q-39 0 -78 -8q-18 -4 -37.5 -10.5t-37.5 -14.5q-39 -20 -64 -43q-27 -27 -41 -61q-10 -18 -29 -19h-4q-12 0 -21 9.5t-9 21.5v451h-88v-1229q0 -12 -9.5 -21.5t-21.5 -9.5 h-121q-12 0 -21.5 9t-9.5 22z" />
<glyph unicode="i" horiz-adv-x="391" d="M-31 31q0 14 9.5 22t21.5 8h90v885q0 14 9.5 22.5t21.5 8.5h149q31 0 31 -31v-885h90q12 0 21.5 -8t9.5 -22q0 -12 -9.5 -21.5t-21.5 -9.5h-121q-12 0 -21 9t-9 22v884h-88v-884q0 -12 -9.5 -21.5t-21.5 -9.5h-121q-12 0 -21.5 9t-9.5 22zM59 1186q0 57 40 96t98 39 q55 0 95 -39t40 -96q0 -55 -40 -95t-95 -40q-57 0 -97.5 39.5t-40.5 95.5zM121 1186q0 -31 22.5 -52.5t53.5 -21.5t52 21.5t21 52.5t-21 52.5t-52 21.5t-53.5 -21.5t-22.5 -52.5z" />
<glyph unicode="j" horiz-adv-x="540" d="M-31 31q0 14 9.5 22t21.5 8h90v885q0 31 31 31h149q12 0 21.5 -8t9.5 -23v-1005q0 -76 -22 -115q-29 -41 -93 -41h-30v-68q10 -2 22 -2h23q90 0 139 47q49 45 49 154v115q0 14 9.5 22t21.5 8h121q12 0 21 -8t9 -22q0 -12 -9 -21.5t-21 -9.5h-90v-84q0 -135 -68 -199 q-69 -63 -182 -63q-43 0 -82 6q-25 6 -25 31v129q0 14 12 24q14 8 25 6q4 -2 7 -2t7 -2h9h32q10 0 22.5 2t18.5 13q4 4 8.5 21.5t4.5 58.5v974h-88v-884q0 -12 -9.5 -21.5t-21.5 -9.5h-121q-12 0 -21.5 9t-9.5 22zM59 1186q0 57 40 96t96 39q57 0 97 -39t40 -96 q0 -55 -40 -95t-97 -40q-55 0 -95.5 39.5t-40.5 95.5zM121 1186q0 -31 21.5 -52.5t52.5 -21.5t53 21.5t22 52.5t-22 52.5t-53 21.5t-52.5 -21.5t-21.5 -52.5z" />
<glyph unicode="k" horiz-adv-x="1034" d="M-31 31q0 12 9.5 21t21.5 9h90v1229q0 31 31 31h149q12 0 21.5 -8t9.5 -23v-674l365 349q6 10 20 10h201q23 0 28 -21q6 -20 -8 -34l-342 -314l365 -545h104q12 0 21.5 -9t9.5 -21t-9.5 -21.5t-21.5 -9.5h-121q-18 0 -24 14l-389 580q-16 23 6 41l303 278h-111l-407 -391 q-14 -14 -33 -6q-18 6 -18 29v715h-88v-1229q0 -12 -9.5 -21.5t-21.5 -9.5h-121q-12 0 -21.5 9t-9.5 22z" />
<glyph unicode="l" horiz-adv-x="391" d="M-31 31q0 12 9.5 21t21.5 9h90v1229q0 31 31 31h149q12 0 21.5 -8t9.5 -23v-1229h90q12 0 21.5 -9t9.5 -21t-9.5 -21.5t-21.5 -9.5h-121q-12 0 -21 9t-9 22v1229h-88v-1229q0 -12 -9.5 -21.5t-21.5 -9.5h-121q-12 0 -21.5 9t-9.5 22z" />
<glyph unicode="m" horiz-adv-x="1519" d="M-31 31q0 12 9.5 21t21.5 9h90v883q0 12 9.5 21.5t21.5 9.5h141q12 0 21.5 -9.5t9.5 -21.5v-53q104 104 266 104q96 0 168 -39q29 -14 51.5 -35.5t38.5 -50.5q43 49 101 80q78 45 178 45q72 0 133 -16q57 -14 106 -53q23 -16 40.5 -40t29.5 -52q25 -59 25 -134v-639h90 q12 0 21 -9t9 -21t-9 -21.5t-21 -9.5h-121q-12 0 -21.5 9t-9.5 22v669q0 61 -18 109q-16 41 -54 70q-35 29 -84 41q-49 14 -116 14q-82 0 -150 -37t-110 -104q-10 -16 -29 -15q-20 4 -25 21q-25 74 -82 102q-63 33 -141 33q-174 0 -268 -141q-10 -14 -25 -15h-4 q-12 0 -21.5 9.5t-9.5 21.5v104h-79v-882q0 -12 -9.5 -21.5t-21.5 -9.5h-121q-12 0 -21.5 9t-9.5 22z" />
<glyph unicode="n" horiz-adv-x="995" d="M-31 31q0 12 9.5 21t21.5 9h90v883q0 12 9.5 21.5t21.5 9.5h141q12 0 21.5 -9.5t9.5 -21.5v-55q100 106 268 106q49 0 89 -7t73 -19q66 -27 111 -78q43 -53 57 -117q16 -70 16 -143v-570h88q14 0 22.5 -9t8.5 -21t-8.5 -21.5t-22.5 -9.5h-118q-14 0 -22.5 9t-8.5 22v600 q0 35 -4 66.5t-11 60.5q-6 29 -17 51t-28 43q-35 39 -86 59q-57 23 -139 23q-182 0 -268 -150q-10 -16 -27 -16h-4q-12 0 -21.5 9t-9.5 22v114h-79v-882q0 -12 -9.5 -21.5t-21.5 -9.5h-121q-12 0 -21.5 9t-9.5 22z" />
<glyph unicode="o" d="M-31 31q0 12 9.5 21t21.5 9h285q-23 16 -41.5 32t-34.5 36q-59 70 -90 160q-31 92 -31 196q0 106 31 199q31 94 90 162q61 72 151 108q88 41 203 41t203 -41q86 -35 149 -108q61 -68 91 -162q30 -89 30 -192v-7q0 -104 -30 -196q-27 -90 -91 -160q-16 -20 -34.5 -35.5 t-38.5 -32.5h284q12 0 21.5 -9t9.5 -21t-9 -21.5t-22 -9.5h-417q-27 0 -31 27q-4 25 20 34q29 6 43 15q78 35 127 92q51 61 80 141q27 78 27 176q0 100 -27 181q-29 82 -80 139q-47 59 -127 94t-178 35t-178 -35q-78 -35 -129 -94q-53 -59 -78 -139q-28 -83 -28 -175v-6 q0 -47 7 -91t19 -85q27 -80 80 -141q51 -59 129 -92q10 -4 20.5 -7t20.5 -8q27 -10 23 -34q-4 -27 -31 -27h-418q-12 0 -21.5 9t-9.5 22z" />
<glyph unicode="p" horiz-adv-x="1255" d="M-31 31q0 12 9.5 21t21.5 9h121q12 0 21.5 -9t9.5 -21v-318h88v1229q0 12 9 21.5t21 9.5h150q12 0 21.5 -9.5t9.5 -21.5v-35q35 33 77 49q82 37 187 37q111 0 198 -41q41 -23 76 -50.5t64 -63.5q57 -74 84 -162q28 -93 28 -187v-6q0 -104 -26 -192q-27 -88 -84 -162 q-16 -18 -33.5 -35.5t-38.5 -32.5h272q12 0 21.5 -9t9.5 -21q0 -14 -9 -22.5t-22 -8.5h-399q-27 0 -31 25q-4 29 21 34q18 6 41 17q70 33 121 92q45 55 71 141q25 80 25 174t-25 174q-27 84 -73 144q-51 61 -121 96q-74 35 -170 35q-92 0 -162 -31t-102 -96q-6 -16 -27 -17 h-4q-12 0 -21.5 8.5t-9.5 22.5v92h-88v-1228q0 -12 -9.5 -21.5t-21.5 -9.5h-149q-14 0 -22.5 9t-8.5 22v317h-90q-12 0 -21.5 8t-9.5 23z" />
<glyph unicode="q" horiz-adv-x="1251" d="M-31 31q0 12 9.5 21t21.5 9h270q-20 14 -37.5 32t-33.5 36q-29 35 -49.5 75t-32.5 87q-29 96 -29 192t29 193q27 88 84 162q53 70 141 114q86 41 197 41q102 0 186 -37q45 -18 78 -49v35q0 12 8 21.5t23 9.5h149q12 0 21.5 -9.5t9.5 -21.5v-1229h88v318q0 12 8 21t23 9 h118q14 0 22.5 -9t8.5 -21q0 -31 -31 -31h-88v-317q0 -12 -9 -21.5t-21 -9.5h-150q-14 0 -22.5 9t-8.5 22v1228h-88v-92q0 -14 -9 -22.5t-21 -8.5h-5q-18 0 -28 17q-31 66 -101 96q-74 31 -161 31q-96 0 -170 -35q-72 -37 -121 -96q-47 -61 -72 -144q-12 -41 -19 -84t-7 -90 q0 -94 24 -174q25 -80 72 -141q51 -59 121 -92q23 -10 41 -17q27 -8 20 -34q-4 -25 -29 -25h-399q-12 0 -21.5 8t-9.5 23z" />
<glyph unicode="r" horiz-adv-x="720" d="M-31 31q0 12 9.5 21t21.5 9h90v881q0 12 9.5 21.5t21.5 9.5h141q12 0 21.5 -9.5t9.5 -21.5v-88q39 51 90 86q78 53 202 53h17q12 0 20.5 -9t8.5 -21v-158q0 -31 -31 -31q-80 0 -141 -22q-53 -20 -90 -64q-33 -41 -52 -104q-16 -70 -16 -148v-375h420q12 0 21.5 -9 t9.5 -21q0 -14 -9.5 -22.5t-21.5 -8.5h-451q-12 0 -21 8t-9 23v405q0 90 18 164q23 78 64 127q45 55 114 82q57 20 133 25v98q-92 -4 -153 -43q-72 -49 -123 -154q-6 -16 -27 -16h-4q-12 0 -21.5 9t-9.5 22v161h-79v-880q0 -14 -9.5 -22.5t-21.5 -8.5h-121q-12 0 -21.5 8 t-9.5 23z" />
<glyph unicode="s" horiz-adv-x="1013" d="M-31 31q0 12 8.5 21t22.5 9h211q-49 35 -84 99q-37 68 -39 155q0 10 8 23q10 10 23 10h149q31 0 31 -31q2 -41 18 -67q18 -27 45 -45q16 -8 33 -14.5t37 -10.5q35 -8 82 -8q16 0 33.5 1t36.5 3q35 6 63 19q23 8 43 30q14 20 15 51q0 41 -31 64q-39 27 -103 43 q-33 10 -67.5 18.5t-73.5 16.5q-78 14 -149 43q-72 31 -121 84q-51 57 -51 160q0 76 34 133q33 55 88 90q53 33 119 51q59 14 129 14q82 0 150 -12q72 -16 125 -51q59 -37 92 -101q33 -63 39 -149q0 -12 -8 -25q-8 -8 -23 -8h-152q-27 0 -30 27q-4 41 -17 59q-14 25 -41 37 q-27 16 -55 23q-16 4 -33.5 6t-33.5 2q-31 0 -64 -6q-31 -2 -53 -17q-23 -8 -35 -26q-12 -12 -12 -37t18 -43q23 -23 60 -35q20 -10 42.5 -16.5t47.5 -10.5q27 -6 53 -12t53 -12q55 -12 113 -31q29 -10 55.5 -22.5t48.5 -28.5q45 -33 76 -82q29 -49 29 -125q0 -92 -39 -156 q-16 -23 -35 -43t-41 -37h205q12 0 21 -9t9 -21q0 -14 -9 -22.5t-21 -8.5h-342q-27 0 -31 27q-4 25 23 32q51 12 90 37q47 31 80 78q28 44 28 118v5q0 59 -20 94q-10 18 -25.5 33.5t-32.5 30.5q-20 12 -41.5 22t-46.5 19q-49 16 -106 30h-2q-27 6 -52.5 12.5t-52.5 10.5 q-53 12 -100 31q-43 18 -80 47q-37 37 -37 88q0 45 25 76q18 25 57 45q16 6 33.5 11t38.5 9q33 6 72 6q35 0 79 -10q41 -6 76 -29t60 -55q18 -31 22 -59h90q-6 53 -28 92q-25 49 -70 78q-49 29 -105 41q-61 12 -137 12q-29 0 -56.5 -3t-55.5 -11q-55 -12 -101 -41 q-43 -29 -71 -72q-25 -41 -25 -100q0 -74 35 -119q41 -43 100 -68q31 -14 66 -23.5t71 -17.5q41 -8 77 -16t71 -19q35 -10 64.5 -22t54.5 -29q57 -41 57 -115q0 -53 -29 -88q-23 -31 -65 -51q-18 -8 -38 -13t-42 -7q-41 -6 -78 -6q-53 0 -94 8q-51 12 -88 33q-41 25 -66 65 q-18 31 -24 70h-90q4 -29 11 -53.5t19 -45.5q29 -53 74 -84q41 -29 98 -45q27 -6 23 -32q-4 -27 -31 -27h-346q-31 0 -31 31z" />
<glyph unicode="t" horiz-adv-x="727" d="M-31 31q0 12 9.5 21t21.5 9h289q-18 20 -31 56q-12 45 -12 112v549h-125q-14 0 -22.5 9.5t-8.5 21.5v133q0 12 8 21.5t23 9.5h125v241q0 31 30 31h150q12 0 21.5 -8t9.5 -23v-241h151q12 0 21.5 -9.5t9.5 -21.5v-133q0 -12 -9 -21.5t-22 -9.5h-151v-534q0 -14 1 -22.5 t1 -12.5q2 -4 6 -8t20 -6q10 0 23.5 -1t30.5 -1h69q12 0 21.5 -9.5t9.5 -21.5v-101h88q12 0 21.5 -9t9.5 -21q0 -14 -9.5 -22.5t-21.5 -8.5h-119q-31 0 -30 31v100h-39q-18 0 -34 1t-28 3q-33 4 -49 17q-18 16 -29 41q-2 10 -3 22t-1 29v565q0 31 31 31h152v71h-152 q-14 0 -22.5 9.5t-8.5 21.5v242h-88v-242q0 -12 -9 -21.5t-22 -9.5h-124v-71h124q12 0 21.5 -8.5t9.5 -22.5v-580q0 -29 2 -52t8 -42q10 -29 29 -45q20 -16 53 -22q37 -6 95 -7q12 0 21 -9t9 -21q0 -14 -9 -22.5t-21 -8.5h-494q-12 0 -21.5 8t-9.5 23z" />
<glyph unicode="u" horiz-adv-x="995" d="M-31 31q0 12 9.5 21t21.5 9h184q-12 8 -20 21q-23 25 -36 54.5t-24 64.5q-16 66 -16 141v600q0 12 9 21.5t22 9.5h151q12 0 21.5 -9.5t9.5 -21.5v-618q0 -72 39 -111q41 -41 115 -41q63 0 106 18q43 16 74 52q14 16 25.5 36.5t17.5 43.5q16 53 16 104v516q0 12 9.5 21.5 t21.5 9.5h149q12 0 21.5 -9.5t9.5 -21.5v-881h90q12 0 21.5 -9t9.5 -21q0 -14 -9 -22.5t-22 -8.5h-121q-12 0 -21 8t-9 23v880h-88v-485q0 -66 -19 -123q-18 -57 -55 -100t-96 -70q-55 -22 -125 -22h-6q-100 0 -158 57q-57 57 -57 156v587h-90v-569q0 -35 4 -66.5t10 -60.5 q16 -59 47 -92q31 -41 84 -60q8 -4 10 -4q25 -10 21 -34q-4 -25 -31 -25h-295q-12 0 -21.5 8t-9.5 23z" />
<glyph unicode="v" horiz-adv-x="1073" d="M-31 31q0 12 9.5 21t21.5 9h414l-322 871q-6 10 2 26q8 14 27 15h166q25 0 30 -21l228 -678l221 678q6 20 31 21h155q16 0 27 -12q8 -16 2 -29l-317 -871h409q12 0 21.5 -9t9.5 -21q0 -14 -9.5 -22.5t-21.5 -8.5h-455q-16 0 -24 12q-8 10 -4 29l319 870h-92l-242 -739 q-6 -20 -28 -20h-4q-23 0 -29 20l-248 739h-102l323 -870q6 -14 -4 -29q-6 -12 -24 -12h-459q-12 0 -21.5 8t-9.5 23z" />
<glyph unicode="w" horiz-adv-x="1517" d="M-31 31q0 12 9.5 21t21.5 9h371l-281 871q-4 16 6 29q6 12 25 12h166q20 0 28 -23l179 -639l155 639q8 23 31 23h164q25 0 28 -23l164 -641l176 641q8 23 31 23h154q16 0 26 -12q6 -14 4 -29l-278 -871h369q12 0 21 -9t9 -21q0 -14 -9 -22.5t-21 -8.5h-412q-16 0 -25 12 q-8 10 -4 27l279 872h-90l-199 -723q-6 -23 -29 -22h-4q-25 0 -30 22l-185 723h-114l-179 -723q-6 -23 -30 -22h-4q-23 0 -29 22l-201 723h-100l280 -872q4 -16 -4 -27q-10 -12 -24 -12h-414q-12 0 -21.5 8t-9.5 23z" />
<glyph unicode="x" horiz-adv-x="1122" d="M-31 31q0 12 9.5 21t21.5 9h104l322 449l-305 414q-10 18 -2 32q6 16 26 17h193q16 0 24 -15l195 -282l203 285q8 12 24 12h181q20 0 26 -17q10 -16 -2 -32l-301 -402l332 -461h102q14 0 22.5 -9t8.5 -21q0 -31 -31 -31h-118q-18 0 -25 12l-354 492q-4 8 -4 18t6 19 l276 370h-102l-219 -307q-10 -12 -25 -12q-18 0 -27 14l-208 305h-115l280 -383q14 -18 0 -36l-342 -480q-10 -12 -24 -12h-121q-12 0 -21.5 8t-9.5 23z" />
<glyph unicode="y" horiz-adv-x="1095" d="M-31 31q0 14 9.5 22t21.5 8h440l-348 871q-6 14 4 29q6 14 25 14h170q23 0 28 -21l238 -669l229 669q6 20 29 21h160q16 0 24 -14q10 -14 5 -29l-410 -1059q-2 -2 -2 -4q-25 -47 -60 -72q-32 -26 -88 -26h-4q-31 0 -53 8h-4v-72l25 -6q12 -2 24 -2h25q43 0 78 10 q29 12 57 37q25 23 51 68q23 41 49 108l47 121q6 18 29 18h328q12 0 21 -8t9 -22q0 -12 -9 -21.5t-21 -9.5h-308l-38 -100q-14 -35 -26.5 -64t-27.5 -53q-27 -47 -61 -82q-37 -35 -80 -49q-41 -14 -98 -14q-14 0 -28.5 1t-29.5 3q-33 4 -57 14q-20 6 -20 29v137q0 14 12 24 q14 10 28 4q10 -4 21.5 -7t22.5 -7q10 -4 17 -4h17q39 0 56 14q20 14 41 50l393 1017h-92l-248 -727q-6 -20 -31 -20h-2q-23 0 -29 20l-260 727h-102l348 -870q4 -18 -4 -29q-10 -14 -25 -14h-485q-12 0 -21.5 9t-9.5 22z" />
<glyph unicode="z" horiz-adv-x="1009" d="M-31 31q0 14 9.5 22t21.5 8h90v84q0 10 6 21l510 614h-450q-12 0 -21.5 9.5t-9.5 21.5v133q0 12 9 21.5t22 9.5h708q12 0 21.5 -9.5t9.5 -21.5v-102q0 -12 -6 -21l-516 -626h516q14 0 22.5 -9.5t8.5 -21.5v-103h90q12 0 21 -8t9 -22q0 -12 -9 -21.5t-21 -9.5h-121 q-12 0 -21.5 9t-9.5 22v102h-551q-20 0 -28 19q-6 16 4 32l551 668v61h-648v-71h484q23 0 28 -17q6 -23 -4 -32l-542 -658v-104q0 -12 -9.5 -21.5t-21.5 -9.5h-121q-12 0 -21.5 9t-9.5 22z" />
<glyph unicode="{" horiz-adv-x="841" d="M-31 31q0 12 9.5 21t21.5 9h236v172q0 23 -2.5 41.5t-8.5 36.5q-10 33 -28 56q-14 20 -37 32q-20 10 -39 11q-12 0 -21.5 8t-9.5 22v119q0 12 9.5 21.5t21.5 9.5q20 0 39 12q18 8 37 33q10 12 16 26.5t12 30.5t8.5 36t2.5 40v322q0 31 5 58.5t15 51.5q10 25 22.5 45.5 t28.5 36.5t33.5 28.5t36.5 22.5q39 18 80 19h125q12 0 21 -9.5t9 -21.5v-107q0 -12 -9 -21t-21 -9h-88q-16 0 -23 -6q-12 -10 -18 -25q-8 -18 -11 -39q-2 -12 -3 -25.5t-1 -25.5v-324q0 -70 -20 -116q-23 -49 -49 -80q-25 -27 -43 -41q20 -12 43 -37q27 -31 49 -80 q20 -47 20 -123v-348q0 -49 17 -88q8 -18 17 -34.5t22 -29.5q20 -23 51 -36q27 -12 53 -13h94v45h-57q-41 0 -64 21q-18 14 -32 45t-17 59q-2 14 -3 28.5t-1 29.5v90q0 12 9.5 21t21.5 9h293q12 0 21 -9t9 -21t-9 -21.5t-21 -9.5h-262v-59q0 -12 1 -24.5t3 -27.5 q2 -18 10 -41q4 -10 16 -22q8 -6 25 -6h88q12 0 21.5 -9.5t9.5 -21.5v-106q0 -12 -9.5 -21.5t-21.5 -9.5h-125q-41 0 -80 18q-37 16 -69 51q-33 33 -52 82q-20 51 -20 111v348q0 29 -3 54.5t-14 43.5q-14 39 -36 64q-10 10 -20.5 19.5t-20.5 13.5q-23 10 -31 10 q-29 4 -29 31v6q0 25 25 28q12 4 33 15q20 12 43 37t36 63q16 33 17 92v324q0 16 1 29.5t3 29.5q2 31 16 58q12 27 33 45q27 20 64 20h57v45h-94q-20 0 -54 -14q-31 -14 -51 -37q-23 -23 -39 -61q-16 -43 -16 -88v-322q0 -51 -12 -94q-8 -23 -17.5 -41.5t-21.5 -34.5 q-23 -31 -56 -51q-10 -4 -19 -8t-19 -7v-65q10 -2 19 -6t19 -8q31 -18 56 -50q23 -29 39 -73q12 -43 12 -97v-202q0 -12 -8 -21.5t-23 -9.5h-266q-12 0 -21.5 9t-9.5 22z" />
<glyph unicode="|" horiz-adv-x="710" d="M-31 31q0 12 8.5 21t22.5 9h88v1260q0 12 9 21.5t22 9.5h110h31q14 0 22.5 -9.5t8.5 -21.5v-1608h80v318q0 12 9 21t21 9h310q12 0 21 -9t9 -21t-9 -21.5t-21 -9.5h-279v-317q0 -12 -8 -21.5t-23 -9.5h-30h-111q-12 0 -21.5 9t-9.5 22v1607h-79v-1259q0 -12 -8.5 -21.5 t-22.5 -9.5h-119q-14 0 -22.5 9t-8.5 22z" />
<glyph unicode="}" horiz-adv-x="845" d="M-31 31q0 12 9.5 21t21.5 9h295q12 0 21.5 -9t9.5 -21v-90q0 -14 -1 -28.5t-3 -29.5q-2 -29 -17 -59q-14 -31 -33 -45q-23 -20 -63 -21h-57v-45h94q25 0 53 13q31 14 51 36q12 12 21.5 28.5t17.5 35.5q16 39 17 88v348q0 76 20 123q20 49 49 80q23 25 45 37 q-20 12 -45 41q-29 31 -49 80q-20 47 -20 116v324q0 12 -1.5 25.5t-3.5 25.5q-2 10 -4 20.5t-6 18.5q-6 14 -16 25q-10 6 -25 6h-88q-12 0 -21.5 9t-9.5 21v107q0 12 9.5 21.5t21.5 9.5h125q39 0 80 -19q39 -18 70 -51q33 -33 51 -82q20 -47 20 -110v-322q0 -43 13 -76 q4 -16 11 -30.5t15 -26.5q23 -25 39 -33q18 -12 39 -12q12 0 21.5 -9.5t9.5 -21.5v-119q0 -14 -9.5 -22t-21.5 -8q-20 0 -41 -13q-23 -10 -37 -30q-18 -25 -26 -58q-12 -35 -13 -76v-172h238q12 0 21.5 -9t9.5 -21t-9.5 -21.5t-21.5 -9.5h-268q-12 0 -21.5 9t-9.5 22v202 q0 55 14 97q14 43 37 73q23 29 57 50q23 12 39 14v65q-10 2 -19 6.5t-20 8.5q-16 10 -30.5 22.5t-26.5 28.5q-10 16 -20.5 34.5t-16.5 41.5q-14 41 -14 94v322q0 51 -15 88q-14 33 -38 61q-25 25 -52 37q-33 14 -55 14h-94v-45h57q37 0 64 -20q20 -18 32 -45t17 -58 q2 -16 3 -29.5t1 -29.5v-324q0 -53 16 -92q8 -20 18.5 -35.5t20.5 -27.5q18 -25 41 -37q14 -6 21.5 -9t11.5 -6q25 -4 25 -28v-6q0 -27 -27 -31q-10 0 -33 -10q-10 -6 -20.5 -14.5t-20.5 -18.5q-23 -25 -37 -64q-16 -39 -16 -98v-348q0 -31 -5 -59.5t-16 -51.5 q-18 -49 -51 -82q-33 -35 -69 -51q-41 -18 -80 -18h-125q-12 0 -21.5 9t-9.5 22v106q0 12 9.5 21.5t21.5 9.5h88q16 0 22 6q14 10 19 22q8 23 10 41q2 14 3 26.5t1 25.5v59h-264q-12 0 -21.5 9t-9.5 22z" />
<glyph unicode="~" horiz-adv-x="1058" d="M-31 31q0 12 8.5 21t22.5 9h121l-25 33q-10 12 -2 31q16 33 37 59q20 29 53 56q29 23 68 39q37 14 90 14q51 0 104 -19q27 -8 52.5 -18t52.5 -20q25 -10 49.5 -22.5t48.5 -25.5q41 -23 68 -22q18 0 35 10q8 4 16 10.5t16 14.5q8 10 15.5 19t15.5 20q8 12 15.5 24t17.5 23 q6 14 24 14q12 0 25 -12l64 -88q14 -20 0 -37q-10 -14 -20.5 -28.5t-20.5 -29.5q-10 -12 -21.5 -23t-21.5 -22h182q12 0 21.5 -9t9.5 -21t-9.5 -21.5t-21.5 -9.5h-342h-2q-12 0 -21.5 9t-9.5 22q0 12 9 21t22 9h2q33 0 59 11q27 10 53 30q25 20 41 43q8 10 14.5 18.5 t14.5 18.5l-27 35q-4 -8 -6 -10q-20 -31 -37 -47q-20 -23 -49 -39t-63 -17q-39 0 -96 29q-23 12 -47.5 23.5t-47.5 21.5h-2q-25 10 -49 20.5t-47 18.5q-43 14 -86 14q-33 0 -68 -10q-27 -10 -53 -31q-12 -10 -21.5 -20t-19.5 -20q-6 -10 -11 -18.5t-11 -16.5l47 -66 q12 -16 2 -33q-6 -16 -27 -16h-180q-14 0 -22.5 9t-8.5 22z" />
<glyph unicode="&#xa0;" horiz-adv-x="765" d="M-31 31q0 14 9.5 22t21.5 8h766q12 0 21.5 -8t9.5 -22q0 -12 -9.5 -21.5t-21.5 -9.5h-766q-12 0 -21.5 9t-9.5 22z" />
<glyph unicode="&#xa1;" horiz-adv-x="575" d="M-31 31q0 12 9.5 21t21.5 9h90v68v2l43 549q4 29 31 29h80q27 0 30 -29l45 -549v-2v-356h105v258q0 12 9 21t22 9h120q12 0 21.5 -9t9.5 -21t-9 -21.5t-22 -9.5h-90v-258q0 -12 -8 -21.5t-22 -9.5h-166q-14 0 -22.5 9.5t-8.5 21.5v385l-43 520h-22l-41 -520v-96 q0 -12 -9.5 -21.5t-21.5 -9.5h-121q-12 0 -21.5 9t-9.5 22zM68 897q0 57 39.5 96t97.5 39q55 0 95 -39t40 -96q0 -55 -40 -95t-95 -40q-57 0 -97 40t-40 95zM129 897q0 -31 22.5 -52.5t53.5 -21.5t52.5 21.5t21.5 52.5t-21.5 52.5t-52.5 21.5t-53.5 -21.5t-22.5 -52.5z" />
<glyph unicode="&#xa2;" horiz-adv-x="1069" d="M-31 31q0 12 9.5 21t21.5 9h270q-33 23 -63 60q-61 68 -88 158q-29 92 -29 196q0 113 27 201q31 94 86 166q57 70 147 112q29 14 70 25v311q0 12 9 21.5t22 9.5h167q14 0 22.5 -9t8.5 -22v-303l56 -12q37 -10 69.5 -25.5t61.5 -36.5q57 -45 94 -108q16 -33 28.5 -71 t16.5 -81q2 -10 -8 -24q-6 -10 -23 -11h-156q-25 0 -28 25q-14 74 -64 117q-20 18 -47 26v-596q29 12 49 33q55 49 68 146q4 27 31 26h153q12 0 23 -10q8 -10 8 -25q-29 -184 -137 -280q-6 -6 -23 -19h248q14 0 22.5 -9t8.5 -21t-8.5 -21.5t-22.5 -9.5h-377h-4q-23 4 -26 27 q-4 25 22 32q2 2 4 2q72 23 115 64q82 76 110 209h-90q-23 -102 -82 -156q-37 -33 -92 -53q-29 -10 -61 -12v63v625v61q16 -2 31.5 -4t29.5 -6q51 -16 86 -45q55 -47 78 -127h96q-12 59 -35 94q-14 29 -33.5 50.5t-41.5 39.5q-53 37 -111 51q-14 4 -39 9q-14 4 -29.5 5 t-31.5 3v61v267h-107v-269v-63q-31 -4 -61 -13q-20 -6 -45 -16q-76 -39 -123 -96q-51 -59 -76 -146q-25 -84 -24 -182q0 -100 26 -178q25 -78 74 -137q49 -55 123 -86q8 -4 15 -6t18 -7l4 -2q27 -8 22 -32q-4 -23 -26 -27h-5h-403q-12 0 -21.5 9t-9.5 22zM-31 31 q0 12 9.5 21t21.5 9h270q-33 23 -63 60q-61 68 -88 158q-29 92 -29 196q0 113 27 201q31 94 86 166q57 70 147 112q29 14 70 25v311q0 12 9 21.5t22 9.5h167q14 0 22.5 -9t8.5 -22v-303l56 -12q37 -10 69.5 -25.5t61.5 -36.5q57 -45 94 -108q16 -33 28.5 -71t16.5 -81 q2 -10 -8 -24q-6 -10 -23 -11h-156q-25 0 -28 25q-14 74 -64 117q-20 18 -47 26v-596q29 12 49 33q55 49 68 146q4 27 31 26h153q12 0 23 -10q8 -10 8 -25q-29 -184 -137 -280q-6 -6 -23 -19h248q14 0 22.5 -9t8.5 -21t-8.5 -21.5t-22.5 -9.5h-377h-4q-23 4 -26 27 q-4 25 22 32q2 2 4 2q72 23 115 64q82 76 110 209h-90q-23 -102 -82 -156q-37 -33 -92 -53q-29 -10 -61 -12v63v625v61q16 -2 31.5 -4t29.5 -6q51 -16 86 -45q55 -47 78 -127h96q-12 59 -35 94q-14 29 -33.5 50.5t-41.5 39.5q-53 37 -111 51q-14 4 -39 9q-14 4 -29.5 5 t-31.5 3v61v267h-107v-269v-63q-31 -4 -61 -13q-20 -6 -45 -16q-76 -39 -123 -96q-51 -59 -76 -146q-25 -84 -24 -182q0 -100 26 -178q25 -78 74 -137q49 -55 123 -86q8 -4 15 -6t18 -7l4 -2q27 -8 22 -32q-4 -23 -26 -27h-5h-403q-12 0 -21.5 9t-9.5 22z" />
<glyph unicode="&#xa3;" horiz-adv-x="1122" d="M-31 31q0 12 9.5 21t21.5 9h145l-47 66q-6 10 -4 23q0 12 12 20l34 25.5t34 29.5q31 27 59 70q12 18 21.5 37.5t17.5 40.5q14 41 15 88q0 37 -13 74q-4 16 -9 27t-9 22h-133q-12 0 -21.5 8t-9.5 22v88q0 14 9.5 22.5t21.5 8.5h51q-10 23 -19.5 42.5t-17.5 41.5 q-25 70 -24 162q0 88 34 164q37 72 97 121q66 53 137 75q74 27 164 27q209 0 329 -123q119 -123 117 -362q0 -12 -9 -21.5t-21 -9.5h-150q-12 0 -21.5 9t-9.5 22q-4 143 -61 221q-55 72 -166 72q-43 0 -88 -17q-39 -14 -70 -43q-16 -12 -26.5 -28.5t-20.5 -34.5 q-16 -37 -16 -78q0 -20 2 -37.5t6 -34.5q4 -16 9 -31.5t11 -31.5q12 -29 29 -58q6 -12 11.5 -23.5t11.5 -23.5h262q12 0 21.5 -8t9.5 -23v-88q0 -14 -9.5 -22t-21.5 -8h-193q4 -8 4 -13q12 -37 13 -79q0 -66 -19 -117q-10 -25 -22.5 -48.5t-28.5 -45.5q-14 -23 -39 -48 q31 6 62 7q51 0 98 -11q23 -4 41 -9t37 -9q18 -4 35.5 -10t35.5 -11q35 -10 68 -10q35 0 72 19q18 10 34.5 20t32.5 21q10 10 23 6q14 -4 20 -15l76 -114q14 -23 -4 -41q-4 -4 -9 -7t-10 -8h121q12 0 21.5 -9t9.5 -21t-9 -21.5t-22 -9.5h-272q-10 0 -19.5 8t-9.5 19 q-4 29 25 34q8 0 24 5q45 12 88 40l-43 66q-12 -8 -24 -15t-27 -14q-49 -25 -98 -24q-45 0 -84 12q-18 6 -36.5 11t-35.5 10q-35 8 -73 18q-18 4 -40 6t-46 2q-23 0 -44.5 -4t-39.5 -10q-23 -8 -44.5 -16.5t-43.5 -18.5q-18 -6 -35 6l-2 4q-10 10 -11 23q2 12 13 22 q18 16 37.5 31.5t35.5 32.5q37 37 62 69q27 39 41 78q16 39 16 97q0 37 -8 61q-6 14 -14 31q-2 4 -11 16q-6 16 3 31q10 14 26 14h211v27h-250q-18 0 -26 18q-8 16 -16.5 30.5t-16.5 31.5q-8 16 -15.5 31.5t-15.5 31.5q-6 16 -12 34.5t-10 37.5q-10 45 -11 86q0 53 23 104 q20 45 61 84q39 35 90 53q25 10 52.5 15.5t56.5 5.5q143 0 215 -96q63 -84 72 -228h90q-4 193 -101 289q-102 104 -284 105q-72 0 -144 -23q-63 -20 -118 -65q-49 -39 -80 -103q-29 -61 -29 -135q0 -41 5 -76t18 -63q20 -59 55 -121q8 -16 0 -31q-6 -16 -27 -16h-71v-27h120 q20 0 29 -18q4 -8 4 -9q6 -16 12.5 -29.5t12.5 -33.5q16 -53 16 -94q0 -57 -18 -107q-8 -27 -19.5 -49t-25.5 -45q-31 -43 -68 -80q-12 -10 -24.5 -21.5t-26.5 -21.5l65 -88q10 -18 2 -33q-6 -16 -26 -16h-207q-12 0 -21.5 9t-9.5 22z" />
<glyph unicode="&#xa4;" horiz-adv-x="1054" d="M-31 31q0 31 31 30h88v103q0 12 9 21.5t22 9.5h602q-10 27 -31 53q-29 41 -78 80q-23 18 -48 35.5t-54 33.5q-29 18 -58.5 36t-58.5 34q-29 20 -57.5 39.5t-56.5 40.5q-29 23 -54.5 46t-48.5 50q-45 53 -72 121q-29 74 -28 158q0 94 35 170q16 35 38.5 65.5t51.5 54.5 q55 47 135 76q76 25 162 25q102 0 188 -35q84 -37 139 -102q55 -57 84 -152q12 -43 18.5 -89t2.5 -97q0 -12 -9.5 -20.5t-21.5 -8.5h-149q-10 0 -23 8q-8 8 -8 23q2 49 -10 104q-12 53 -39 90q-14 18 -29.5 34.5t-38.5 27.5q-37 25 -96 24q-23 0 -43.5 -4t-38.5 -10 q-39 -14 -68 -41q-29 -25 -43 -61q-18 -35 -18 -80q0 -59 18 -103q20 -47 56 -82q39 -41 94 -80q29 -20 63.5 -42.5t73.5 -47.5q33 -20 64.5 -40.5t62.5 -43.5q63 -49 113 -108q27 -31 47 -68t37 -78q14 -35 23 -77.5t16 -92.5h92q12 0 21 -8t9 -22q0 -12 -9 -21.5t-21 -9.5 h-121q-27 0 -31 29q-4 53 -13 98t-24 82q-14 37 -32.5 69.5t-40.5 59.5q-23 29 -48.5 52.5t-54.5 45.5q-59 43 -123 80q-41 27 -75.5 49.5t-63.5 42.5q-33 23 -58.5 44.5t-45.5 43.5q-45 47 -66 103q-12 27 -17 58.5t-5 66.5q0 59 20 106q27 49 59 80q18 18 41 30.5t47 22.5 q49 18 103 19q72 0 127 -33q53 -31 88 -80q33 -51 47 -111q8 -43 12 -88h90q0 37 -5 71t-15 67q-20 70 -70 129q-47 53 -118 84q-72 31 -164 30q-39 0 -74 -5t-70 -17q-68 -23 -112 -62q-49 -43 -76 -102q-29 -63 -29 -143q0 -76 23 -134q25 -61 63 -106q20 -23 43 -45.5 t49 -40.5q27 -20 54.5 -38.5t56.5 -37.5q29 -16 57.5 -34.5t57.5 -34.5q66 -39 110 -76q27 -20 48.5 -43t39.5 -47q39 -47 52 -115q2 -10 -7 -27q-10 -10 -24 -10h-610v-102q0 -12 -9.5 -21.5t-21.5 -9.5h-119q-14 0 -22.5 9t-8.5 22z" />
<glyph unicode="&#xa5;" horiz-adv-x="1224" d="M-31 31q0 12 9.5 21t21.5 9h502v244h-219q-12 0 -21.5 9.5t-9.5 21.5v106q0 12 9 21.5t22 9.5h219v35l-21 37h-198q-12 0 -21.5 8t-9.5 22v105q0 12 9 21.5t22 9.5h112l-299 563q-6 14 0 31q10 14 27 14h192q20 0 27 -16l279 -566l270 563q8 18 29 19h182q16 0 26 -14 q8 -14 2 -31l-290 -563h112q14 0 22.5 -9.5t8.5 -21.5v-105q0 -31 -31 -30h-202l-21 -37v-35h223q14 0 22.5 -9t8.5 -22v-106q0 -12 -8 -21.5t-23 -9.5h-223v-244h496q14 0 22 -9t8 -21t-8 -21.5t-22 -9.5h-527q-12 0 -21 9t-9 22v305q0 14 9 22.5t21 8.5h224v45h-224 q-12 0 -21 9t-9 21v74q0 6 4 14l33 60q6 16 26 16h191v43h-134q-18 0 -24 15q-8 14 -2 30l291 563h-115l-289 -604q-8 -18 -26 -18t-29 18l-297 604h-123l299 -563q8 -14 -2 -30q-8 -14 -25 -15h-133v-43h187q20 0 26 -16l33 -60q4 -8 4 -14v-74q0 -12 -9 -21t-22 -9h-219 v-45h219q12 0 21.5 -8.5t9.5 -22.5v-305q0 -12 -9 -21.5t-22 -9.5h-532q-12 0 -21.5 9t-9.5 22z" />
<glyph unicode="&#xa6;" horiz-adv-x="407" d="M-31 31q0 12 9.5 21t21.5 9h90v512q0 12 9.5 21.5t21.5 9.5h31h106h35q2 0 4 -2q23 -4 22 -29v-512h89q14 0 22 -9t8 -21t-8 -21.5t-22 -9.5h-119q-14 0 -22.5 9t-8.5 22v512h-106v-512q0 -12 -9.5 -21.5t-21.5 -9.5h-121q-12 0 -21.5 9t-9.5 22zM90 745v545 q0 12 9.5 21.5t21.5 9.5h168q12 0 21 -9t9 -22v-545q0 -2 -2 -4q0 -10 -7 -17t-17 -9h-4h-31h-106h-31q-12 0 -21.5 9t-9.5 21zM152 776h106v484h-106v-484z" />
<glyph unicode="&#xa7;" horiz-adv-x="1093" d="M-31 31q0 12 9.5 21t21.5 9h254q-70 90 -78 226q0 10 8 22q10 10 23 10h149q14 0 22.5 -9t8.5 -21q2 -76 49 -125q45 -45 123 -45q27 0 55 6q29 10 48 22q23 18 32 37q10 25 11 49q0 35 -21 64q-10 16 -26.5 31.5t-34.5 29.5q-23 16 -45.5 30.5t-49.5 29.5 q-29 16 -56.5 30.5t-55.5 30.5q-29 16 -57.5 32.5t-57.5 33.5q-61 39 -104 82q-47 49 -76 108q-29 61 -29 139q0 45 17 91q18 47 45 82q16 16 31.5 32.5t35.5 28.5q14 12 39 22q-10 16 -19.5 30t-17.5 30q-23 47 -22 115q0 76 30 135q16 29 37 53.5t45 46.5q51 41 115 59 q61 20 129 21q158 0 252 -88q98 -90 102 -268q0 -12 -8 -21q-10 -10 -22 -10h-150q-12 0 -21.5 9t-9.5 22q-4 72 -41 118q-37 45 -106 45q-61 0 -100 -30q-37 -29 -37 -90q0 -33 18 -60q25 -33 60 -57q20 -16 42.5 -29.5t49.5 -27.5t52.5 -28.5t53.5 -31.5 q29 -14 55.5 -29.5t53.5 -31.5q29 -18 53.5 -37t46.5 -41q45 -49 72 -98q29 -61 28 -131q0 -96 -59 -175q-20 -29 -46 -51t-54 -39q80 -84 80 -202q0 -74 -27 -129q-12 -23 -29 -48h228q12 0 21 -9t9 -21t-9 -21.5t-21 -9.5h-299q-23 0 -29 20q-6 18 10 35h2q39 35 60 80 q23 49 22 103q0 117 -92 184q-12 8 -12 29q4 18 20 24q70 27 117 90q47 66 47 140q0 57 -22 102q-23 41 -62 84q-37 37 -86 67q-27 16 -53.5 32t-52.5 30q-29 16 -55.5 29.5t-53.5 27.5q-27 16 -50.5 30.5t-45.5 31.5q-47 33 -74 73q-31 39 -31 95q0 92 62 139q55 43 137 43 q98 0 154 -68q45 -57 53 -127h88q-8 127 -80 193q-78 72 -211 72q-51 0 -111 -17q-57 -20 -94 -51q-41 -33 -65 -80q-25 -47 -25 -106q0 -49 17 -88q23 -43 55 -78q12 -12 8 -29q-6 -16 -23 -23q-29 -8 -63 -28q-35 -25 -53 -51q-10 -14 -19.5 -30.5t-17.5 -33.5 q-12 -35 -12 -70q0 -63 22 -112q12 -27 28.5 -48.5t37.5 -43.5q39 -41 92 -74q55 -35 110 -61v-3q29 -16 56.5 -30.5t56.5 -30.5t53.5 -31.5t46.5 -31.5q47 -33 78 -76t31 -99q0 -47 -18 -79q-23 -35 -50 -56q-29 -20 -67 -32q-33 -8 -72 -9q-104 0 -168 64q-51 53 -63 137 h-86q16 -121 90 -192q8 -8 14 -13q14 -12 8 -33q-5 -20 -28 -20h-326q-12 0 -21.5 9t-9.5 22z" />
<glyph unicode="&#xa8;" horiz-adv-x="794" d="M-31 31q0 12 9.5 21t21.5 9h795q12 0 21 -9t9 -21t-9 -21.5t-21 -9.5h-795q-12 0 -21.5 9t-9.5 22zM68 1137q0 57 38.5 97t96.5 40q57 0 96 -40t39 -97q0 -55 -39 -95.5t-96 -40.5t-96 40t-39 96zM129 1137q0 -31 21.5 -52.5t52.5 -21.5t52 21.5t21 52.5t-21 53t-52 22 t-52.5 -22.5t-21.5 -52.5zM457 1137q0 57 39 97t96 40t96 -40t39 -97q0 -55 -39 -95.5t-96 -40.5t-96 40t-39 96zM518 1137q0 -31 21.5 -52.5t52.5 -21.5t52.5 21.5t21.5 52.5t-21.5 53t-52.5 22t-52.5 -22.5t-21.5 -52.5z" />
<glyph unicode="&#xa9;" horiz-adv-x="2330" d="M-23 10v2v4v453v180v2q0 14 17 15h47v647q0 14 16 14h291q102 0 164 -57q53 -53 53 -156q0 -96 -53 -156q-55 -55 -162 -55h-2h-186v-237h450h2h48v464q0 14 16 15h78q18 0 18 -15v-464h45h2h113q-14 10 -25.5 22t-19.5 29q-16 31 -21 82q0 6 4 10q4 6 15 6h78 q14 0 14 -12q0 -23 10 -37q8 -16 25 -25q14 -12 33 -12q12 -4 23 -5t22 -1h19t17 4q10 2 17.5 3t15.5 3q8 4 13.5 9.5t11.5 9.5q4 8 4 26q0 25 -14 35q-10 8 -23.5 12t-30.5 11q-16 4 -34.5 8t-40.5 10q-18 4 -39 8t-39 12q-39 16 -62 46q-29 33 -28 81q0 41 20 72 q14 31 45 47q12 10 28.5 16.5t33.5 12.5q37 6 67 6q43 0 78 -6q37 -8 68 -27q29 -18 47 -53q10 -16 14 -36.5t6 -43.5q0 -4 -4 -12q-2 -4 -10 -4h-82q-10 0 -14 16q0 12 -9 29q-6 8 -10 12t-10 8q-8 4 -15.5 6.5t-17.5 4.5q-16 6 -35 6q-8 0 -15 -1t-17 -1q-8 -4 -15.5 -6.5 t-13.5 -6.5q-10 -4 -17 -12q-6 -4 -6 -20q0 -14 9 -21q14 -16 30 -18q12 -4 23.5 -8.5t25.5 -8.5q14 -2 27.5 -5t28.5 -7q16 -2 29.5 -6t29.5 -10q16 -4 29.5 -10.5t25.5 -14.5l20.5 -20.5t18.5 -24.5q16 -29 17 -66q0 -47 -23 -79q-16 -29 -39 -43h107h153q-8 8 -16 28 q-6 25 -6 58v288h-66q-14 0 -14 17v69q0 18 14 19h66v129q0 14 16 14h78q18 0 18 -14v-129h78q14 0 15 -19v-69q0 -16 -15 -17h-78v-280v-19l2 -2l11 -6h28h37q14 0 15 -14v-53h47h4h149q-10 6 -20 15t-19 19q-16 16 -28.5 38t-20.5 46q-8 23 -10 49.5t-2 53.5q0 29 2 54.5 t10 49.5q8 25 20.5 46.5t28.5 39.5q29 35 78 58q47 20 107 20q61 0 108 -20q49 -23 78 -58q16 -18 28.5 -39.5t18.5 -46.5q10 -25 13.5 -50.5t3.5 -53.5q0 -27 -3.5 -53.5t-13.5 -49.5q-6 -25 -18.5 -46t-28.5 -38q-8 -10 -18.5 -19t-20.5 -15h150q12 0 16 -15v-76v-106 v-152v-301q0 -16 -16 -16h-2h-154q-6 0 -10 10q0 10 8 10q4 2 7 4.5t7 4.5q31 14 47 34q23 18 29 50q6 16 8 31.5t2 31.5q0 39 -10 66q-6 27 -29 53q-20 20 -47 33q-29 14 -63 14q-20 0 -35.5 -4t-30.5 -10q-27 -12 -47 -33q-20 -27 -28 -53q-10 -27 -11 -66q0 -16 2 -31.5 t9 -31.5q10 -31 28 -50q16 -20 47 -34q4 -2 8.5 -4t8.5 -5q6 0 6 -10t-10 -10h-154h-164q-12 0 -12 10v150q0 35 8 59q4 23 23 47q16 18 41 29q10 4 21 7t26 3v37q-16 -4 -29.5 -7t-24.5 -11q-27 -14 -45 -56q-6 -6 -10 -6h-2q-10 0 -10 10v62h-29v-324q0 -10 -12 -10h-43 h-2h-139q-8 0 -13 10q0 10 8 10q10 4 20.5 8.5t18.5 12.5q29 23 41 65h-30q-10 -33 -31 -47q-29 -18 -66 -18q-14 0 -26.5 2t-22.5 6q-23 12 -37 29q-14 14 -24 39q-2 10 -3 21.5t-1 23.5q0 10 12 10h237q0 23 -6 51q-4 14 -8 28.5t-14 29.5q-16 29 -45 43q-23 18 -68 18 q-25 0 -57 -14q-29 -12 -43 -33q-18 -18 -33 -51q-10 -35 -10 -64q0 -33 10 -67q4 -16 11 -28.5t16 -25.5q23 -18 47 -32q4 0 8 -2t8 -5q6 0 6 -10q-6 -10 -12 -10h-147h-125q-4 0 -15 10q0 10 11 10q8 4 16 8.5t18 8.5q8 6 15.5 12t13.5 17q4 8 7 18t3 25q0 20 -8 34 q-6 6 -10 12.5t-10 10.5q-14 8 -35 14q-10 4 -19.5 7t-19.5 6q-10 2 -19.5 4t-19.5 4q-8 2 -16.5 4t-18.5 6t-17 8t-12 10q-14 14 -14 31q0 18 10 29q10 10 19 16q6 2 13 5t13 3q10 2 29 2q6 0 13.5 -1t15.5 -1q16 -6 26 -14q8 -2 12.5 -7t10.5 -11q2 -6 4 -10.5t4 -12.5h33 q-2 10 -4 19.5t-8 13.5q-8 20 -23 28q-25 14 -41 17q-10 2 -22.5 4t-26.5 2q-10 0 -20.5 -2t-20.5 -4q-10 -4 -19.5 -8t-17.5 -9q-14 -8 -26 -24q-6 -16 -7 -37q0 -33 13 -45q12 -16 37 -23q20 -12 49 -16q14 -2 27.5 -5t23.5 -7q14 -4 24.5 -8t20.5 -11q20 -16 20 -41 q0 -23 -10 -34q-4 -4 -9 -9.5t-13 -9.5q-16 -4 -29 -4q-8 -4 -15.5 -4h-13.5h-18t-19 4q-8 2 -15 4t-15 8q-6 4 -13.5 9.5t-11.5 13.5q-8 12 -8 24h-33q2 -10 4 -19t6 -17q6 -8 13.5 -15.5l15.5 -15.5q12 -6 37 -17q8 0 8 -10t-14 -10h-125h-2h-45q-10 0 -10 10v29l-5 -2 q-14 0 -22 8q-8 4 -9 14.5t-1 16.5v166v18q0 8 -2 21.5t-15 27.5q-29 31 -100 35q-35 0 -60.5 -10t-44.5 -27q-10 -12 -12 -26.5t-6 -24.5h33q6 33 31 49q20 12 47 12h8q16 0 34.5 -2t34.5 -16q16 -16 19 -39q4 -23 -8 -41q-6 -12 -26.5 -16t-53.5 -8q-20 -2 -36.5 -3.5 t-31.5 -7.5q-29 -10 -46 -27.5t-21 -58.5q-2 -20 4 -33.5t16 -23.5t25 -21q8 -2 8 -12q-2 -8 -12 -8h-97h-2h-170q-6 0 -10 10q0 10 8 10q33 12 62 37q43 43 55 117h-39q0 -14 -3 -24.5t-7 -22.5q-6 -14 -13.5 -25.5t-15.5 -21.5q-25 -20 -45 -29q-31 -10 -59 -10 q-43 0 -76 16t-51 45q-23 25 -29 64q-6 20 -8 39.5t-2 38.5q0 18 2 37.5t8 35.5q6 35 29 64q20 29 51 43q16 8 34.5 13t41.5 5q51 0 90 -28q35 -27 47 -70h39q-2 14 -7 25.5t-12 21.5q-16 29 -38 43q-10 8 -23.5 15.5t-30.5 11.5q-35 10 -65 10q-23 0 -46.5 -5t-41.5 -13 q-37 -16 -66 -50q-23 -29 -39 -73q-12 -43 -12 -90q0 -49 12 -93q6 -18 15.5 -36.5t21.5 -34.5q31 -31 62 -47q4 -2 10 -4t10 -5q8 0 8 -10q-6 -10 -10 -10h-180q-12 0 -13 10zM647 1255q0 29 20.5 50.5t49.5 21.5t51.5 -21.5t22.5 -50.5t-22.5 -50t-51.5 -21t-49.5 21.5 t-20.5 49.5z" />
<glyph unicode="&#xaa;" horiz-adv-x="747" d="M-31 31q0 14 9.5 22t21.5 8h748q12 0 21 -8t9 -22q0 -12 -9 -21.5t-21 -9.5h-748q-12 0 -21.5 9t-9.5 22zM109 983q0 47 16 84q18 33 49 55q29 18 64 31q16 4 32.5 7t32.5 7t32.5 6.5t33.5 4.5q14 2 26.5 4t22.5 4q14 6 24 12q4 4 4 12q0 18 -6 29q-6 8 -14 14 q-10 4 -27 9q-8 0 -16 1t-18 1q-43 0 -72 -17q-4 -2 -12.5 -11t-10.5 -38q0 -12 -9 -20.5t-21 -8.5h-82q-14 0 -23 9q-8 8 -8 22q2 53 23 92q25 41 57 64q31 20 76 33q39 8 88 8h34.5t36.5 -4q39 -6 70 -25q35 -18 55 -51q20 -35 21 -88v-258q0 -8 1 -14.5t1 -10.5q2 0 4 1 t6 1q12 6 27 -4q12 -6 12 -24v-64q0 -18 -14 -27q-29 -16 -74 -16q-47 0 -74 27q-8 8 -14 20q-12 -8 -24.5 -15t-24.5 -11q-49 -20 -111 -21q-39 0 -70 8q-37 8 -65 29q-27 20 -45 55q-14 31 -14 78zM170 983q0 -33 8 -51q6 -10 12.5 -18.5t14.5 -14.5q18 -12 43 -18t55 -7 q23 0 45.5 3.5t40.5 13.5q43 16 68 49q10 10 24 10q6 0 11 -2q20 -6 20 -28q0 -29 8 -35q8 -10 31 -11q20 0 27 3v8q-27 2 -36.5 16t-11.5 21q-2 10 -3 21t-1 28v258q0 35 -10 55q-12 20 -33 31q-23 12 -51 16q-16 4 -30.5 4h-30.5q-41 0 -74 -6q-16 -4 -30.5 -10t-24.5 -14 q-25 -14 -37 -41q-10 -16 -12 -33h20q8 29 21.5 45t27.5 24q43 25 103 25q10 0 21 -1t24 -3q25 -4 45 -14q25 -12 37 -37q16 -23 16 -60q0 -23 -8 -37t-17 -20q-16 -16 -49 -27q-12 -4 -27.5 -6t-31.5 -4q-14 -2 -29.5 -3t-32.5 -5v-2q-16 -2 -30.5 -5t-28.5 -7 q-12 -4 -23.5 -9.5t-21.5 -13.5q-16 -10 -29 -33q-10 -18 -10 -55z" />
<glyph unicode="&#xab;" horiz-adv-x="1802" d="M-31 31q0 14 9.5 22t21.5 8h612l-506 228q-16 10 -16 28v109q0 23 16 29l898 405q16 6 28 -2q14 -8 15 -24v-121q0 -20 -19 -29l-688 -311l682 -312h115h4h137l-506 228q-16 10 -16 28v109q0 23 16 29l897 405q16 6 29 -2q14 -8 14 -24v-121q0 -20 -18 -29l-688 -311 l682 -312h114q12 0 21.5 -8t9.5 -22q0 -12 -9 -21.5t-22 -9.5h-121q-4 0 -12 4l-749 340q-18 10 -19 29q0 18 19 26l731 334v51l-834 -376v-70l617 -279q23 -12 16 -34q-4 -25 -31 -25h-364h-4h-35q-4 0 -12 4l-750 340q-18 10 -18 29q0 18 18 26l731 334v51l-833 -376v-70 l616 -279q23 -12 16 -34q-4 -25 -30 -25h-754q-12 0 -21.5 9t-9.5 22z" />
<glyph unicode="&#xac;" horiz-adv-x="1054" d="M-31 31q0 31 31 30h88v103q0 12 9 21.5t22 9.5h602q-10 27 -31 53q-29 41 -78 80q-23 18 -48 35.5t-54 33.5q-29 18 -58.5 36t-58.5 34q-29 20 -57.5 39.5t-56.5 40.5q-29 23 -54.5 46t-48.5 50q-45 53 -72 121q-29 74 -28 158q0 94 35 170q16 35 38.5 65.5t51.5 54.5 q55 47 135 76q76 25 162 25q102 0 188 -35q84 -37 139 -102q55 -57 84 -152q12 -43 18.5 -89t2.5 -97q0 -12 -9.5 -20.5t-21.5 -8.5h-149q-10 0 -23 8q-8 8 -8 23q2 49 -10 104q-12 53 -39 90q-14 18 -29.5 34.5t-38.5 27.5q-37 25 -96 24q-23 0 -43.5 -4t-38.5 -10 q-39 -14 -68 -41q-29 -25 -43 -61q-18 -35 -18 -80q0 -59 18 -103q20 -47 56 -82q39 -41 94 -80q29 -20 63.5 -42.5t73.5 -47.5q33 -20 64.5 -40.5t62.5 -43.5q63 -49 113 -108q27 -31 47 -68t37 -78q14 -35 23 -77.5t16 -92.5h92q12 0 21 -8t9 -22q0 -12 -9 -21.5t-21 -9.5 h-121q-27 0 -31 29q-4 53 -13 98t-24 82q-14 37 -32.5 69.5t-40.5 59.5q-23 29 -48.5 52.5t-54.5 45.5q-59 43 -123 80q-41 27 -75.5 49.5t-63.5 42.5q-33 23 -58.5 44.5t-45.5 43.5q-45 47 -66 103q-12 27 -17 58.5t-5 66.5q0 59 20 106q27 49 59 80q18 18 41 30.5t47 22.5 q49 18 103 19q72 0 127 -33q53 -31 88 -80q33 -51 47 -111q8 -43 12 -88h90q0 37 -5 71t-15 67q-20 70 -70 129q-47 53 -118 84q-72 31 -164 30q-39 0 -74 -5t-70 -17q-68 -23 -112 -62q-49 -43 -76 -102q-29 -63 -29 -143q0 -76 23 -134q25 -61 63 -106q20 -23 43 -45.5 t49 -40.5q27 -20 54.5 -38.5t56.5 -37.5q29 -16 57.5 -34.5t57.5 -34.5q66 -39 110 -76q27 -20 48.5 -43t39.5 -47q39 -47 52 -115q2 -10 -7 -27q-10 -10 -24 -10h-610v-102q0 -12 -9.5 -21.5t-21.5 -9.5h-119q-14 0 -22.5 9t-8.5 22z" />
<glyph unicode="&#xad;" horiz-adv-x="858" d="M-31 31q0 12 9.5 21t21.5 9h858q12 0 21.5 -9t9.5 -21t-9.5 -21.5t-21.5 -9.5h-858q-12 0 -21.5 9t-9.5 22zM92 406v141q0 12 9.5 21.5t21.5 9.5h612q12 0 21.5 -9.5t9.5 -21.5v-141q0 -12 -9.5 -21.5t-21.5 -9.5h-612q-12 0 -21.5 9t-9.5 22zM154 436h551v80h-551v-80z " />
<glyph unicode="&#xae;" horiz-adv-x="1054" d="M-31 31q0 31 31 30h88v103q0 12 9 21.5t22 9.5h602q-10 27 -31 53q-29 41 -78 80q-23 18 -48 35.5t-54 33.5q-29 18 -58.5 36t-58.5 34q-29 20 -57.5 39.5t-56.5 40.5q-29 23 -54.5 46t-48.5 50q-45 53 -72 121q-29 74 -28 158q0 94 35 170q16 35 38.5 65.5t51.5 54.5 q55 47 135 76q76 25 162 25q102 0 188 -35q84 -37 139 -102q55 -57 84 -152q12 -43 18.5 -89t2.5 -97q0 -12 -9.5 -20.5t-21.5 -8.5h-149q-10 0 -23 8q-8 8 -8 23q2 49 -10 104q-12 53 -39 90q-14 18 -29.5 34.5t-38.5 27.5q-37 25 -96 24q-23 0 -43.5 -4t-38.5 -10 q-39 -14 -68 -41q-29 -25 -43 -61q-18 -35 -18 -80q0 -59 18 -103q20 -47 56 -82q39 -41 94 -80q29 -20 63.5 -42.5t73.5 -47.5q33 -20 64.5 -40.5t62.5 -43.5q63 -49 113 -108q27 -31 47 -68t37 -78q14 -35 23 -77.5t16 -92.5h92q12 0 21 -8t9 -22q0 -12 -9 -21.5t-21 -9.5 h-121q-27 0 -31 29q-4 53 -13 98t-24 82q-14 37 -32.5 69.5t-40.5 59.5q-23 29 -48.5 52.5t-54.5 45.5q-59 43 -123 80q-41 27 -75.5 49.5t-63.5 42.5q-33 23 -58.5 44.5t-45.5 43.5q-45 47 -66 103q-12 27 -17 58.5t-5 66.5q0 59 20 106q27 49 59 80q18 18 41 30.5t47 22.5 q49 18 103 19q72 0 127 -33q53 -31 88 -80q33 -51 47 -111q8 -43 12 -88h90q0 37 -5 71t-15 67q-20 70 -70 129q-47 53 -118 84q-72 31 -164 30q-39 0 -74 -5t-70 -17q-68 -23 -112 -62q-49 -43 -76 -102q-29 -63 -29 -143q0 -76 23 -134q25 -61 63 -106q20 -23 43 -45.5 t49 -40.5q27 -20 54.5 -38.5t56.5 -37.5q29 -16 57.5 -34.5t57.5 -34.5q66 -39 110 -76q27 -20 48.5 -43t39.5 -47q39 -47 52 -115q2 -10 -7 -27q-10 -10 -24 -10h-610v-102q0 -12 -9.5 -21.5t-21.5 -9.5h-119q-14 0 -22.5 9t-8.5 22z" />
<glyph unicode="&#xaf;" horiz-adv-x="1163" d="M-31 31q0 14 9.5 22t21.5 8h1163q12 0 21.5 -8t9.5 -22q0 -12 -9 -21.5t-22 -9.5h-1163q-12 0 -21.5 9t-9.5 22zM123 1399v141q0 12 9 21.5t22 9.5h864q12 0 21.5 -9.5t9.5 -21.5v-141q0 -12 -9.5 -21.5t-21.5 -9.5h-864q-12 0 -21.5 9t-9.5 22zM184 1430h803v79h-803 v-79z" />
<glyph unicode="&#xb0;" horiz-adv-x="768" d="M-31 31q0 12 8.5 21t22.5 9h768q12 0 21.5 -9t9.5 -21t-9.5 -21.5t-21.5 -9.5h-768q-14 0 -22.5 9t-8.5 22zM92 1055q0 29 5 57.5t18 54.5q20 51 61 93q39 39 92 63q57 23 115 23q59 0 115 -23q53 -25 92 -63q18 -20 34.5 -43t26.5 -50q25 -53 25 -112q0 -63 -25 -115 q-10 -29 -26.5 -51.5t-34.5 -42.5q-41 -41 -92 -62q-58 -22 -115 -22t-115 22q-53 20 -92 62q-41 41 -61 94q-12 27 -17.5 55.5t-5.5 59.5zM154 1055q0 -47 16 -92q20 -45 49 -74q33 -33 74 -47q43 -18 90 -19q49 0 90 19q39 14 72 47t51 76q18 39 18 90q0 47 -18 88 q-18 45 -51 74q-31 31 -72 49q-43 18 -90 18t-90 -18t-74 -49t-49 -74q-10 -20 -13 -43t-3 -45zM244 1055q0 29 10 49q10 27 27 43q18 18 45 31q25 12 57 12q31 0 59 -12q25 -12 43 -31q20 -20 29 -43q10 -27 10 -49q0 -25 -10 -51q-8 -18 -29 -43q-18 -18 -43 -31 q-22 -10 -59 -10q-16 0 -30.5 2t-26.5 8q-27 12 -45 31q-16 18 -27 43q-10 20 -10 51zM305 1055q0 -10 4 -27q6 -14 17 -24q6 -10 24 -17q12 -6 33 -6q18 0 35 6q16 8 22 17q10 6 17 24q6 12 6 27q0 10 -6 26q-8 16 -17 23q-4 6 -10 10l-12 8q-17 6 -35 6q-20 0 -33 -6 q-8 -4 -14 -8t-10 -10q-10 -10 -17 -23q-2 -8 -3 -14t-1 -12z" />
<glyph unicode="&#xb1;" horiz-adv-x="1132" d="M-31 31q0 31 31 30h92v91q0 12 8.5 21t22.5 9h352v226h-352q-14 0 -22.5 9t-8.5 21v121q0 12 8.5 21.5t22.5 9.5h352v262q0 12 9.5 21.5t21.5 9.5h121q12 0 21 -9.5t9 -21.5v-262h353q12 0 21 -9.5t9 -21.5v-121q0 -12 -9 -21t-21 -9h-353v-226h353q12 0 21 -9t9 -21v-91 h93q12 0 21 -8t9 -22q0 -12 -9 -21.5t-21 -9.5h-123q-12 0 -21.5 9t-9.5 22v90h-352q-31 0 -31 31v286q0 31 31 31h352v59h-352q-14 0 -22.5 9.5t-8.5 21.5v262h-59v-262q0 -12 -8.5 -21.5t-22.5 -9.5h-352v-59h352q31 0 31 -31v-286q0 -31 -31 -31h-352v-90 q0 -12 -9.5 -21.5t-21.5 -9.5h-123q-14 0 -22.5 9t-8.5 22z" />
<glyph unicode="&#xb2;" horiz-adv-x="1056" d="M-31 31q0 31 31 30h88v103q0 12 9 21.5t22 9.5h602q-10 27 -31 53q-29 41 -78 80q-23 18 -48 35.5t-54 33.5q-29 18 -58.5 36t-58.5 34q-29 20 -57.5 39.5t-56.5 40.5q-29 23 -54.5 46t-48.5 50q-45 53 -72 121q-29 74 -28 158q0 94 35 170q16 35 38.5 65.5t51.5 54.5 q55 47 135 76q76 25 162 25q102 0 188 -35q84 -37 139 -102q55 -57 84 -152q12 -43 18.5 -89t2.5 -97q0 -12 -9.5 -20.5t-21.5 -8.5h-149q-10 0 -23 8q-8 8 -8 23q2 49 -10 104q-12 53 -39 90q-14 18 -29.5 34.5t-38.5 27.5q-37 25 -96 24q-23 0 -43.5 -4t-38.5 -10 q-39 -14 -68 -41q-29 -25 -43 -61q-18 -35 -18 -80q0 -59 18 -103q20 -47 56 -82q39 -41 94 -80q29 -20 63.5 -42.5t73.5 -47.5q33 -20 64.5 -40.5t62.5 -43.5q63 -49 113 -108q27 -31 47 -68t37 -78q14 -35 23 -77.5t16 -92.5h92q12 0 21 -8t9 -22q0 -12 -9 -21.5t-21 -9.5 h-121q-27 0 -31 29q-4 53 -13 98t-24 82q-14 37 -32.5 69.5t-40.5 59.5q-23 29 -48.5 52.5t-54.5 45.5q-59 43 -123 80q-41 27 -75.5 49.5t-63.5 42.5q-33 23 -58.5 44.5t-45.5 43.5q-45 47 -66 103q-12 27 -17 58.5t-5 66.5q0 59 20 106q27 49 59 80q18 18 41 30.5t47 22.5 q49 18 103 19q72 0 127 -33q53 -31 88 -80q33 -51 47 -111q8 -43 12 -88h90q0 37 -5 71t-15 67q-20 70 -70 129q-47 53 -118 84q-72 31 -164 30q-39 0 -74 -5t-70 -17q-68 -23 -112 -62q-49 -43 -76 -102q-29 -63 -29 -143q0 -76 23 -134q25 -61 63 -106q20 -23 43 -45.5 t49 -40.5q27 -20 54.5 -38.5t56.5 -37.5q29 -16 57.5 -34.5t57.5 -34.5q66 -39 110 -76q27 -20 48.5 -43t39.5 -47q39 -47 52 -115q2 -10 -7 -27q-10 -10 -24 -10h-610v-102q0 -12 -9.5 -21.5t-21.5 -9.5h-119q-14 0 -22.5 9t-8.5 22z" />
<glyph unicode="&#xb3;" horiz-adv-x="1054" d="M-31 31q0 31 31 30h88v103q0 12 9 21.5t22 9.5h602q-10 27 -31 53q-29 41 -78 80q-23 18 -48 35.5t-54 33.5q-29 18 -58.5 36t-58.5 34q-29 20 -57.5 39.5t-56.5 40.5q-29 23 -54.5 46t-48.5 50q-45 53 -72 121q-29 74 -28 158q0 94 35 170q16 35 38.5 65.5t51.5 54.5 q55 47 135 76q76 25 162 25q102 0 188 -35q84 -37 139 -102q55 -57 84 -152q12 -43 18.5 -89t2.5 -97q0 -12 -9.5 -20.5t-21.5 -8.5h-149q-10 0 -23 8q-8 8 -8 23q2 49 -10 104q-12 53 -39 90q-14 18 -29.5 34.5t-38.5 27.5q-37 25 -96 24q-23 0 -43.5 -4t-38.5 -10 q-39 -14 -68 -41q-29 -25 -43 -61q-18 -35 -18 -80q0 -59 18 -103q20 -47 56 -82q39 -41 94 -80q29 -20 63.5 -42.5t73.5 -47.5q33 -20 64.5 -40.5t62.5 -43.5q63 -49 113 -108q27 -31 47 -68t37 -78q14 -35 23 -77.5t16 -92.5h92q12 0 21 -8t9 -22q0 -12 -9 -21.5t-21 -9.5 h-121q-27 0 -31 29q-4 53 -13 98t-24 82q-14 37 -32.5 69.5t-40.5 59.5q-23 29 -48.5 52.5t-54.5 45.5q-59 43 -123 80q-41 27 -75.5 49.5t-63.5 42.5q-33 23 -58.5 44.5t-45.5 43.5q-45 47 -66 103q-12 27 -17 58.5t-5 66.5q0 59 20 106q27 49 59 80q18 18 41 30.5t47 22.5 q49 18 103 19q72 0 127 -33q53 -31 88 -80q33 -51 47 -111q8 -43 12 -88h90q0 37 -5 71t-15 67q-20 70 -70 129q-47 53 -118 84q-72 31 -164 30q-39 0 -74 -5t-70 -17q-68 -23 -112 -62q-49 -43 -76 -102q-29 -63 -29 -143q0 -76 23 -134q25 -61 63 -106q20 -23 43 -45.5 t49 -40.5q27 -20 54.5 -38.5t56.5 -37.5q29 -16 57.5 -34.5t57.5 -34.5q66 -39 110 -76q27 -20 48.5 -43t39.5 -47q39 -47 52 -115q2 -10 -7 -27q-10 -10 -24 -10h-610v-102q0 -12 -9.5 -21.5t-21.5 -9.5h-119q-14 0 -22.5 9t-8.5 22z" />
<glyph unicode="&#xb4;" horiz-adv-x="589" d="M-31 31q0 12 9.5 21t21.5 9h590q12 0 21.5 -9t9.5 -21t-9.5 -21.5t-21.5 -9.5h-590q-12 0 -21.5 9t-9.5 22zM96 1368q-8 18 2 31l150 252q10 16 26 16h193q18 0 29 -18q6 -18 -7 -35l-231 -252q-6 -8 -22 -8h-113q-18 0 -27 14zM178 1415h45l174 191h-104z" />
<glyph unicode="&#xb5;" horiz-adv-x="1148" d="M-31 31q0 12 8.5 21t22.5 9h123q12 0 21.5 -9t9.5 -21v-318h88v318v909q0 31 30 31h150q12 0 21.5 -8.5t9.5 -22.5v-616q0 -72 41 -111q39 -41 112 -41q63 0 107 18q23 10 40 22.5t33 29.5q14 16 25.5 36.5t17.5 43.5q16 53 17 104v514q0 31 31 31h149q12 0 21.5 -8.5 t9.5 -22.5v-879h92q12 0 21.5 -9t9.5 -21t-9.5 -21.5t-21.5 -9.5h-123q-12 0 -21.5 9t-9.5 22v878h-88v-483q0 -66 -18 -123q-20 -59 -58 -100q-37 -45 -94 -68q-55 -25 -131 -24q-98 0 -157 59q-57 55 -58 154v585h-88v-878v-348q0 -12 -9 -21.5t-22 -9.5h-149 q-14 0 -22.5 9t-8.5 22v317h-92q-14 0 -22.5 9t-8.5 22z" />
<glyph unicode="&#xb6;" horiz-adv-x="1069" d="M-31 31q0 12 9.5 21t21.5 9h461v779q-35 2 -68 9t-61 17q-78 29 -127 76q-53 47 -82 113q-31 68 -31 141q0 188 119 293q115 102 313 102h422q12 0 21.5 -9t9.5 -21v-99q0 -12 -9.5 -21t-21.5 -9h-305v-1371h184q12 0 21.5 -9t9.5 -21t-9.5 -21.5t-21.5 -9.5h-215 q-12 0 -21 9t-9 22v1431q0 14 9 22.5t21 8.5h305v37h-391q-174 0 -274 -88q-96 -86 -96 -246q0 -63 24 -115q25 -53 68 -94q45 -39 106 -63q63 -25 140 -25q12 0 21 -8t9 -23v-837q0 -12 -9 -21.5t-21 -9.5h-492q-12 0 -21.5 9t-9.5 22zM795 31v1329q0 12 9 21.5t21 9.5h121 q12 0 21.5 -9.5t9.5 -21.5v-1299h92q12 0 21.5 -9t9.5 -21t-9.5 -21.5t-21.5 -9.5h-123q-14 0 -22.5 9t-8.5 22v1298h-59v-1298q0 -12 -9 -21.5t-22 -9.5q-12 0 -21 9t-9 22z" />
<glyph unicode="&#xb7;" horiz-adv-x="403" d="M-31 31q0 12 9.5 21t21.5 9h403q14 0 22.5 -9t8.5 -21t-8.5 -21.5t-22.5 -9.5h-403q-12 0 -21.5 9t-9.5 22zM66 522q0 57 39.5 97t97.5 40q55 0 95 -39.5t40 -97.5q0 -55 -40 -95t-95 -40q-57 0 -97 40t-40 95zM127 522q0 -31 22.5 -52t53.5 -21t52 21.5t21 51.5 q0 31 -21 53.5t-52 22.5t-53.5 -22.5t-22.5 -53.5z" />
<glyph unicode="&#xb8;" horiz-adv-x="565" d="M-31 20v5v2v2v8v2v2l2 2v2q0 2 2 2v2l2 2q0 2 2 2q0 2 3 2q2 0 2 2h2v2q4 0 6 2h4h231h70q12 0 21.5 -8t9.5 -22v-90v-27.5t-4 -30.5q-2 -16 -6.5 -29.5t-8.5 -27.5q-12 -29 -35 -47q-27 -20 -61 -21h-59v-43h94q27 0 55 13q27 12 51 36q10 12 20.5 27.5t18.5 36.5 q14 35 15 88v115q0 14 9 22t21 8h129q12 0 21.5 -8t9.5 -22q0 -12 -9 -21.5t-22 -9.5h-98v-84q0 -63 -18 -113q-23 -49 -52 -82q-33 -33 -71 -51q-43 -16 -80 -16h-125q-12 0 -21.5 8t-9.5 23v104q0 14 9.5 22.5t21.5 8.5h90q12 0 22 6q10 10 17 24q8 18 12 41q2 12 2 24.5 v25.5v59h-264q-2 0 -4 2h-2h-2h-2l-2 2h-2h-2q0 2 -2 2l-2 2l-5 4l-2 2q0 2 -2 2v2v2h-2z" />
<glyph unicode="&#xb9;" horiz-adv-x="1054" d="M-31 31q0 31 31 30h88v103q0 12 9 21.5t22 9.5h602q-10 27 -31 53q-29 41 -78 80q-23 18 -48 35.5t-54 33.5q-29 18 -58.5 36t-58.5 34q-29 20 -57.5 39.5t-56.5 40.5q-29 23 -54.5 46t-48.5 50q-45 53 -72 121q-29 74 -28 158q0 94 35 170q16 35 38.5 65.5t51.5 54.5 q55 47 135 76q76 25 162 25q102 0 188 -35q84 -37 139 -102q55 -57 84 -152q12 -43 18.5 -89t2.5 -97q0 -12 -9.5 -20.5t-21.5 -8.5h-149q-10 0 -23 8q-8 8 -8 23q2 49 -10 104q-12 53 -39 90q-14 18 -29.5 34.5t-38.5 27.5q-37 25 -96 24q-23 0 -43.5 -4t-38.5 -10 q-39 -14 -68 -41q-29 -25 -43 -61q-18 -35 -18 -80q0 -59 18 -103q20 -47 56 -82q39 -41 94 -80q29 -20 63.5 -42.5t73.5 -47.5q33 -20 64.5 -40.5t62.5 -43.5q63 -49 113 -108q27 -31 47 -68t37 -78q14 -35 23 -77.5t16 -92.5h92q12 0 21 -8t9 -22q0 -12 -9 -21.5t-21 -9.5 h-121q-27 0 -31 29q-4 53 -13 98t-24 82q-14 37 -32.5 69.5t-40.5 59.5q-23 29 -48.5 52.5t-54.5 45.5q-59 43 -123 80q-41 27 -75.5 49.5t-63.5 42.5q-33 23 -58.5 44.5t-45.5 43.5q-45 47 -66 103q-12 27 -17 58.5t-5 66.5q0 59 20 106q27 49 59 80q18 18 41 30.5t47 22.5 q49 18 103 19q72 0 127 -33q53 -31 88 -80q33 -51 47 -111q8 -43 12 -88h90q0 37 -5 71t-15 67q-20 70 -70 129q-47 53 -118 84q-72 31 -164 30q-39 0 -74 -5t-70 -17q-68 -23 -112 -62q-49 -43 -76 -102q-29 -63 -29 -143q0 -76 23 -134q25 -61 63 -106q20 -23 43 -45.5 t49 -40.5q27 -20 54.5 -38.5t56.5 -37.5q29 -16 57.5 -34.5t57.5 -34.5q66 -39 110 -76q27 -20 48.5 -43t39.5 -47q39 -47 52 -115q2 -10 -7 -27q-10 -10 -24 -10h-610v-102q0 -12 -9.5 -21.5t-21.5 -9.5h-119q-14 0 -22.5 9t-8.5 22z" />
<glyph unicode="&#xba;" d="M-31 31q0 12 9.5 21t21.5 9h285q-23 16 -41.5 32t-34.5 36q-59 70 -90 160q-31 92 -31 196q0 106 31 199q31 94 90 162q61 72 151 108q88 41 203 41t203 -41q86 -35 149 -108q61 -68 91 -162q31 -92 30 -199q0 -104 -30 -196q-27 -90 -91 -160q-16 -20 -34.5 -35.5 t-38.5 -32.5h284q12 0 21.5 -9t9.5 -21t-9 -21.5t-22 -9.5h-417q-27 0 -31 27q-4 25 20 34q29 6 43 15q78 35 127 92q51 61 80 141q27 78 27 176q0 100 -27 181q-29 82 -80 139q-47 59 -127 94t-178 35t-178 -35q-78 -35 -129 -94q-53 -59 -78 -139q-29 -86 -28 -181 q0 -47 7 -91t19 -85q27 -80 80 -141q51 -59 129 -92q10 -4 20.5 -7t20.5 -8q27 -10 23 -34q-4 -27 -31 -27h-418q-12 0 -21.5 9t-9.5 22z" />
<glyph unicode="&#xbb;" horiz-adv-x="1806" d="M-31 31q0 14 9.5 22t21.5 8h115l682 312l-688 311q-18 8 -19 29v121q0 14 14 24q12 10 29 2l899 -405q16 -6 17 -29v-109q0 -18 -17 -28l-506 -228h138h4h112l684 312l-690 311q-16 10 -16 29v121q0 14 12 24q14 8 31 2l897 -405q18 -6 18 -29v-109q0 -18 -18 -28 l-506 -228h614q12 0 21.5 -8t9.5 -22q0 -12 -9 -21.5t-22 -9.5h-755q-27 0 -31 25q-6 23 16 34l619 279v70l-836 376v-51l733 -334q16 -6 17 -26q0 -18 -17 -29l-751 -340q-8 -4 -13 -4h-34h-4h-367q-25 0 -31 25q-4 25 19 34l616 279v70l-835 376v-51l733 -334 q18 -8 18 -26t-18 -29l-752 -340q-8 -4 -12 -4h-121q-12 0 -21.5 9t-9.5 22z" />
<glyph unicode="&#xbc;" horiz-adv-x="2697" d="M-31 31q0 14 9.5 22t21.5 8h414v836h-293q-14 0 -22.5 9t-8.5 22v121q0 12 8 21t23 9q29 0 59.5 2t59.5 6q27 4 51 13.5t47 19.5q43 27 72 64q29 41 41 104q4 25 28 25h115q31 0 31 -31v-1221h90q12 0 21 -8t9 -22q0 -12 -9 -21.5t-21 -9.5h-121q-12 0 -21.5 9t-9.5 22 v1220h-57q-14 -61 -47 -102q-35 -51 -92 -82q-27 -14 -56.5 -24.5t-62.5 -14.5q-23 -4 -47.5 -6t-48.5 -4v-60h292q12 0 21.5 -9t9.5 -21v-897q0 -12 -9 -21.5t-22 -9.5h-444q-12 0 -21.5 9t-9.5 22zM684 31q0 12 9.5 21t21.5 9h98l514 1299q6 18 29 18h129q14 0 25 -12 q10 -12 2 -29l-504 -1276h596q12 0 21.5 -9t9.5 -21t-9.5 -21.5t-21.5 -9.5h-641q-18 0 -27 12q-8 14 -2 29l504 1276h-61l-515 -1299q-8 -18 -26 -18h-121q-12 0 -21.5 9t-9.5 22zM1573 31q0 14 9.5 22t21.5 8h633v234h-518q-12 0 -21.5 8t-9.5 23v143q0 8 6 18l569 813 q8 12 25 13h121q12 0 21.5 -8.5t9.5 -22.5v-795h139q12 0 21.5 -9t9.5 -21v-131q0 -14 -9.5 -22.5t-21.5 -8.5h-139v-234h258q31 0 30 -30q0 -12 -8 -21.5t-22 -9.5h-289q-12 0 -21.5 9t-9.5 22v295q0 12 9.5 21t21.5 9h139v70h-139q-12 0 -21.5 9t-9.5 22v794h-74 l-555 -792v-103h519q12 0 21 -9t9 -21v-295q0 -12 -9 -21.5t-21 -9.5h-664q-12 0 -21.5 9t-9.5 22z" />
<glyph unicode="&#xbd;" horiz-adv-x="2660" d="M-31 31q0 14 9.5 22t21.5 8h414v836h-293q-14 0 -22.5 9t-8.5 22v121q0 12 8 21t23 9q29 0 59.5 2t59.5 6q27 4 51 13.5t47 19.5q43 27 72 64q29 41 41 104q4 25 28 25h115q31 0 31 -31v-1221h90q12 0 21 -8t9 -22q0 -12 -9 -21.5t-21 -9.5h-121q-12 0 -21.5 9t-9.5 22 v1220h-57q-14 -61 -47 -102q-35 -51 -92 -82q-27 -14 -56.5 -24.5t-62.5 -14.5q-23 -4 -47.5 -6t-48.5 -4v-60h292q12 0 21.5 -9t9.5 -21v-897q0 -12 -9 -21.5t-22 -9.5h-444q-12 0 -21.5 9t-9.5 22zM684 31q0 12 9.5 21t21.5 9h98l514 1299q6 18 29 18h129q14 0 25 -12 q10 -12 2 -29l-504 -1276h596q12 0 21.5 -9t9.5 -21t-9.5 -21.5t-21.5 -9.5h-641q-18 0 -27 12q-8 14 -2 29l504 1276h-61l-515 -1299q-8 -18 -26 -18h-121q-12 0 -21.5 9t-9.5 22zM1573 31q0 14 9.5 22t21.5 8h92q4 49 14.5 92.5t24.5 79.5q16 41 36.5 77t47.5 67 q25 31 52.5 58.5t60.5 49.5q66 47 127 84q41 25 74.5 47.5t64.5 42.5q29 20 52.5 40t41.5 40q35 37 53 82q18 43 19 103q0 43 -17 80q-18 39 -45 61q-25 25 -67 41q-18 6 -39 10t-43 4q-57 0 -96 -24q-20 -10 -37 -26.5t-31 -35.5q-27 -39 -39 -90q-14 -53 -10 -102 q0 -14 -8 -23q-10 -10 -23 -10h-149q-12 0 -21.5 8t-9.5 21q-6 104 20 188q29 90 82 152q61 66 142 100q86 35 188 35q88 0 162 -25q78 -25 135 -76q57 -49 92 -120q33 -72 33 -168q0 -92 -27 -160q-29 -70 -73 -121q-43 -53 -103 -96q-29 -20 -56.5 -40t-57.5 -38v-2 q-29 -16 -59 -33.5t-58 -36.5q-29 -16 -54.5 -33.5t-48.5 -35.5q-49 -39 -77 -80q-20 -27 -31 -53h602q14 0 22.5 -9.5t8.5 -21.5v-103h90q12 0 21 -8t9 -22q0 -12 -9 -21.5t-21 -9.5h-121q-12 0 -21.5 9t-9.5 22v102h-610q-14 0 -25 10q-8 12 -6 27q12 66 51 117 q18 23 40 45t48 43q25 20 52.5 39.5t58.5 36.5q29 16 57.5 34.5t57.5 34.5q29 18 56.5 36.5t53.5 39.5q51 39 92 86q20 23 36 50.5t28 55.5q12 29 17.5 63t5.5 73q0 82 -27 141q-14 31 -33.5 55.5t-42.5 46.5q-49 39 -115 62q-35 12 -69.5 17t-73.5 5q-94 0 -164 -30 q-72 -31 -119 -84q-49 -59 -69 -129q-20 -61 -21 -138h90q2 45 13 88q14 59 47 111q33 47 88 80t127 33q55 0 104 -19q51 -18 86 -51q37 -35 60 -82q23 -49 22 -106q0 -68 -22 -125q-20 -55 -66 -103q-23 -23 -48.5 -44t-55.5 -44q-31 -20 -66 -42.5t-76 -47.5v-2 q-66 -37 -122 -80q-29 -23 -54.5 -46t-48.5 -52q-45 -51 -74 -127q-31 -74 -36 -182q-2 -10 -11.5 -19.5t-19.5 -9.5h-121q-12 0 -21.5 9t-9.5 22z" />
<glyph unicode="&#xbe;" horiz-adv-x="3069" d="M-31 31q0 14 9.5 22t21.5 8h250q-10 8 -19.5 16.5t-19.5 16.5q-61 57 -92 139q-31 86 -29 185q0 14 9.5 22.5t21.5 8.5h149q12 0 21.5 -8.5t9.5 -20.5q2 -111 64 -180q57 -66 172 -66q53 0 94 14q47 16 76 43q31 23 51 66q20 35 20 88q0 49 -18 90q-18 39 -49 66 q-29 27 -74 39q-41 14 -94 14q-45 0 -88 -6q-14 0 -23 8q-10 8 -10 22v127q0 14 10 25q12 8 27 6h8h51q20 0 41 2t39 8q37 12 68 35q29 25 43 53q16 37 16 74q0 88 -53 127q-53 45 -140 45q-55 0 -90 -20q-39 -18 -63 -49q-27 -33 -39 -76q-12 -47 -12 -96q0 -12 -9.5 -21.5 t-21.5 -9.5h-150q-12 0 -22 10t-8 23q4 96 30 172q29 82 78 137q53 59 131 90q74 33 176 33q90 0 160 -21q76 -20 131 -67q55 -41 90 -115q31 -68 31 -162q0 -96 -55 -170q-29 -41 -76 -73q80 -33 125 -101q59 -90 59 -213q0 -102 -36 -178q-35 -74 -101 -129q-8 -6 -15 -11 t-14 -12h256q12 0 21.5 -8t9.5 -22q0 -12 -9.5 -21.5t-21.5 -9.5h-399q-27 0 -31 27t23 34q4 2 7 2t7 3q37 10 68 26.5t59 38.5q53 43 84 109q31 63 31 151q0 102 -49 180q-47 70 -152 95q-25 4 -24 28v4q0 18 18 29q70 33 111 88q43 57 43 133q0 82 -27 137q-23 53 -70 93 q-45 35 -110 55q-68 18 -144 18q-90 0 -151 -26q-66 -27 -109 -76t-67 -117q-18 -55 -25 -123h86q2 23 6 42.5t9 39.5q16 57 49 96q33 43 84 68q51 27 118 27q104 0 179 -58q76 -59 75 -176q0 -55 -22 -100q-25 -45 -62 -76q-18 -14 -39.5 -25.5t-46.5 -17.5q-23 -8 -48 -11 t-50 -3h-35v-62q14 2 28.5 2h31.5q57 0 112 -16q59 -20 97 -51q39 -35 63 -86q25 -53 25 -117q0 -68 -27 -115q-25 -51 -65 -86q-39 -33 -97 -53q-55 -18 -114 -18q-143 0 -220 86q-68 80 -75 188h-90q4 -74 24 -131q14 -35 32.5 -64.5t43.5 -52.5q51 -47 121 -71 q6 -2 11 -3.5t11 -3.5q27 -8 23 -34q-4 -27 -31 -27h-387q-12 0 -21.5 9t-9.5 22zM1056 31q0 12 9.5 21t21.5 9h98l514 1299q6 18 29 18h129q14 0 25 -12q10 -12 2 -29l-504 -1276h596q12 0 21.5 -9t9.5 -21t-9.5 -21.5t-21.5 -9.5h-641q-18 0 -27 12q-8 14 -2 29l504 1276 h-61l-515 -1299q-8 -18 -26 -18h-121q-12 0 -21.5 9t-9.5 22zM1945 31q0 14 9.5 22t21.5 8h633v234h-518q-12 0 -21.5 8t-9.5 23v143q0 8 6 18l569 813q8 12 25 13h121q12 0 21.5 -8.5t9.5 -22.5v-795h139q12 0 21.5 -9t9.5 -21v-131q0 -14 -9.5 -22.5t-21.5 -8.5h-139v-234 h258q31 0 30 -30q0 -12 -8 -21.5t-22 -9.5h-289q-12 0 -21.5 9t-9.5 22v295q0 12 9.5 21t21.5 9h139v70h-139q-12 0 -21.5 9t-9.5 22v794h-74l-555 -792v-103h519q12 0 21 -9t9 -21v-295q0 -12 -9 -21.5t-21 -9.5h-664q-12 0 -21.5 9t-9.5 22z" />
<glyph unicode="&#xbf;" horiz-adv-x="1308" d="M-31 31q0 12 9.5 21t21.5 9h88v13q0 57 12 104q12 49 37 86q10 20 23.5 37.5t29.5 34.5q14 16 27.5 29.5t30.5 29.5q27 23 55 54q25 25 47 53q18 27 31 61q12 31 12 70v49q0 12 8.5 21.5t22.5 9.5h149q12 0 21.5 -9.5t9.5 -21.5v-61v-3q-2 -78 -31 -137q-25 -55 -63 -100 q-16 -23 -34.5 -41t-39.5 -37q-18 -16 -34.5 -33.5t-32.5 -36.5q-16 -18 -26.5 -34.5t-18.5 -34.5q-8 -20 -11.5 -43t-5.5 -41v-19.5t2 -27.5q4 -23 9.5 -49.5t15.5 -46.5q27 -61 67 -101q45 -39 109 -61q68 -23 139 -23q86 0 154 31q63 27 117 82q45 49 71 121q4 12 7 24.5 t8 26.5v2q12 57 12 104q0 12 9 21.5t22 9.5h151q12 0 20.5 -9t10.5 -22q0 -43 -6 -82h84q14 0 22 -9t8 -21t-8 -21.5t-22 -9.5h-119q-14 0 -25 10q-8 12 -6 27q4 18 6 36.5t2 39.5h-88q-2 -23 -6 -44.5t-8 -43.5v-5q-4 -14 -8 -27l-8 -26q-27 -82 -84 -145 q-29 -31 -63 -54.5t-75 -41.5q-82 -35 -178 -35q-86 0 -160 24q-76 29 -129 76q-53 49 -84 121q-10 29 -17 60.5t-9 54.5q-4 20 -4 31.5v21.5v2q0 10 3 42t17 62q10 25 22.5 45.5t33.5 42.5q16 18 34.5 38t38.5 36q16 16 35 34.5t35 37.5q31 37 53 88q23 47 25 113v30h-88 v-18q0 -47 -17 -90q-16 -43 -39 -76q-12 -16 -24.5 -31.5t-28.5 -29.5q-12 -14 -26.5 -27.5t-28.5 -28.5q-33 -31 -55 -57q-12 -14 -23.5 -28.5t-22.5 -31.5q-18 -29 -30 -71q-6 -20 -8 -42t-2 -46v-41q2 -10 -7 -23q-10 -10 -24 -10h-119q-12 0 -21.5 9t-9.5 22zM360 899 q0 55 40 95t96 40q57 0 96 -40t39 -95q0 -57 -39 -97t-96 -40q-55 0 -95.5 40t-40.5 97zM422 899q0 -31 21.5 -53.5t52.5 -22.5t52 22.5t21 53.5t-21 52.5t-52 21.5t-52.5 -21.5t-21.5 -52.5z" />
<glyph unicode="&#xc0;" horiz-adv-x="1363" d="M-31 31q0 14 9.5 22t21.5 8h100l465 1239q10 20 31 21h192q18 0 29 -21l449 -1239h98q12 0 21.5 -8t9.5 -22q0 -12 -9.5 -21.5t-21.5 -9.5h-119q-20 0 -31 20l-448 1240h-150l-466 -1240q-6 -20 -29 -20h-121q-12 0 -21.5 9t-9.5 22zM360 1663q6 16 29 16h191 q18 0 26 -14l152 -252q6 -14 0 -31q-10 -16 -27 -16h-113q-12 0 -22 10l-229 252q-12 16 -7 35zM459 1618l174 -191h43l-113 191h-104z" />
<glyph unicode="&#xc1;" horiz-adv-x="1363" d="M-31 31q0 14 9.5 22t21.5 8h100l465 1239q10 20 31 21h192q18 0 29 -21l449 -1239h98q12 0 21.5 -8t9.5 -22q0 -12 -9.5 -21.5t-21.5 -9.5h-119q-20 0 -31 20l-448 1240h-150l-466 -1240q-6 -20 -29 -20h-121q-12 0 -21.5 9t-9.5 22zM547 1389q-8 18 2 30l149 252 q10 16 27 17h193q18 0 28 -19q6 -18 -6 -35l-231 -252q-7 -8 -23 -8h-113q-18 0 -26 15zM629 1436h45l174 190h-105z" />
<glyph unicode="&#xc2;" horiz-adv-x="1363" d="M-31 31q0 14 9.5 22t21.5 8h100l465 1239q10 20 31 21h192q18 0 29 -21l449 -1239h98q12 0 21.5 -8t9.5 -22q0 -12 -9.5 -21.5t-21.5 -9.5h-119q-20 0 -31 20l-448 1240h-150l-466 -1240q-6 -20 -29 -20h-121q-12 0 -21.5 9t-9.5 22zM406 1391q-8 18 4 30l178 252 q10 14 26 15h164q14 0 25 -15l182 -252q12 -14 2 -30q-6 -17 -26 -17h-148q-18 0 -25 12l-98 136l-98 -136q-10 -12 -25 -12h-133q-18 0 -28 17zM494 1436h59l113 155q8 12 24 13q16 0 27 -13l110 -155h72l-137 190h-133z" />
<glyph unicode="&#xc3;" horiz-adv-x="1363" d="M-31 31q0 14 9.5 22t21.5 8h100l465 1239q10 20 31 21h192q18 0 29 -21l449 -1239h98q12 0 21.5 -8t9.5 -22q0 -12 -9.5 -21.5t-21.5 -9.5h-119q-20 0 -31 20l-448 1240h-150l-466 -1240q-6 -20 -29 -20h-121q-12 0 -21.5 9t-9.5 22zM356 1405q4 20 11.5 39.5t15.5 38.5 q16 37 39 67q31 35 61 52q37 18 86 18q41 0 78 -12q37 -10 66 -25q16 -6 29.5 -12t29.5 -12q18 -8 45 -9q14 0 19.5 4.5t9.5 8.5q16 25 22 45q10 20 31 20h90q14 0 25 -10q8 -12 6 -25q-10 -86 -59 -155l-3 -2q-14 -16 -30.5 -26.5t-34.5 -20.5q-41 -18 -96 -19 q-31 0 -64 12q-35 12 -65 27q-16 4 -30.5 10t-31.5 11q-27 10 -45 10q-25 0 -37 -13q-14 -14 -16 -36q-6 -25 -31 -25h-92q-14 0 -25 10q-10 14 -4 29zM426 1427h27q6 14 13 24.5t17 21.5q33 29 78 28q31 0 66 -12q16 -6 31.5 -12.5t31.5 -12.5h2q16 -6 30.5 -12t29.5 -12 q14 -4 24 -6t21 -2q45 0 69 12q27 12 45 31q16 23 25.5 45t15.5 47h-32q-8 -18 -25 -39q-25 -39 -78 -39q-37 0 -67 14q-31 8 -62 25q-33 14 -59 22q-25 8 -60 9q-33 0 -57 -13q-23 -12 -41 -33q-16 -20 -33 -55z" />
<glyph unicode="&#xc4;" horiz-adv-x="1363" d="M-31 31q0 14 9.5 22t21.5 8h100l465 1239q10 20 31 21h192q18 0 29 -21l449 -1239h98q12 0 21.5 -8t9.5 -22q0 -12 -9.5 -21.5t-21.5 -9.5h-119q-20 0 -31 20l-448 1240h-150l-466 -1240q-6 -20 -29 -20h-121q-12 0 -21.5 9t-9.5 22zM362 1481q0 57 39 97t97 40 q57 0 96 -40t39 -97q0 -55 -39 -95t-96 -40t-96.5 39.5t-39.5 95.5zM424 1481q0 -31 21.5 -52.5t52.5 -21.5t52 21.5t21 52.5t-21 53t-52 22t-52.5 -22.5t-21.5 -52.5zM752 1481q0 57 38.5 97t96.5 40q57 0 96 -40t39 -97q0 -55 -39 -95t-96 -40t-96 39.5t-39 95.5z M813 1481q0 -31 21.5 -52.5t52.5 -21.5t52.5 21.5t21.5 52.5t-21.5 53t-52.5 22t-52.5 -22.5t-21.5 -52.5z" />
<glyph unicode="&#xc5;" horiz-adv-x="1363" d="M-31 31q0 14 9.5 22t21.5 8h100l465 1239q10 20 31 21h192q18 0 29 -21l449 -1239h98q12 0 21.5 -8t9.5 -22q0 -12 -9.5 -21.5t-21.5 -9.5h-119q-20 0 -31 20l-448 1240h-150l-466 -1240q-6 -20 -29 -20h-121q-12 0 -21.5 9t-9.5 22zM461 1599q0 45 18 89q18 39 47 71 q29 33 74 51q39 18 88 19q47 0 90 -19q41 -18 72 -49q31 -35 49 -73q18 -43 19 -89q0 -47 -19 -90q-18 -41 -49 -71q-29 -31 -72 -52q-43 -18 -90 -18q-49 0 -88 18q-23 10 -40 22.5t-34 29.5q-29 33 -47 71q-18 43 -18 90zM522 1599q0 -35 13 -65q16 -33 36 -53 q20 -25 54 -37q35 -14 63 -14q16 0 32.5 4t33.5 10q27 10 53 37q20 20 37 53q12 31 12 65q0 33 -12 64q-16 33 -37 53q-25 25 -53 37q-29 14 -66 14q-35 0 -63 -14q-31 -12 -54 -35q-23 -25 -36 -55q-12 -31 -13 -64zM590 1599q0 43 28 70q29 29 70 29q39 0 72 -29 q29 -29 28 -70q0 -43 -28 -71q-33 -29 -72 -29q-41 0 -70 29q-29 27 -28 71zM651 1599q0 -18 11 -28q10 -10 26 -10t27 10q12 12 12 28q0 14 -12 27q-11 10 -27 10t-26 -10t-11 -27z" />
<glyph unicode="&#xc6;" horiz-adv-x="1757" d="M-31 31q0 14 9.5 22t21.5 8h100l465 1239q10 20 31 21h55h103h886q23 -8 23 -31v-139q0 -14 -9 -22.5t-22 -8.5h-671v-215l45 -125h577q14 0 22.5 -9t8.5 -21v-142q0 -12 -8.5 -21t-22.5 -9h-504l135 -375h422q12 0 21.5 -8.5t9.5 -22.5v-111h90q12 0 21.5 -8t9.5 -22 q0 -12 -9.5 -21.5t-21.5 -9.5h-121q-12 0 -21 9t-9 22v110h-369h-66l-22 62l-135 375l-23 61h66h495v80h-524h-65l-64 176v180v76q0 12 8 21.5t23 9.5h672v78h-771h-26h-12h-62h-115l-466 -1240q-6 -20 -29 -20h-121q-12 0 -21.5 9t-9.5 22z" />
<glyph unicode="&#xc7;" horiz-adv-x="1474" d="M-31 31q0 12 9.5 21t21.5 9h369q-41 27 -78 59t-66 73q-35 45 -59.5 97t-40.5 111q-35 121 -35 256q0 139 41 267q41 127 119 221q82 98 199 151q59 27 125.5 41.5t142.5 14.5q100 0 196 -29q92 -29 166 -82q72 -53 123 -137q51 -86 64 -189q2 -16 -6 -24 q-10 -10 -23 -10h-168q-25 0 -31 24q-25 121 -112 182q-90 61 -211 62q-100 0 -178 -39q-76 -41 -121 -104q-49 -68 -74 -154q-23 -94 -23 -182q0 -104 25 -197q20 -88 72 -158q45 -63 121 -104q76 -39 180 -39q76 0 135 25q57 25 102 69q41 45 66 105q25 66 31 137 q0 10 9 19.5t21 9.5h168q12 0 23 -11q8 -10 8 -24q-29 -244 -172 -385q-29 -29 -72 -56h70q14 0 22.5 -9t8.5 -21v-90v-28.5t-2 -29.5q-4 -16 -7.5 -30.5t-9.5 -28.5q-12 -29 -35 -45q-23 -20 -61 -21h-57v-45h92q27 0 55 13q27 12 51 36q12 12 21.5 28.5t17.5 35.5 q16 39 17 88v117q0 12 8 21t22 9h226q12 0 21 -9t9 -21t-9 -21.5t-21 -9.5h-195v-86q0 -59 -20 -111q-10 -25 -22.5 -45t-29.5 -37q-33 -37 -71 -51q-41 -18 -80 -18h-123q-14 0 -22.5 9t-8.5 22v106q0 12 8.5 21.5t22.5 9.5h88q16 0 22 6q12 12 17 22q8 18 12 41 q2 14 2 26.5v25.5v59h-176h-4h-2h-2q-2 0 -2 2h-2q-2 0 -2 2h-2h-2q0 2 -2 2l-5 4q0 2 -2 2v2q0 2 -2 2v2v2q-2 0 -2 5v2v10v2l2 2v2q0 2 2 2v2l2 2l3 2v2h2v2h2q2 0 2 2h2l4 2q104 31 176 103q119 113 149 313h-106q-6 -70 -31 -127q-29 -74 -80 -125q-51 -55 -120 -82 q-72 -31 -160 -30q-117 0 -207 45q-86 45 -145 123q-53 74 -82 178q-25 100 -25 213q0 106 27 198q27 100 80 172q59 78 143 123q88 47 207 47q143 0 248 -73q94 -66 131 -195h106q-16 76 -51 131q-20 35 -47 64.5t-60 54.5q-68 47 -147 72q-41 12 -86 19t-92 7 q-131 0 -244 -51q-104 -47 -176 -133q-35 -43 -62.5 -92t-46.5 -109q-37 -115 -36 -248q0 -131 30 -237q33 -111 92 -191t154 -133q20 -10 44 -19t46 -18q27 -8 23 -32q-4 -27 -31 -27h-510q-12 0 -21.5 9t-9.5 22z" />
<glyph unicode="&#xc8;" horiz-adv-x="1114" d="M-31 31q0 31 31 30h88v1229q0 14 9 22.5t22 8.5h870q12 0 21.5 -8t9.5 -23v-141q0 -12 -9.5 -21.5t-21.5 -9.5h-672v-338h625q12 0 21.5 -9t9.5 -21v-142q0 -12 -9.5 -21t-21.5 -9h-625v-375h678q12 0 21.5 -8.5t9.5 -22.5v-111h88q12 0 21.5 -8t9.5 -22 q0 -12 -9.5 -21.5t-21.5 -9.5h-119q-14 0 -22 9t-8 22v110h-678q-12 0 -21.5 9.5t-9.5 21.5v436q0 12 9 21.5t22 9.5h624v80h-624q-12 0 -21.5 9t-9.5 22v399q0 14 9 22.5t22 8.5h671v80h-808v-1229q0 -12 -8.5 -21.5t-22.5 -9.5h-119q-14 0 -22.5 9t-8.5 22zM299 1663 q6 16 29 16h190q18 0 27 -14l151 -252q6 -14 0 -31q-10 -16 -26 -16h-113q-12 0 -22 10l-230 252q-12 16 -6 35zM397 1618l174 -191h43l-112 191h-105z" />
<glyph unicode="&#xc9;" horiz-adv-x="1114" d="M-31 31q0 31 31 30h88v1229q0 14 9 22.5t22 8.5h870q12 0 21.5 -8t9.5 -23v-141q0 -12 -9.5 -21.5t-21.5 -9.5h-672v-338h625q12 0 21.5 -9t9.5 -21v-142q0 -12 -9.5 -21t-21.5 -9h-625v-375h678q12 0 21.5 -8.5t9.5 -22.5v-111h88q12 0 21.5 -8t9.5 -22 q0 -12 -9.5 -21.5t-21.5 -9.5h-119q-14 0 -22 9t-8 22v110h-678q-12 0 -21.5 9.5t-9.5 21.5v436q0 12 9 21.5t22 9.5h624v80h-624q-12 0 -21.5 9t-9.5 22v399q0 14 9 22.5t22 8.5h671v80h-808v-1229q0 -12 -8.5 -21.5t-22.5 -9.5h-119q-14 0 -22.5 9t-8.5 22zM506 1389 q-8 18 2 30l149 252q10 16 27 17h193q18 0 28 -19q6 -18 -6 -35l-231 -252q-7 -8 -23 -8h-113q-18 0 -26 15zM588 1436h45l174 190h-105z" />
<glyph unicode="&#xca;" horiz-adv-x="1114" d="M-31 31q0 31 31 30h88v1229q0 14 9 22.5t22 8.5h870q12 0 21.5 -8t9.5 -23v-141q0 -12 -9.5 -21.5t-21.5 -9.5h-672v-338h625q12 0 21.5 -9t9.5 -21v-142q0 -12 -9.5 -21t-21.5 -9h-625v-375h678q12 0 21.5 -8.5t9.5 -22.5v-111h88q12 0 21.5 -8t9.5 -22 q0 -12 -9.5 -21.5t-21.5 -9.5h-119q-14 0 -22 9t-8 22v110h-678q-12 0 -21.5 9.5t-9.5 21.5v436q0 12 9 21.5t22 9.5h624v80h-624q-12 0 -21.5 9t-9.5 22v399q0 14 9 22.5t22 8.5h671v80h-808v-1229q0 -12 -8.5 -21.5t-22.5 -9.5h-119q-14 0 -22.5 9t-8.5 22zM262 1391 q-8 18 4 30l178 252q10 14 27 15h164q14 0 24 -15l183 -252q12 -14 2 -30q-7 -17 -27 -17h-147q-18 0 -25 12l-98 136l-98 -136q-10 -12 -25 -12h-133q-18 0 -29 17zM350 1436h60l112 155q8 12 25 13q16 0 26 -13l111 -155h72l-138 190h-133z" />
<glyph unicode="&#xcb;" horiz-adv-x="1114" d="M-31 31q0 31 31 30h88v1229q0 14 9 22.5t22 8.5h870q12 0 21.5 -8t9.5 -23v-141q0 -12 -9.5 -21.5t-21.5 -9.5h-672v-338h625q12 0 21.5 -9t9.5 -21v-142q0 -12 -9.5 -21t-21.5 -9h-625v-375h678q12 0 21.5 -8.5t9.5 -22.5v-111h88q12 0 21.5 -8t9.5 -22 q0 -12 -9.5 -21.5t-21.5 -9.5h-119q-14 0 -22 9t-8 22v110h-678q-12 0 -21.5 9.5t-9.5 21.5v436q0 12 9 21.5t22 9.5h624v80h-624q-12 0 -21.5 9t-9.5 22v399q0 14 9 22.5t22 8.5h671v80h-808v-1229q0 -12 -8.5 -21.5t-22.5 -9.5h-119q-14 0 -22.5 9t-8.5 22zM240 1509 q0 57 38.5 97.5t96.5 40.5q57 0 96 -40t39 -98q0 -55 -39 -95t-96 -40t-96 40t-39 95zM301 1509q0 -31 21.5 -52t52.5 -21t52.5 21.5t21.5 51.5q0 31 -21.5 53.5t-52.5 22.5t-52.5 -22.5t-21.5 -53.5zM629 1509q0 57 39 97.5t96 40.5t96 -40t39 -98q0 -55 -39 -95t-96 -40 t-96 40t-39 95zM690 1509q0 -31 21.5 -52t52.5 -21t52.5 21.5t21.5 51.5q0 31 -21.5 53.5t-52.5 22.5t-52.5 -22.5t-21.5 -53.5z" />
<glyph unicode="&#xcc;" horiz-adv-x="407" d="M-90 1663q6 16 29 16h190q18 0 27 -14l151 -252q6 -14 0 -31q-10 -16 -26 -16h-113q-12 0 -23 10l-229 252q-12 16 -6 35zM-31 31q0 14 9.5 22t21.5 8h90v1229q0 14 9.5 22.5t21.5 8.5h168q12 0 21 -8t9 -23v-1229h89q31 0 30 -30q0 -12 -8 -21.5t-22 -9.5h-119 q-12 0 -21.5 9t-9.5 22v1229h-106v-1229q0 -12 -9.5 -21.5t-21.5 -9.5h-121q-12 0 -21.5 9t-9.5 22zM8 1618l174 -191h43l-112 191h-105z" />
<glyph unicode="&#xcd;" horiz-adv-x="407" d="M-31 31q0 14 9.5 22t21.5 8h90v1229q0 14 9.5 22.5t21.5 8.5h168q12 0 21 -8t9 -23v-1229h89q31 0 30 -30q0 -12 -8 -21.5t-22 -9.5h-119q-12 0 -21.5 9t-9.5 22v1229h-106v-1229q0 -12 -9.5 -21.5t-21.5 -9.5h-121q-12 0 -21.5 9t-9.5 22zM66 1389q-8 18 2 30l149 252 q10 16 27 17h192q18 0 29 -19q6 -18 -6 -35l-232 -252q-6 -8 -22 -8h-113q-18 0 -26 15zM147 1436h46l174 190h-105z" />
<glyph unicode="&#xce;" horiz-adv-x="407" d="M-84 1391q-8 18 4 30l178 252q10 14 27 15h164q14 0 24 -15l183 -252q12 -14 2 -30q-7 -17 -27 -17h-147q-18 0 -25 12l-98 136l-99 -136q-10 -12 -24 -12h-133q-18 0 -29 17zM-31 31q0 14 9.5 22t21.5 8h90v1229q0 14 9.5 22.5t21.5 8.5h168q12 0 21 -8t9 -23v-1229h89 q31 0 30 -30q0 -12 -8 -21.5t-22 -9.5h-119q-12 0 -21.5 9t-9.5 22v1229h-106v-1229q0 -12 -9.5 -21.5t-21.5 -9.5h-121q-12 0 -21.5 9t-9.5 22zM4 1436h59l113 155q8 12 25 13q16 0 26 -13l111 -155h72l-138 190h-133z" />
<glyph unicode="&#xcf;" horiz-adv-x="407" d="M-125 1485q0 57 39 97t96 40t96 -40t39 -97q0 -55 -39 -95t-96 -40t-96 40t-39 95zM-63 1485q0 -31 21.5 -52.5t51.5 -21.5q31 0 52.5 21.5t21.5 52.5t-21.5 53.5t-52.5 22.5t-52 -22.5t-21 -53.5zM-31 31q0 14 9.5 22t21.5 8h90v1229q0 14 9.5 22.5t21.5 8.5h168 q12 0 21 -8t9 -23v-1229h89q31 0 30 -30q0 -12 -8 -21.5t-22 -9.5h-119q-12 0 -21.5 9t-9.5 22v1229h-106v-1229q0 -12 -9.5 -21.5t-21.5 -9.5h-121q-12 0 -21.5 9t-9.5 22zM264 1485q0 57 39 97t96 40t96.5 -40t39.5 -97q0 -55 -39.5 -95t-96.5 -40t-96 40t-39 95z M326 1485q0 -31 21.5 -52.5t51.5 -21.5q31 0 52.5 21.5t21.5 52.5t-21.5 53.5t-52.5 22.5t-52 -22.5t-21 -53.5z" />
<glyph unicode="&#xd0;" horiz-adv-x="1404" d="M-31 31q0 12 9.5 21t21.5 9h215v535h-92q-12 0 -21.5 9t-9.5 22v121q0 12 9.5 21t21.5 9h92v510q0 12 9 21.5t22 9.5h432q301 0 469 -156q86 -82 125 -200q41 -119 41 -273q0 -166 -37 -291t-115 -217q-35 -39 -76 -68.5t-88 -52.5h408q12 0 21.5 -9t9.5 -21t-9.5 -21.5 t-21.5 -9.5h-727q-12 0 -21.5 9t-9.5 22q0 12 9.5 21t21.5 9q150 0 260 41q113 45 176 121q70 76 105 195q16 59 24 126.5t8 145.5q0 289 -147 428q-150 139 -426 139h-402v-509q0 -12 -8 -21.5t-22 -9.5h-92v-60h92q31 0 30 -30v-596q0 -12 -8 -21.5t-22 -9.5h-246 q-12 0 -21.5 9t-9.5 22z" />
<glyph unicode="&#xd1;" horiz-adv-x="1245" d="M-31 31q0 12 9.5 21t21.5 9h90v1229q0 12 9.5 21.5t21.5 9.5h178q16 0 27 -14l610 -940v923q0 12 8 21.5t23 9.5h157q12 0 21.5 -9t9.5 -22v-1229h90q12 0 21.5 -9t9.5 -21q0 -14 -9.5 -22.5t-21.5 -8.5h-121q-12 0 -21 8t-9 23v1229h-97v-992q0 -12 -9 -21t-21 -9h-4 q-16 0 -27 14l-653 1008h-131v-1229q0 -14 -9.5 -22.5t-21.5 -8.5h-121q-12 0 -21.5 8t-9.5 23zM295 1405q4 20 11 39.5t16 38.5q16 37 38 67q31 35 62 52q37 18 86 18q41 0 78 -12q37 -10 65 -25q16 -6 29.5 -12t30.5 -12q18 -8 45 -9q14 0 19 4.5t9 8.5q16 25 23 45 q10 20 31 20h90q14 0 24 -10q8 -12 6 -25q-10 -86 -59 -155l-2 -2q-14 -16 -30.5 -26.5t-35.5 -20.5q-41 -18 -96 -19q-31 0 -63 12q-35 12 -66 27q-16 4 -30.5 10t-30.5 11q-27 10 -45 10q-25 0 -37 -13q-14 -14 -17 -36q-5 -25 -30 -25h-92q-14 0 -25 10q-10 14 -4 29z M365 1427h26q6 14 13.5 24.5t17.5 21.5q33 29 78 28q31 0 65 -12q16 -6 31.5 -12.5t32.5 -12.5h2q16 -6 30.5 -12t28.5 -12q14 -4 24.5 -6t20.5 -2q45 0 70 12q27 12 45 31q16 23 25.5 45t15.5 47h-33q-8 -18 -24 -39q-25 -39 -78 -39q-37 0 -68 14q-31 8 -61 25 q-33 14 -60 22q-25 8 -59 9q-33 0 -57 -13q-23 -12 -41 -33q-16 -20 -33 -55z" />
<glyph unicode="&#xd2;" horiz-adv-x="1447" d="M-31 31q0 12 9.5 21t21.5 9h387q-76 47 -137 121q-80 96 -121 221q-39 119 -39 259q0 137 39 256q39 125 121 221q39 49 89 88t110 67q121 57 276 58q152 0 276 -58q121 -61 199 -155t119 -221q39 -119 39 -256q0 -139 -39 -259q-20 -61 -49 -117.5t-70 -103.5 q-59 -72 -139 -121h387q12 0 21.5 -9t9.5 -21t-9.5 -21.5t-21.5 -9.5h-526q-27 0 -31 27q-4 25 22 32l62 25q106 53 178 137q74 90 107 201q37 113 36 240q0 123 -36 237q-33 111 -107 201q-76 88 -180 139q-109 51 -248 51q-141 0 -250 -51q-106 -51 -178 -139 q-70 -82 -109 -201q-37 -115 -36 -237q0 -127 36 -240q18 -57 45 -107.5t64 -93.5q70 -84 178 -137q27 -12 62 -25q25 -6 20 -32q-4 -27 -31 -27h-526q-12 0 -21.5 9t-9.5 22zM340 1683q6 16 29 17h190q18 0 27 -14l151 -252q6 -14 0 -31q-10 -16 -26 -17h-113q-12 0 -23 11 l-229 252q-12 16 -6 34zM438 1638l174 -190h43l-112 190h-105z" />
<glyph unicode="&#xd3;" horiz-adv-x="1447" d="M-31 31q0 12 9.5 21t21.5 9h387q-76 47 -137 121q-80 96 -121 221q-39 119 -39 259q0 137 39 256q39 125 121 221q39 49 89 88t110 67q121 57 276 58q152 0 276 -58q121 -61 199 -155t119 -221q39 -119 39 -256q0 -139 -39 -259q-20 -61 -49 -117.5t-70 -103.5 q-59 -72 -139 -121h387q12 0 21.5 -9t9.5 -21t-9.5 -21.5t-21.5 -9.5h-526q-27 0 -31 27q-4 25 22 32l62 25q106 53 178 137q74 90 107 201q37 113 36 240q0 123 -36 237q-33 111 -107 201q-76 88 -180 139q-109 51 -248 51q-141 0 -250 -51q-106 -51 -178 -139 q-70 -82 -109 -201q-37 -115 -36 -237q0 -127 36 -240q18 -57 45 -107.5t64 -93.5q70 -84 178 -137q27 -12 62 -25q25 -6 20 -32q-4 -27 -31 -27h-526q-12 0 -21.5 9t-9.5 22zM567 1409q-8 18 2 31l150 252q10 16 26 16h193q18 0 29 -18q6 -18 -6 -35l-232 -252 q-6 -8 -22 -8h-113q-18 0 -27 14zM649 1456h45l174 191h-104z" />
<glyph unicode="&#xd4;" horiz-adv-x="1447" d="M-31 31q0 12 9.5 21t21.5 9h387q-76 47 -137 121q-80 96 -121 221q-39 119 -39 259q0 137 39 256q39 125 121 221q39 49 89 88t110 67q121 57 276 58q152 0 276 -58q121 -61 199 -155t119 -221q39 -119 39 -256q0 -139 -39 -259q-20 -61 -49 -117.5t-70 -103.5 q-59 -72 -139 -121h387q12 0 21.5 -9t9.5 -21t-9.5 -21.5t-21.5 -9.5h-526q-27 0 -31 27q-4 25 22 32l62 25q106 53 178 137q74 90 107 201q37 113 36 240q0 123 -36 237q-33 111 -107 201q-76 88 -180 139q-109 51 -248 51q-141 0 -250 -51q-106 -51 -178 -139 q-70 -82 -109 -201q-37 -115 -36 -237q0 -127 36 -240q18 -57 45 -107.5t64 -93.5q70 -84 178 -137q27 -12 62 -25q25 -6 20 -32q-4 -27 -31 -27h-526q-12 0 -21.5 9t-9.5 22zM446 1391q-8 18 5 30l178 252q10 14 26 15h164q14 0 25 -15l182 -252q12 -14 2 -30 q-7 -17 -27 -17h-147q-18 0 -25 12l-98 136l-98 -136q-10 -12 -25 -12h-133q-18 0 -29 17zM535 1436h59l113 155q8 12 24 13q16 0 27 -13l110 -155h72l-137 190h-133z" />
<glyph unicode="&#xd5;" horiz-adv-x="1447" d="M-31 31q0 12 9.5 21t21.5 9h387q-76 47 -137 121q-80 96 -121 221q-39 119 -39 259q0 137 39 256q39 125 121 221q39 49 89 88t110 67q121 57 276 58q152 0 276 -58q121 -61 199 -155t119 -221q39 -119 39 -256q0 -139 -39 -259q-20 -61 -49 -117.5t-70 -103.5 q-59 -72 -139 -121h387q12 0 21.5 -9t9.5 -21t-9.5 -21.5t-21.5 -9.5h-526q-27 0 -31 27q-4 25 22 32l62 25q106 53 178 137q74 90 107 201q37 113 36 240q0 123 -36 237q-33 111 -107 201q-76 88 -180 139q-109 51 -248 51q-141 0 -250 -51q-106 -51 -178 -139 q-70 -82 -109 -201q-37 -115 -36 -237q0 -127 36 -240q18 -57 45 -107.5t64 -93.5q70 -84 178 -137q27 -12 62 -25q25 -6 20 -32q-4 -27 -31 -27h-526q-12 0 -21.5 9t-9.5 22zM336 1425q4 20 11 40t15 38q16 37 39 68q31 35 62 51q37 18 86 18q41 0 78 -12q37 -10 65 -24 q16 -6 29.5 -12.5t30.5 -12.5q18 -8 45 -8q14 0 19 4t9 8q16 25 23 45q10 20 31 21h90q14 0 24 -11q8 -12 6 -24q-10 -86 -59 -156l-2 -2q-14 -16 -30.5 -26.5t-35.5 -20.5q-41 -18 -96 -18q-31 0 -63 12q-35 12 -66 27q-16 4 -30.5 10t-30.5 10q-27 10 -45 10 q-25 0 -37 -12q-14 -14 -17 -37q-5 -25 -30 -25h-92q-14 0 -25 11q-10 14 -4 28zM406 1448h26q6 14 13.5 24.5t17.5 20.5q33 29 78 29q31 0 65 -13q16 -6 31.5 -12t32.5 -12h2q16 -6 30.5 -12.5t28.5 -12.5q14 -4 24.5 -6t20.5 -2q45 0 70 12q27 12 45 31q16 23 25.5 45.5 t15.5 46.5h-33q-8 -18 -25 -39q-25 -39 -77 -39q-37 0 -68 15q-31 8 -61 24q-33 14 -60 23q-25 8 -59 8q-33 0 -57 -12q-23 -12 -41 -33q-16 -20 -33 -55z" />
<glyph unicode="&#xd6;" horiz-adv-x="1447" d="M-31 31q0 12 9.5 21t21.5 9h387q-76 47 -137 121q-80 96 -121 221q-39 119 -39 259q0 137 39 256q39 125 121 221q39 49 89 88t110 67q121 57 276 58q152 0 276 -58q121 -61 199 -155t119 -221q39 -119 39 -256q0 -139 -39 -259q-20 -61 -49 -117.5t-70 -103.5 q-59 -72 -139 -121h387q12 0 21.5 -9t9.5 -21t-9.5 -21.5t-21.5 -9.5h-526q-27 0 -31 27q-4 25 22 32l62 25q106 53 178 137q74 90 107 201q37 113 36 240q0 123 -36 237q-33 111 -107 201q-76 88 -180 139q-109 51 -248 51q-141 0 -250 -51q-106 -51 -178 -139 q-70 -82 -109 -201q-37 -115 -36 -237q0 -127 36 -240q18 -57 45 -107.5t64 -93.5q70 -84 178 -137q27 -12 62 -25q25 -6 20 -32q-4 -27 -31 -27h-526q-12 0 -21.5 9t-9.5 22zM393 1513q0 57 39 97.5t96 40.5t96.5 -40t39.5 -98q0 -55 -39.5 -95t-96.5 -40t-96 40t-39 95z M455 1513q0 -31 21.5 -52t51.5 -21q31 0 52.5 21.5t21.5 51.5q0 31 -21.5 53.5t-52.5 22.5t-52 -22.5t-21 -53.5zM782 1513q0 57 39 97.5t97 40.5q57 0 96 -40t39 -98q0 -55 -39 -95t-96 -40t-96.5 40t-39.5 95zM844 1513q0 -31 21.5 -52t52.5 -21t52 21.5t21 51.5 q0 31 -21 53.5t-52 22.5t-52.5 -22.5t-21.5 -53.5z" />
<glyph unicode="&#xd7;" horiz-adv-x="1122" d="M-31 31q0 12 9.5 21t21.5 9h104l322 449l-305 414q-10 18 -2 32q6 16 26 17h193q16 0 24 -15l195 -282l203 285q8 12 24 12h181q20 0 26 -17q10 -16 -2 -32l-301 -402l332 -461h102q14 0 22.5 -9t8.5 -21q0 -31 -31 -31h-118q-18 0 -25 12l-354 492q-4 8 -4 18t6 19 l276 370h-102l-219 -307q-10 -12 -25 -12q-18 0 -27 14l-208 305h-115l280 -383q14 -18 0 -36l-342 -480q-10 -12 -24 -12h-121q-12 0 -21.5 8t-9.5 23z" />
<glyph unicode="&#xd8;" horiz-adv-x="1454" d="M-31 31q0 12 9.5 21t21.5 9h94q4 8 6 11l131 143q-66 84 -100 195q-37 123 -37 254q0 137 39 256q41 123 119 221q78 94 199 153q117 57 276 58q137 0 246 -43q45 -16 86 -42t76 -57l116 129q10 10 23 11q12 2 22 -9l76 -73q10 -8 11 -20.5t-9 -22.5l-127 -140 q31 -39 50.5 -73.5t35.5 -87.5q18 -59 22.5 -128t4.5 -132q0 -139 -39 -258q-41 -125 -119 -222q-31 -35 -66.5 -66.5t-78.5 -56.5h397q12 0 21.5 -9t9.5 -21t-9.5 -21.5t-21.5 -9.5h-541q-27 0 -30 27q-4 25 22 32q18 6 37 12.5t35 16.5q106 51 178 137q74 88 107 199 q37 113 36 240q0 59 -4 123.5t-20 119.5q-16 53 -35.5 86t-54.5 76q-18 20 0 39l125 137l-33 31l-117 -131q-8 -8 -22 -8q-12 -2 -23 8q-72 70 -166 108q-96 37 -221 37q-145 0 -250 -51q-106 -53 -178 -137q-35 -45 -62.5 -94.5t-43.5 -106.5q-37 -115 -37 -237 q0 -119 34 -236q16 -53 43 -103.5t62 -91.5q16 -18 -2 -40l-127 -140h2q14 -14 8 -33q-6 -20 -29 -20h-147q-12 0 -21.5 9t-9.5 22z" />
<glyph unicode="&#xd9;" horiz-adv-x="1253" d="M-31 31q0 12 9.5 21t21.5 9h283q-25 16 -45 33q-147 123 -148 391v805q0 12 8 21.5t23 9.5h168q12 0 21 -9t9 -22v-805q0 -156 80 -235q82 -78 238 -78q145 0 223 78q74 76 74 235v805q0 12 9 21.5t22 9.5h168q12 0 21 -9t9 -22v-805q0 -254 -137 -385q-12 -10 -24.5 -20 t-24.5 -19h276q12 0 21.5 -9t9.5 -21q0 -14 -9.5 -22.5t-21.5 -8.5h-411q-27 0 -31 25q-4 29 20 34q90 29 152 86q119 111 119 340v775h-107v-775q0 -184 -92 -278q-92 -96 -266 -96q-180 0 -281 96q-98 94 -98 278v775h-106v-775q0 -240 124 -344q63 -53 156 -82 q25 -6 21 -34q-4 -25 -31 -25h-422q-12 0 -21.5 8t-9.5 23zM299 1663q6 16 29 16h190q18 0 27 -14l151 -252q6 -14 0 -31q-10 -16 -26 -16h-113q-12 0 -22 10l-230 252q-12 16 -6 35zM397 1618l174 -191h43l-112 191h-105z" />
<glyph unicode="&#xda;" horiz-adv-x="1253" d="M-31 31q0 12 9.5 21t21.5 9h283q-25 16 -45 33q-147 123 -148 391v805q0 12 8 21.5t23 9.5h168q12 0 21 -9t9 -22v-805q0 -156 80 -235q82 -78 238 -78q145 0 223 78q74 76 74 235v805q0 12 9 21.5t22 9.5h168q12 0 21 -9t9 -22v-805q0 -254 -137 -385q-12 -10 -24.5 -20 t-24.5 -19h276q12 0 21.5 -9t9.5 -21q0 -14 -9.5 -22.5t-21.5 -8.5h-411q-27 0 -31 25q-4 29 20 34q90 29 152 86q119 111 119 340v775h-107v-775q0 -184 -92 -278q-92 -96 -266 -96q-180 0 -281 96q-98 94 -98 278v775h-106v-775q0 -240 124 -344q63 -53 156 -82 q25 -6 21 -34q-4 -25 -31 -25h-422q-12 0 -21.5 8t-9.5 23zM567 1409q-8 18 2 31l150 252q10 16 26 16h193q18 0 29 -18q6 -18 -6 -35l-232 -252q-6 -8 -22 -8h-113q-18 0 -27 14zM649 1456h45l174 191h-104z" />
<glyph unicode="&#xdb;" horiz-adv-x="1253" d="M-31 31q0 12 9.5 21t21.5 9h283q-25 16 -45 33q-147 123 -148 391v805q0 12 8 21.5t23 9.5h168q12 0 21 -9t9 -22v-805q0 -156 80 -235q82 -78 238 -78q145 0 223 78q74 76 74 235v805q0 12 9 21.5t22 9.5h168q12 0 21 -9t9 -22v-805q0 -254 -137 -385q-12 -10 -24.5 -20 t-24.5 -19h276q12 0 21.5 -9t9.5 -21q0 -14 -9.5 -22.5t-21.5 -8.5h-411q-27 0 -31 25q-4 29 20 34q90 29 152 86q119 111 119 340v775h-107v-775q0 -184 -92 -278q-92 -96 -266 -96q-180 0 -281 96q-98 94 -98 278v775h-106v-775q0 -240 124 -344q63 -53 156 -82 q25 -6 21 -34q-4 -25 -31 -25h-422q-12 0 -21.5 8t-9.5 23zM338 1391q-8 18 4 30l178 252q10 14 27 15h164q14 0 24 -15l183 -252q12 -14 2 -30q-7 -17 -27 -17h-148q-18 0 -24 12l-98 136l-99 -136q-10 -12 -24 -12h-133q-18 0 -29 17zM426 1436h59l113 155q8 12 25 13 q16 0 26 -13l111 -155h71l-137 190h-133z" />
<glyph unicode="&#xdc;" horiz-adv-x="1253" d="M-31 31q0 12 9.5 21t21.5 9h283q-25 16 -45 33q-147 123 -148 391v805q0 12 8 21.5t23 9.5h168q12 0 21 -9t9 -22v-805q0 -156 80 -235q82 -78 238 -78q145 0 223 78q74 76 74 235v805q0 12 9 21.5t22 9.5h168q12 0 21 -9t9 -22v-805q0 -254 -137 -385q-12 -10 -24.5 -20 t-24.5 -19h276q12 0 21.5 -9t9.5 -21q0 -14 -9.5 -22.5t-21.5 -8.5h-411q-27 0 -31 25q-4 29 20 34q90 29 152 86q119 111 119 340v775h-107v-775q0 -184 -92 -278q-92 -96 -266 -96q-180 0 -281 96q-98 94 -98 278v775h-106v-775q0 -240 124 -344q63 -53 156 -82 q25 -6 21 -34q-4 -25 -31 -25h-422q-12 0 -21.5 8t-9.5 23zM297 1436q0 57 39 97t96 40t96 -40t39 -97q0 -55 -39 -95.5t-96 -40.5t-96 40t-39 96zM358 1436q0 -31 21.5 -52.5t52.5 -21.5t52.5 21.5t21.5 52.5t-21.5 53t-52.5 22t-52.5 -22.5t-21.5 -52.5zM686 1436 q0 57 39 97t96 40t96 -40t39 -97q0 -55 -39 -95.5t-96 -40.5t-96 40t-39 96zM748 1436q0 -31 21.5 -52.5t51.5 -21.5q31 0 52.5 21.5t21.5 52.5t-21.5 53t-52.5 22t-52 -22.5t-21 -52.5z" />
<glyph unicode="&#xdd;" horiz-adv-x="1376" d="M-31 31q0 14 9.5 22t21.5 8h578v476l-484 737q-10 16 0 33q6 14 27 14h198q18 0 27 -14l352 -557l342 557q8 14 27 14h190q16 0 27 -14q8 -14 -2 -33l-475 -737v-476h569q31 0 31 -30q0 -12 -8.5 -21.5t-22.5 -9.5h-600q-14 0 -22.5 9t-8.5 22v516q0 12 5 16l450 697 h-117l-360 -584q-6 -14 -25 -14q-18 0 -26 14l-369 584h-125l455 -697q6 -6 6 -16v-516q0 -12 -9 -21.5t-22 -9.5h-608q-12 0 -21.5 9t-9.5 22zM608 1389q-8 18 2 30l150 252q10 16 26 17h193q18 0 29 -19q6 -18 -7 -35l-231 -252q-6 -8 -22 -8h-113q-18 0 -27 15zM690 1436 h45l174 190h-104z" />
<glyph unicode="&#xde;" horiz-adv-x="1142" d="M-31 31q0 12 9.5 21t21.5 9h92v1227q0 12 9.5 21.5t21.5 9.5h168q12 0 21.5 -9.5t9.5 -21.5v-170h352q203 0 311 -108q106 -111 107 -295q0 -186 -107 -297q-111 -106 -311 -105h-352v-252h821q12 0 21.5 -9t9.5 -21t-9.5 -21.5t-21.5 -9.5h-852q-12 0 -21.5 9t-9.5 22 v313q0 12 9.5 21.5t21.5 9.5h383h2q88 -2 154.5 20.5t109.5 65.5q90 90 90 254q0 162 -90 252q-86 90 -266 90h-383q-12 0 -21.5 9t-9.5 21v170h-106v-1226q0 -12 -8.5 -21.5t-22.5 -9.5h-123q-12 0 -21.5 9t-9.5 22z" />
<glyph unicode="&#xdf;" horiz-adv-x="1015" d="M-31 31q0 12 9.5 21t21.5 9h92v852q0 41 7 80t20 74q27 70 78 123q49 49 120 78q74 29 156 28q72 0 139 -20q35 -10 66 -25.5t59 -38.5q57 -41 94 -104q37 -66 37 -152q0 -104 -47 -186q-23 -37 -59 -65q-6 -6 -19 -7h-301h-4h-26q-14 0 -22.5 9.5t-8.5 21.5q0 16 8 23 q10 10 25 8h24h4q33 0 64 6q39 6 76 29q29 18 47 53q18 33 18 86q0 37 -12 67q-10 27 -35 52q-20 25 -53 37q-29 12 -64 12q-47 0 -75 -10q-31 -8 -54 -31t-37 -62q-6 -23 -10 -50t-4 -62v-826h109q12 0 21 -9t9 -21t-9 -21.5t-21 -9.5h-140q-12 0 -21 9t-9 22v856 q0 78 18 131q18 55 51 88t78 45q43 12 94 12q47 0 90 -18q35 -16 70 -47q31 -31 49 -74q16 -43 17 -90q0 -70 -25 -115q-18 -35 -47 -59h96q23 20 35 43q39 59 39 153q0 70 -29 121q-33 55 -78 86q-23 18 -50 30.5t-56 23.5q-61 18 -121 18q-72 0 -133 -23q-55 -23 -100 -65 q-39 -41 -64 -100q-23 -61 -22 -134v-882q0 -12 -8.5 -21.5t-22.5 -9.5h-123q-12 0 -21.5 9t-9.5 22zM381 31v63q0 14 10 25q12 10 27 6q16 -4 24 -4t14.5 -1t14.5 -1q109 0 170 63q63 61 64 164q0 78 -21 125q-18 45 -55 68q-31 23 -88 32q-29 4 -62 6.5t-67 2.5 q-14 0 -22.5 9t-8.5 21t8 21.5t23 9.5h389q10 0 22 -8q18 -20 35 -41q33 -45 49 -107q10 -29 13.5 -58.5t3.5 -61.5q0 -98 -33 -177q-14 -37 -33.5 -67.5t-44.5 -59.5h203q12 0 21.5 -9t9.5 -21t-9.5 -21.5t-21.5 -9.5h-285q-23 0 -29 20q-6 23 13 35q10 10 21.5 18.5 t21.5 18.5q51 51 78 119q27 66 26 154q0 59 -14 104q-6 25 -16.5 46.5t-22.5 39.5q-4 6 -9 12t-12 13h-110q39 -29 61 -82q27 -55 27 -152q0 -129 -82 -209q-80 -80 -213 -80q-8 0 -15 1t-14 1v-28q0 -12 -9 -21.5t-21 -9.5q-14 0 -22.5 9t-8.5 22z" />
<glyph unicode="&#xe0;" horiz-adv-x="1107" d="M-31 31q0 14 9.5 22t21.5 8h174q-4 4 -6 9q-86 90 -78 202q6 123 72 199q27 31 63.5 53.5t89.5 42.5q41 14 94.5 21.5t106.5 11.5q35 4 65.5 7t57.5 7q29 6 43 13q6 4 8 6q16 31 14 71.5t-34 69.5q-29 27 -71 31t-83 4h-18q-25 0 -50.5 -5t-47 -20.5t-38 -44t-20.5 -73.5 q0 -12 -9 -20.5t-22 -8.5h-143q-10 0 -23 8q-8 12 -8 23q0 2 1 25.5t8.5 55t21.5 68.5t39 66q109 125 332 118q217 -6 315 -108q47 -47 55.5 -98.5t8.5 -77.5v-51v-457q0 -8 1 -22.5t5 -18.5q2 -2 10 -2l51 6q14 0 25 -8q8 -8 8 -23v-80h90q12 0 21.5 -8t9.5 -22 q0 -12 -9.5 -21.5t-21.5 -9.5h-121q-12 0 -21.5 9t-9.5 22v75l-16 -2q-23 -2 -36 4.5t-21 12.5q-20 18 -23.5 43.5t-3.5 44.5v457v51q0 23 -5 60.5t-40 72.5q-88 86 -274 90q-195 4 -285 -98q-27 -31 -37 -73t-14 -71h84q18 96 86 140q35 23 68.5 28.5t60.5 3.5h18 q47 0 99.5 -7t93.5 -42q45 -39 55 -104q6 -61 -21 -113q-18 -35 -74.5 -46t-148.5 -19q-53 -4 -101 -10.5t-83 -18.5q-82 -29 -131 -80t-55 -160q-4 -53 15 -93t44 -66.5t47 -38.5l23 -13q20 -10 16 -34q-6 -25 -31 -25h-266q-12 0 -21.5 9t-9.5 22zM217 1362q10 18 29 18 h190q16 0 27 -16l151 -252q10 -14 0 -31q-8 -14 -26 -14h-113q-14 0 -22 8l-230 252q-12 16 -6 35zM315 1319l174 -191h43l-112 191h-105z" />
<glyph unicode="&#xe1;" horiz-adv-x="1107" d="M-31 31q0 14 9.5 22t21.5 8h174q-4 4 -6 9q-86 90 -78 202q6 123 72 199q27 31 63.5 53.5t89.5 42.5q41 14 94.5 21.5t106.5 11.5q35 4 65.5 7t57.5 7q29 6 43 13q6 4 8 6q16 31 14 71.5t-34 69.5q-29 27 -71 31t-83 4h-18q-25 0 -50.5 -5t-47 -20.5t-38 -44t-20.5 -73.5 q0 -12 -9 -20.5t-22 -8.5h-143q-10 0 -23 8q-8 12 -8 23q0 2 1 25.5t8.5 55t21.5 68.5t39 66q109 125 332 118q217 -6 315 -108q47 -47 55.5 -98.5t8.5 -77.5v-51v-457q0 -8 1 -22.5t5 -18.5q2 -2 10 -2l51 6q14 0 25 -8q8 -8 8 -23v-80h90q12 0 21.5 -8t9.5 -22 q0 -12 -9.5 -21.5t-21.5 -9.5h-121q-12 0 -21.5 9t-9.5 22v75l-16 -2q-23 -2 -36 4.5t-21 12.5q-20 18 -23.5 43.5t-3.5 44.5v457v51q0 23 -5 60.5t-40 72.5q-88 86 -274 90q-195 4 -285 -98q-27 -31 -37 -73t-14 -71h84q18 96 86 140q35 23 68.5 28.5t60.5 3.5h18 q47 0 99.5 -7t93.5 -42q45 -39 55 -104q6 -61 -21 -113q-18 -35 -74.5 -46t-148.5 -19q-53 -4 -101 -10.5t-83 -18.5q-82 -29 -131 -80t-55 -160q-4 -53 15 -93t44 -66.5t47 -38.5l23 -13q20 -10 16 -34q-6 -25 -31 -25h-266q-12 0 -21.5 9t-9.5 22zM430 1057q-6 16 0 30 l152 252q10 16 26 17h193q18 0 28 -19q6 -18 -6 -34l-231 -252q-7 -9 -23 -9h-112q-18 0 -27 15zM512 1104h45l174 190h-104z" />
<glyph unicode="&#xe2;" horiz-adv-x="1107" d="M-31 31q0 14 9.5 22t21.5 8h174q-4 4 -6 9q-86 90 -78 202q6 123 72 199q27 31 63.5 53.5t89.5 42.5q41 14 94.5 21.5t106.5 11.5q35 4 65.5 7t57.5 7q29 6 43 13q6 4 8 6q16 31 14 71.5t-34 69.5q-29 27 -71 31t-83 4h-18q-25 0 -50.5 -5t-47 -20.5t-38 -44t-20.5 -73.5 q0 -12 -9 -20.5t-22 -8.5h-143q-10 0 -23 8q-8 12 -8 23q0 2 1 25.5t8.5 55t21.5 68.5t39 66q109 125 332 118q217 -6 315 -108q47 -47 55.5 -98.5t8.5 -77.5v-51v-457q0 -8 1 -22.5t5 -18.5q2 -2 10 -2l51 6q14 0 25 -8q8 -8 8 -23v-80h90q12 0 21.5 -8t9.5 -22 q0 -12 -9.5 -21.5t-21.5 -9.5h-121q-12 0 -21.5 9t-9.5 22v75l-16 -2q-23 -2 -36 4.5t-21 12.5q-20 18 -23.5 43.5t-3.5 44.5v457v51q0 23 -5 60.5t-40 72.5q-88 86 -274 90q-195 4 -285 -98q-27 -31 -37 -73t-14 -71h84q18 96 86 140q35 23 68.5 28.5t60.5 3.5h18 q47 0 99.5 -7t93.5 -42q45 -39 55 -104q6 -61 -21 -113q-18 -35 -74.5 -46t-148.5 -19q-53 -4 -101 -10.5t-83 -18.5q-82 -29 -131 -80t-55 -160q-4 -53 15 -93t44 -66.5t47 -38.5l23 -13q20 -10 16 -34q-6 -25 -31 -25h-266q-12 0 -21.5 9t-9.5 22zM252 1063q-8 18 4 31 l178 252q10 14 27 14h164q14 0 24 -14l182 -252q12 -14 3 -31q-7 -16 -27 -16h-148q-18 0 -24 12l-98 135l-99 -135q-10 -12 -24 -12h-133q-18 0 -29 16zM340 1108h59l113 156q8 12 25 12q16 0 26 -12l111 -156h71l-137 190h-133z" />
<glyph unicode="&#xe3;" horiz-adv-x="1107" d="M-31 31q0 14 9.5 22t21.5 8h174q-4 4 -6 9q-86 90 -78 202q6 123 72 199q27 31 63.5 53.5t89.5 42.5q41 14 94.5 21.5t106.5 11.5q35 4 65.5 7t57.5 7q29 6 43 13q6 4 8 6q16 31 14 71.5t-34 69.5q-29 27 -71 31t-83 4h-18q-25 0 -50.5 -5t-47 -20.5t-38 -44t-20.5 -73.5 q0 -12 -9 -20.5t-22 -8.5h-143q-10 0 -23 8q-8 12 -8 23q0 2 1 25.5t8.5 55t21.5 68.5t39 66q109 125 332 118q217 -6 315 -108q47 -47 55.5 -98.5t8.5 -77.5v-51v-457q0 -8 1 -22.5t5 -18.5q2 -2 10 -2l51 6q14 0 25 -8q8 -8 8 -23v-80h90q12 0 21.5 -8t9.5 -22 q0 -12 -9.5 -21.5t-21.5 -9.5h-121q-12 0 -21.5 9t-9.5 22v75l-16 -2q-23 -2 -36 4.5t-21 12.5q-20 18 -23.5 43.5t-3.5 44.5v457v51q0 23 -5 60.5t-40 72.5q-88 86 -274 90q-195 4 -285 -98q-27 -31 -37 -73t-14 -71h84q18 96 86 140q35 23 68.5 28.5t60.5 3.5h18 q47 0 99.5 -7t93.5 -42q45 -39 55 -104q6 -61 -21 -113q-18 -35 -74.5 -46t-148.5 -19q-53 -4 -101 -10.5t-83 -18.5q-82 -29 -131 -80t-55 -160q-4 -53 15 -93t44 -66.5t47 -38.5l23 -13q20 -10 16 -34q-6 -25 -31 -25h-266q-12 0 -21.5 9t-9.5 22zM170 1092q6 20 13 39.5 t16 37.5q16 37 39 68q27 35 61 51q37 18 86 19q41 0 78 -13q37 -10 65 -24q16 -6 29.5 -12.5t28.5 -12.5q23 -8 47 -8q12 0 18 4t11 8q16 25 22 43q6 23 29 23h92q12 0 22 -10q8 -10 9 -25q-12 -88 -62 -156q0 -2 -2 -2q-27 -29 -65 -47q-37 -18 -97 -18q-27 0 -63 12 q-16 6 -31.5 12t-32.5 15q-16 6 -30.5 11t-30.5 9q-27 10 -45 10q-25 0 -37 -12q-6 -6 -9 -12t-9 -27q-6 -22 -29 -22h-92q-16 0 -25 12q-10 10 -6 27zM242 1114h26q10 27 29 45q33 29 80 29q29 0 65 -12q16 -6 31.5 -11.5t32.5 -13.5h2q33 -14 59 -23q27 -10 43 -10 q43 0 72 12q29 14 45 31q29 45 41 92h-35q-10 -25 -22 -39q-27 -39 -78 -38q-39 0 -70 14q-31 10 -59 24q-33 14 -60 23q-25 8 -59 8q-33 0 -57 -12q-27 -14 -41 -33q-16 -20 -33 -55z" />
<glyph unicode="&#xe4;" horiz-adv-x="1107" d="M-31 31q0 14 9.5 22t21.5 8h174q-4 4 -6 9q-86 90 -78 202q6 123 72 199q27 31 63.5 53.5t89.5 42.5q41 14 94.5 21.5t106.5 11.5q35 4 65.5 7t57.5 7q29 6 43 13q6 4 8 6q16 31 14 71.5t-34 69.5q-29 27 -71 31t-83 4h-18q-25 0 -50.5 -5t-47 -20.5t-38 -44t-20.5 -73.5 q0 -12 -9 -20.5t-22 -8.5h-143q-10 0 -23 8q-8 12 -8 23q0 2 1 25.5t8.5 55t21.5 68.5t39 66q109 125 332 118q217 -6 315 -108q47 -47 55.5 -98.5t8.5 -77.5v-51v-457q0 -8 1 -22.5t5 -18.5q2 -2 10 -2l51 6q14 0 25 -8q8 -8 8 -23v-80h90q12 0 21.5 -8t9.5 -22 q0 -12 -9.5 -21.5t-21.5 -9.5h-121q-12 0 -21.5 9t-9.5 22v75l-16 -2q-23 -2 -36 4.5t-21 12.5q-20 18 -23.5 43.5t-3.5 44.5v457v51q0 23 -5 60.5t-40 72.5q-88 86 -274 90q-195 4 -285 -98q-27 -31 -37 -73t-14 -71h84q18 96 86 140q35 23 68.5 28.5t60.5 3.5h18 q47 0 99.5 -7t93.5 -42q45 -39 55 -104q6 -61 -21 -113q-18 -35 -74.5 -46t-148.5 -19q-53 -4 -101 -10.5t-83 -18.5q-82 -29 -131 -80t-55 -160q-4 -53 15 -93t44 -66.5t47 -38.5l23 -13q20 -10 16 -34q-6 -25 -31 -25h-266q-12 0 -21.5 9t-9.5 22zM188 1169q0 57 39 97.5 t97 40.5q57 0 96 -40t39 -98q0 -55 -39 -95t-96 -40t-96.5 40t-39.5 95zM250 1169q0 -31 21.5 -52t52.5 -21t52 21.5t21 51.5q0 31 -21 53.5t-52 22.5t-52.5 -22.5t-21.5 -53.5zM578 1169q0 57 38.5 97.5t96.5 40.5q57 0 96 -40t39 -98q0 -55 -39 -95t-96 -40t-96 40t-39 95 zM639 1169q0 -31 21.5 -52t52.5 -21t52 21.5t21 51.5q0 31 -21 53.5t-52 22.5t-52.5 -22.5t-21.5 -53.5z" />
<glyph unicode="&#xe5;" horiz-adv-x="1107" d="M-31 31q0 14 9.5 22t21.5 8h174q-4 4 -6 9q-86 90 -78 202q6 123 72 199q27 31 63.5 53.5t89.5 42.5q41 14 94.5 21.5t106.5 11.5q35 4 65.5 7t57.5 7q29 6 43 13q6 4 8 6q16 31 14 71.5t-34 69.5q-29 27 -71 31t-83 4h-18q-25 0 -50.5 -5t-47 -20.5t-38 -44t-20.5 -73.5 q0 -12 -9 -20.5t-22 -8.5h-143q-10 0 -23 8q-8 12 -8 23q0 2 1 25.5t8.5 55t21.5 68.5t39 66q109 125 332 118q217 -6 315 -108q47 -47 55.5 -98.5t8.5 -77.5v-51v-457q0 -8 1 -22.5t5 -18.5q2 -2 10 -2l51 6q14 0 25 -8q8 -8 8 -23v-80h90q12 0 21.5 -8t9.5 -22 q0 -12 -9.5 -21.5t-21.5 -9.5h-121q-12 0 -21.5 9t-9.5 22v75l-16 -2q-23 -2 -36 4.5t-21 12.5q-20 18 -23.5 43.5t-3.5 44.5v457v51q0 23 -5 60.5t-40 72.5q-88 86 -274 90q-195 4 -285 -98q-27 -31 -37 -73t-14 -71h84q18 96 86 140q35 23 68.5 28.5t60.5 3.5h18 q47 0 99.5 -7t93.5 -42q45 -39 55 -104q6 -61 -21 -113q-18 -35 -74.5 -46t-148.5 -19q-53 -4 -101 -10.5t-83 -18.5q-82 -29 -131 -80t-55 -160q-4 -53 15 -93t44 -66.5t47 -38.5l23 -13q20 -10 16 -34q-6 -25 -31 -25h-266q-12 0 -21.5 9t-9.5 22zM326 1292q0 45 18 88 q18 39 47 72t74 51q39 18 88 19q47 0 90 -19q41 -18 72 -49q31 -35 49 -74q18 -43 18 -88q0 -47 -18 -90q-18 -41 -49 -72q-29 -31 -72 -51q-43 -18 -90 -18q-49 0 -88 18q-23 10 -40 22.5t-34 28.5q-29 33 -47 72q-18 43 -18 90zM387 1292q0 -35 12 -65q16 -33 37 -53 q20 -25 53 -37q35 -14 64 -15q16 0 32.5 4t32.5 11q27 10 54 37q20 20 37 53q12 31 12 65q0 33 -12 64q-16 33 -37 53q-25 25 -54 37q-28 14 -65 14q-35 0 -64 -14q-31 -12 -53 -35q-23 -25 -37 -55q-12 -31 -12 -64zM455 1292q0 43 28 70q29 29 70 29q39 0 72 -29 q29 -29 28 -70q0 -43 -28 -71q-33 -29 -72 -29q-41 0 -70 29q-29 27 -28 71zM516 1292q0 -18 10 -28t27 -11q16 0 27 11q12 12 12 28q0 14 -12 27q-11 10 -27 10t-27 -10q-10 -10 -10 -27z" />
<glyph unicode="&#xe6;" horiz-adv-x="1474" d="M-31 31q0 31 31 30h174l-8 9q-84 88 -78 204q10 127 74 197q49 57 153 96q35 12 81 19.5t93 11.5h13.5t13.5 2q10 0 18.5 1t18.5 3q23 2 44 4t40 6q33 6 45 13q8 4 8 6q16 31 14 71.5t-34 69.5q-12 12 -29 19q-27 10 -66 14q-16 2 -30.5 2h-28.5h-18q-25 0 -50.5 -5 t-48 -20.5t-38 -44t-19.5 -73.5q-4 -29 -31 -29h-143q-10 0 -23 8q-8 8 -8 23q0 2 1 25.5t7.5 55t20.5 68.5t39 66q113 125 334 118q131 -4 219 -43q82 37 182 37q133 0 219 -55q86 -51 139 -137q25 -41 42.5 -86t27.5 -94q10 -47 14 -92.5t2 -90.5q0 -12 -9 -20t-21 -8 h-439h-61h-152q0 -41 13 -74q6 -25 17 -45.5t28 -38.5q33 -39 80 -59q4 -2 16 -7q14 -4 30.5 -7t33.5 -7h34q86 0 140 37q49 37 67 117q6 25 31 24h147q14 0 25 -12q10 -10 6 -25q-35 -168 -143 -249q-4 -4 -4 -5h252q12 0 21 -8t9 -22q0 -12 -9 -21.5t-21 -9.5h-365h-18 q-27 0 -31 27t22 34h4q57 18 101 54q84 63 112 176h-86q-25 -84 -86 -129q-45 -33 -110 -45q-16 -4 -31.5 -4h-32.5q-16 0 -33.5 1t-33.5 3q-37 6 -74 22q-59 27 -100 74q-37 43 -58 106q-18 55 -14 125q0 29 31 29h182h61h408q0 72 -14 137q-10 43 -25.5 84t-38.5 76 q-43 72 -119 119q-72 45 -186 45q-55 0 -115 -16q-25 -6 -43 -17l-24 -12q-29 16 -70 31q-33 10 -70.5 14t-80.5 6q-193 6 -285 -98q-27 -31 -37 -73t-14 -71h84q16 96 86 140q33 23 67.5 28.5t59.5 3.5h18q25 0 51.5 -1t53.5 -7q35 -6 63 -22q8 -4 14.5 -9.5t12.5 -9.5 q45 -39 55 -104q6 -57 -21 -113q-16 -33 -67 -44t-133 -19q-6 0 -12.5 -1t-12.5 -1q-10 -2 -18 -2t-19 -2q-41 -4 -79.5 -9.5t-67.5 -15.5q-82 -29 -130 -80t-56 -160q-4 -53 16 -93t45 -65.5t47 -39.5l23 -13q20 -10 16 -34q-6 -25 -31 -25h-266q-14 0 -22.5 9t-8.5 22z " />
<glyph unicode="&#xe7;" horiz-adv-x="1075" d="M-31 31q0 12 9.5 21t21.5 9h276q-47 35 -79 76q-27 33 -45.5 71t-32.5 81q-12 41 -19.5 88t-7.5 98q0 102 29 201q14 47 35.5 88t50.5 76q57 74 145 112q88 41 201 41q82 0 154 -18q74 -23 131 -64q57 -43 92 -106q39 -66 47 -152q0 -16 -8 -24q-10 -10 -23 -11h-155 q-25 0 -29 25q-18 80 -66 117q-47 41 -131 41q-37 0 -66.5 -7.5t-54.5 -19.5q-23 -14 -42 -30.5t-33 -38.5q-31 -43 -43 -103q-12 -61 -13 -127q0 -61 15 -117q12 -51 41 -96q29 -41 71 -65q45 -25 109 -25q96 0 151 51q55 49 68 146q4 27 31 26h153q12 0 23 -10 q8 -12 6 -25q-25 -172 -129 -270q-8 -8 -16.5 -15t-18.5 -16q20 -6 21 -28v-90v-28.5t-2 -29.5q-4 -16 -7.5 -30.5t-9.5 -26.5q-10 -27 -35 -47q-23 -20 -61 -21h-57v-45h92q27 0 55 13q14 8 27.5 17t23.5 21q23 23 39 62t17 88v117q0 12 8 21t22 9h125q12 0 21.5 -9 t9.5 -21t-9.5 -21.5t-21.5 -9.5h-94v-86q0 -31 -5 -58.5t-15 -52.5q-23 -49 -52 -82q-29 -31 -71 -51q-41 -18 -80 -18h-123q-14 0 -22.5 9t-8.5 22v106q0 12 8.5 21.5t22.5 9.5h88q16 0 22 6q6 4 10.5 10t8.5 14q4 10 6 19.5t4 21.5t2 24.5v25.5v59h-86h-2q-25 0 -29 23 q-4 12 2.5 23t18.5 15q76 20 131 74q78 74 104 199h-92q-18 -96 -80 -156q-74 -68 -194 -67q-76 0 -137 32q-55 29 -95 84q-33 49 -51 117q-14 59 -14 131q0 76 14 139q16 72 51 125t99 88q63 35 149 35q106 0 172 -55q55 -47 78 -127h96q-6 27 -14 50.5t-20 43.5 q-33 57 -76 88q-25 18 -52.5 30.5t-58.5 22.5q-33 8 -66.5 12.5t-70.5 4.5q-98 0 -174 -35q-72 -33 -125 -94q-49 -61 -74 -146q-27 -80 -26 -182q0 -94 24 -170q20 -72 66 -129q45 -57 110 -90q29 -14 66 -25q27 -8 22 -34q-4 -27 -30 -27h-412q-12 0 -21.5 9t-9.5 22z" />
<glyph unicode="&#xe8;" horiz-adv-x="1083" d="M-31 31q0 14 9.5 22t21.5 8h281q-20 14 -37 31t-33 35q-59 66 -88 162q-29 88 -33 200q0 113 33 203q35 92 96 160t146 104q41 20 88 29.5t96 9.5q129 0 219 -55q43 -27 77 -61.5t60 -75.5q53 -86 72 -180q18 -100 16 -183q-4 -29 -30 -28h-654q4 -43 15 -74 q12 -47 45 -84q31 -37 77 -59q47 -20 117 -21q84 0 137 37q51 37 70 117q4 25 29 24h149q16 0 23 -12q8 -8 8 -25q-35 -166 -145 -249l-5 -5h254q12 0 21.5 -8t9.5 -22q0 -12 -9.5 -21.5t-21.5 -9.5h-383q-27 0 -30 27q-2 10 4 20t16 14q57 14 107 54q82 59 112 176h-86 q-25 -86 -86 -129q-68 -49 -174 -49q-82 0 -141 26q-59 27 -100 74q-37 43 -58 106q-10 29 -13 60t-3 63q4 31 31 31h653q0 35 -4 68.5t-10 68.5q-18 88 -64 160q-23 35 -52.5 65.5t-66.5 53.5q-72 45 -186 45q-88 0 -160 -33q-72 -31 -125 -90q-53 -63 -84 -141 q-29 -82 -28 -178q2 -98 28 -185q23 -80 76 -141q55 -61 125 -90q10 -4 19.5 -7t19.5 -8q27 -8 22 -34q-4 -27 -30 -27h-412q-12 0 -21.5 9t-9.5 22zM238 1341q10 18 28 19h191q16 0 26 -17l152 -251q10 -14 0 -31q-9 -14 -27 -14h-112q-14 0 -23 8l-229 252q-12 16 -6 34z M336 1298l174 -190h43l-113 190h-104z" />
<glyph unicode="&#xe9;" horiz-adv-x="1083" d="M-31 31q0 14 9.5 22t21.5 8h281q-20 14 -37 31t-33 35q-59 66 -88 162q-29 88 -33 200q0 113 33 203q35 92 96 160t146 104q41 20 88 29.5t96 9.5q129 0 219 -55q43 -27 77 -61.5t60 -75.5q53 -86 72 -180q18 -100 16 -183q-4 -29 -30 -28h-654q4 -43 15 -74 q12 -47 45 -84q31 -37 77 -59q47 -20 117 -21q84 0 137 37q51 37 70 117q4 25 29 24h149q16 0 23 -12q8 -8 8 -25q-35 -166 -145 -249l-5 -5h254q12 0 21.5 -8t9.5 -22q0 -12 -9.5 -21.5t-21.5 -9.5h-383q-27 0 -30 27q-2 10 4 20t16 14q57 14 107 54q82 59 112 176h-86 q-25 -86 -86 -129q-68 -49 -174 -49q-82 0 -141 26q-59 27 -100 74q-37 43 -58 106q-10 29 -13 60t-3 63q4 31 31 31h653q0 35 -4 68.5t-10 68.5q-18 88 -64 160q-23 35 -52.5 65.5t-66.5 53.5q-72 45 -186 45q-88 0 -160 -33q-72 -31 -125 -90q-53 -63 -84 -141 q-29 -82 -28 -178q2 -98 28 -185q23 -80 76 -141q55 -61 125 -90q10 -4 19.5 -7t19.5 -8q27 -8 22 -34q-4 -27 -30 -27h-412q-12 0 -21.5 9t-9.5 22zM471 1057q-6 16 0 30l152 252q10 16 26 17h193q18 0 28 -19q6 -18 -6 -34l-231 -252q-7 -9 -23 -9h-112q-18 0 -27 15z M553 1104h45l174 190h-104z" />
<glyph unicode="&#xea;" horiz-adv-x="1083" d="M-31 31q0 14 9.5 22t21.5 8h281q-20 14 -37 31t-33 35q-59 66 -88 162q-29 88 -33 200q0 113 33 203q35 92 96 160t146 104q41 20 88 29.5t96 9.5q129 0 219 -55q43 -27 77 -61.5t60 -75.5q53 -86 72 -180q18 -100 16 -183q-4 -29 -30 -28h-654q4 -43 15 -74 q12 -47 45 -84q31 -37 77 -59q47 -20 117 -21q84 0 137 37q51 37 70 117q4 25 29 24h149q16 0 23 -12q8 -8 8 -25q-35 -166 -145 -249l-5 -5h254q12 0 21.5 -8t9.5 -22q0 -12 -9.5 -21.5t-21.5 -9.5h-383q-27 0 -30 27q-2 10 4 20t16 14q57 14 107 54q82 59 112 176h-86 q-25 -86 -86 -129q-68 -49 -174 -49q-82 0 -141 26q-59 27 -100 74q-37 43 -58 106q-10 29 -13 60t-3 63q4 31 31 31h653q0 35 -4 68.5t-10 68.5q-18 88 -64 160q-23 35 -52.5 65.5t-66.5 53.5q-72 45 -186 45q-88 0 -160 -33q-72 -31 -125 -90q-53 -63 -84 -141 q-29 -82 -28 -178q2 -98 28 -185q23 -80 76 -141q55 -61 125 -90q10 -4 19.5 -7t19.5 -8q27 -8 22 -34q-4 -27 -30 -27h-412q-12 0 -21.5 9t-9.5 22zM258 1042q-8 18 4 31l178 252q10 14 27 14h164q14 0 24 -14l183 -252q12 -14 2 -31q-7 -16 -27 -16h-147q-18 0 -25 12 l-98 136l-99 -136q-10 -12 -24 -12h-133q-18 0 -29 16zM346 1087h60l112 156q8 12 25 12q16 0 26 -12l111 -156h72l-138 191h-133z" />
<glyph unicode="&#xeb;" horiz-adv-x="1083" d="M-31 31q0 14 9.5 22t21.5 8h281q-20 14 -37 31t-33 35q-59 66 -88 162q-29 88 -33 200q0 113 33 203q35 92 96 160t146 104q41 20 88 29.5t96 9.5q129 0 219 -55q43 -27 77 -61.5t60 -75.5q53 -86 72 -180q18 -100 16 -183q-4 -29 -30 -28h-654q4 -43 15 -74 q12 -47 45 -84q31 -37 77 -59q47 -20 117 -21q84 0 137 37q51 37 70 117q4 25 29 24h149q16 0 23 -12q8 -8 8 -25q-35 -166 -145 -249l-5 -5h254q12 0 21.5 -8t9.5 -22q0 -12 -9.5 -21.5t-21.5 -9.5h-383q-27 0 -30 27q-2 10 4 20t16 14q57 14 107 54q82 59 112 176h-86 q-25 -86 -86 -129q-68 -49 -174 -49q-82 0 -141 26q-59 27 -100 74q-37 43 -58 106q-10 29 -13 60t-3 63q4 31 31 31h653q0 35 -4 68.5t-10 68.5q-18 88 -64 160q-23 35 -52.5 65.5t-66.5 53.5q-72 45 -186 45q-88 0 -160 -33q-72 -31 -125 -90q-53 -63 -84 -141 q-29 -82 -28 -178q2 -98 28 -185q23 -80 76 -141q55 -61 125 -90q10 -4 19.5 -7t19.5 -8q27 -8 22 -34q-4 -27 -30 -27h-412q-12 0 -21.5 9t-9.5 22zM213 1137q0 57 39 97t96 40t96 -40t39 -97q0 -55 -39 -95.5t-96 -40.5t-96 40t-39 96zM274 1137q0 -31 21.5 -52.5 t52.5 -21.5t52.5 21.5t21.5 52.5t-21.5 53t-52.5 22t-52.5 -22.5t-21.5 -52.5zM602 1137q0 57 39 97t96 40t96 -40t39 -97q0 -55 -39 -95.5t-96 -40.5t-96 40t-39 96zM664 1137q0 -31 21.5 -52.5t51.5 -21.5q31 0 52.5 21.5t21.5 52.5t-21.5 53t-52.5 22t-52 -22.5 t-21 -52.5z" />
<glyph unicode="&#xec;" horiz-adv-x="391" d="M-61 1321q10 18 28 18h191q16 0 26 -16l152 -252q10 -14 0 -31q-9 -14 -27 -14h-112q-14 0 -23 8l-229 252q-12 16 -6 35zM-31 31q0 14 9.5 22t21.5 8h90v885q0 14 9.5 22.5t21.5 8.5h149q31 0 31 -31v-885h90q12 0 21.5 -8t9.5 -22q0 -12 -9.5 -21.5t-21.5 -9.5h-121 q-12 0 -21 9t-9 22v884h-88v-884q0 -12 -9.5 -21.5t-21.5 -9.5h-121q-12 0 -21.5 9t-9.5 22zM37 1278l174 -191h43l-113 191h-104z" />
<glyph unicode="&#xed;" horiz-adv-x="391" d="M-31 31q0 14 9.5 22t21.5 8h90v885q0 14 9.5 22.5t21.5 8.5h149q31 0 31 -31v-885h90q12 0 21.5 -8t9.5 -22q0 -12 -9.5 -21.5t-21.5 -9.5h-121q-12 0 -21 9t-9 22v884h-88v-884q0 -12 -9.5 -21.5t-21.5 -9.5h-121q-12 0 -21.5 9t-9.5 22zM84 1118q-6 16 0 31l152 252 q10 16 26 16h193q18 0 28 -18q6 -18 -6 -35l-231 -252q-7 -8 -23 -8h-112q-18 0 -27 14zM166 1165h45l174 191h-104z" />
<glyph unicode="&#xee;" horiz-adv-x="391" d="M-80 1370q-8 18 4 31l178 252q10 14 27 14h164q14 0 24 -14l183 -252q12 -14 2 -31q-7 -16 -27 -16h-147q-18 0 -25 12l-98 135l-99 -135q-10 -12 -24 -12h-133q-18 0 -29 16zM-31 31q0 14 9.5 22t21.5 8h90v885q0 14 9.5 22.5t21.5 8.5h149q31 0 31 -31v-885h90 q12 0 21.5 -8t9.5 -22q0 -12 -9.5 -21.5t-21.5 -9.5h-121q-12 0 -21 9t-9 22v884h-88v-884q0 -12 -9.5 -21.5t-21.5 -9.5h-121q-12 0 -21.5 9t-9.5 22zM8 1415h60l112 156q8 12 25 12q16 0 26 -12l111 -156h72l-138 191h-133z" />
<glyph unicode="&#xef;" horiz-adv-x="391" d="M-133 1460q0 57 39 97t96 40t96 -39.5t39 -97.5q0 -55 -39 -95t-96 -40t-96 40t-39 95zM-72 1460q0 -31 21.5 -52.5t52.5 -21.5t52.5 22t21.5 52q0 31 -21.5 53.5t-52.5 22.5t-52.5 -22.5t-21.5 -53.5zM-31 31q0 14 9.5 22t21.5 8h90v885q0 14 9.5 22.5t21.5 8.5h149 q31 0 31 -31v-885h90q12 0 21.5 -8t9.5 -22q0 -12 -9.5 -21.5t-21.5 -9.5h-121q-12 0 -21 9t-9 22v884h-88v-884q0 -12 -9.5 -21.5t-21.5 -9.5h-121q-12 0 -21.5 9t-9.5 22zM256 1460q0 57 39 97t96 40t96 -39.5t39 -97.5q0 -55 -39 -95t-96 -40t-96 40t-39 95zM317 1460 q0 -31 21.5 -52.5t52.5 -21.5t52.5 22t21.5 52q0 31 -21.5 53.5t-52.5 22.5t-52.5 -22.5t-21.5 -53.5z" />
<glyph unicode="&#xf0;" horiz-adv-x="1130" d="M-31 31q0 12 9.5 21t21.5 9h287q-37 27 -74 66q-63 74 -90 162q-31 88 -31 196q0 88 29 174q33 86 86 150q57 63 141 104q80 39 191 39q76 0 143 -24q4 0 6 -2q-8 10 -15 20t-18 21q-31 37 -55 59q-14 14 -31 27l-186 -86q-20 -10 -35 6l-67 69q-10 14 -9 27q4 16 19 23 l145 69q-4 4 -10 7t-12 8q-16 10 -30.5 19t-27.5 17q-12 4 -16 25q0 18 14 27l125 79q16 10 33 0q12 -10 27.5 -20t35.5 -25q16 -10 29.5 -21t30.5 -22l194 91q18 10 35 -7l62 -65q10 -12 8 -27q-4 -16 -19 -22l-157 -74q135 -123 205 -281q76 -180 75 -385q0 -109 -30 -196 q-27 -88 -90 -162q-37 -39 -74 -66h286q12 0 21.5 -9t9.5 -21t-9 -21.5t-22 -9.5h-419q-27 0 -31 27q-4 25 22 32q18 6 41 17q76 33 129 92q51 59 78 139q12 41 19.5 86t7.5 92q0 195 -72 361q-35 82 -90 153.5t-133 137.5q-12 8 -12 26q4 18 18 25l164 76l-16 16l-193 -88 q-16 -10 -33 4q-16 14 -34.5 26.5t-34.5 26.5q-14 10 -25.5 17.5t-21.5 13.5l-64 -41l19 -12q18 -10 34.5 -23.5t30.5 -25.5q14 -10 10 -29q0 -16 -16 -23l-154 -71l23 -25l182 86q14 8 31 -2q10 -8 23.5 -18.5t29.5 -24.5q14 -14 28.5 -30.5t30.5 -32.5q31 -37 62 -80 q14 -23 27.5 -45.5t23.5 -46.5q8 -16 -2 -29q-8 -14 -27 -14h-2q-14 0 -24 10q-39 49 -96 67q-55 20 -125 21q-96 0 -164 -33q-70 -31 -121 -90q-49 -55 -74 -129q-27 -72 -26 -154q0 -47 7 -92t19 -86q27 -80 78 -139t129 -92q10 -4 21.5 -8.5t21.5 -8.5q27 -8 21 -32 q-4 -27 -29 -27h-422q-12 0 -21.5 9t-9.5 22z" />
<glyph unicode="&#xf1;" horiz-adv-x="993" d="M-31 31q0 12 8.5 21t22.5 9h88v881q0 12 9 21.5t22 9.5h141q12 0 21.5 -9.5t9.5 -21.5v-55q100 106 268 106q100 0 162 -26q70 -29 110 -78q43 -53 58 -117q16 -70 16 -141v-570h88q14 0 22.5 -9t8.5 -21q0 -31 -31 -31h-119q-12 0 -21 8t-9 23v600q0 72 -15 127 q-12 53 -45 92q-16 20 -37.5 34.5t-48.5 26.5q-53 20 -139 21q-182 0 -268 -150q-8 -14 -27 -14h-4q-12 0 -21.5 8t-9.5 23v112h-79v-880q0 -14 -9.5 -22.5t-21.5 -8.5h-119q-31 0 -31 31zM170 1092q6 20 13 39.5t16 37.5q16 37 39 68q27 35 61 51q37 18 86 19q41 0 78 -13 q37 -10 65 -24q16 -6 29.5 -12.5t28.5 -12.5q23 -8 47 -8q12 0 18 4t11 8q16 25 22 43q6 23 29 23h92q12 0 22 -10q8 -10 9 -25q-12 -88 -62 -156q0 -2 -2 -2q-27 -29 -65 -47q-37 -18 -97 -18q-27 0 -63 12q-16 6 -31.5 12t-32.5 15q-16 6 -30.5 11t-30.5 9q-27 10 -45 10 q-25 0 -37 -12q-6 -6 -9 -12t-9 -27q-6 -22 -29 -22h-92q-16 0 -25 12q-10 10 -6 27zM242 1114h26q10 27 29 45q33 29 80 29q29 0 65 -12q16 -6 31.5 -11.5t32.5 -13.5h2q33 -14 59 -23q27 -10 43 -10q43 0 72 12q29 14 45 31q29 45 41 92h-35q-10 -25 -22 -39 q-27 -39 -78 -38q-39 0 -70 14q-31 10 -59 24q-33 14 -60 23q-25 8 -59 8q-33 0 -57 -12q-27 -14 -41 -33q-16 -20 -33 -55z" />
<glyph unicode="&#xf2;" d="M-31 31q0 12 9.5 21t21.5 9h285q-23 16 -41.5 32t-34.5 36q-59 70 -90 160q-31 92 -31 196q0 106 31 199q31 94 90 162q61 72 151 108q88 41 203 41t203 -41q86 -35 149 -108q61 -68 91 -162q31 -92 30 -199q0 -104 -30 -196q-27 -90 -91 -160q-16 -20 -34.5 -35.5 t-38.5 -32.5h284q12 0 21.5 -9t9.5 -21t-9 -21.5t-22 -9.5h-417q-27 0 -31 27q-4 25 20 34q29 6 43 15q78 35 127 92q51 61 80 141q27 78 27 176q0 100 -27 181q-29 82 -80 139q-47 59 -127 94t-178 35t-178 -35q-78 -35 -129 -94q-53 -59 -78 -139q-29 -86 -28 -181 q0 -47 7 -91t19 -85q27 -80 80 -141q51 -59 129 -92q10 -4 20.5 -7t20.5 -8q27 -10 23 -34q-4 -27 -31 -27h-418q-12 0 -21.5 9t-9.5 22zM266 1341q10 18 29 19h190q16 0 27 -17l152 -251q10 -14 0 -31q-9 -14 -27 -14h-113q-14 0 -22 8l-230 252q-12 16 -6 34zM365 1298 l174 -190h43l-113 190h-104z" />
<glyph unicode="&#xf3;" d="M-31 31q0 12 9.5 21t21.5 9h285q-23 16 -41.5 32t-34.5 36q-59 70 -90 160q-31 92 -31 196q0 106 31 199q31 94 90 162q61 72 151 108q88 41 203 41t203 -41q86 -35 149 -108q61 -68 91 -162q31 -92 30 -199q0 -104 -30 -196q-27 -90 -91 -160q-16 -20 -34.5 -35.5 t-38.5 -32.5h284q12 0 21.5 -9t9.5 -21t-9 -21.5t-22 -9.5h-417q-27 0 -31 27q-4 25 20 34q29 6 43 15q78 35 127 92q51 61 80 141q27 78 27 176q0 100 -27 181q-29 82 -80 139q-47 59 -127 94t-178 35t-178 -35q-78 -35 -129 -94q-53 -59 -78 -139q-29 -86 -28 -181 q0 -47 7 -91t19 -85q27 -80 80 -141q51 -59 129 -92q10 -4 20.5 -7t20.5 -8q27 -10 23 -34q-4 -27 -31 -27h-418q-12 0 -21.5 9t-9.5 22zM471 1057q-6 16 0 30l152 252q10 16 26 17h193q18 0 28 -19q6 -18 -6 -34l-231 -252q-7 -9 -23 -9h-112q-18 0 -27 15zM553 1104h45 l174 190h-104z" />
<glyph unicode="&#xf4;" d="M-31 31q0 12 9.5 21t21.5 9h285q-23 16 -41.5 32t-34.5 36q-59 70 -90 160q-31 92 -31 196q0 106 31 199q31 94 90 162q61 72 151 108q88 41 203 41t203 -41q86 -35 149 -108q61 -68 91 -162q31 -92 30 -199q0 -104 -30 -196q-27 -90 -91 -160q-16 -20 -34.5 -35.5 t-38.5 -32.5h284q12 0 21.5 -9t9.5 -21t-9 -21.5t-22 -9.5h-417q-27 0 -31 27q-4 25 20 34q29 6 43 15q78 35 127 92q51 61 80 141q27 78 27 176q0 100 -27 181q-29 82 -80 139q-47 59 -127 94t-178 35t-178 -35q-78 -35 -129 -94q-53 -59 -78 -139q-29 -86 -28 -181 q0 -47 7 -91t19 -85q27 -80 80 -141q51 -59 129 -92q10 -4 20.5 -7t20.5 -8q27 -10 23 -34q-4 -27 -31 -27h-418q-12 0 -21.5 9t-9.5 22zM283 1055q-8 18 4 30l178 252q10 14 27 15h163q14 0 25 -15l182 -252q12 -14 2 -30q-6 -17 -26 -17h-148q-18 0 -24 13l-99 135 l-98 -135q-10 -12 -25 -13h-133q-18 0 -28 17zM371 1100h59l113 155q8 12 24 13q16 0 27 -13l111 -155h71l-137 190h-133z" />
<glyph unicode="&#xf5;" d="M-31 31q0 12 9.5 21t21.5 9h285q-23 16 -41.5 32t-34.5 36q-59 70 -90 160q-31 92 -31 196q0 106 31 199q31 94 90 162q61 72 151 108q88 41 203 41t203 -41q86 -35 149 -108q61 -68 91 -162q31 -92 30 -199q0 -104 -30 -196q-27 -90 -91 -160q-16 -20 -34.5 -35.5 t-38.5 -32.5h284q12 0 21.5 -9t9.5 -21t-9 -21.5t-22 -9.5h-417q-27 0 -31 27q-4 25 20 34q29 6 43 15q78 35 127 92q51 61 80 141q27 78 27 176q0 100 -27 181q-29 82 -80 139q-47 59 -127 94t-178 35t-178 -35q-78 -35 -129 -94q-53 -59 -78 -139q-29 -86 -28 -181 q0 -47 7 -91t19 -85q27 -80 80 -141q51 -59 129 -92q10 -4 20.5 -7t20.5 -8q27 -10 23 -34q-4 -27 -31 -27h-418q-12 0 -21.5 9t-9.5 22zM231 1071q6 20 13.5 39.5t15.5 38.5q16 37 39 68q27 35 61 51q37 18 86 18q41 0 78 -12q37 -10 66 -25q16 -6 29.5 -12t27.5 -12 q23 -8 47 -8q12 0 18.5 4t10.5 8q16 25 22 43q6 23 29 22h92q12 0 23 -10q8 -10 8 -24q-12 -88 -61 -156q0 -2 -2 -2q-27 -29 -66 -47q-37 -18 -96 -19q-27 0 -64 13q-16 6 -31.5 12t-31.5 14q-16 6 -30.5 11.5t-31.5 9.5q-27 10 -45 10q-25 0 -37 -12q-6 -6 -9 -12.5 t-9 -26.5q-6 -23 -29 -23h-92q-16 0 -24 12q-10 10 -7 27zM303 1094h27q10 27 28 45q33 29 80 28q29 0 66 -12q16 -6 31.5 -11t31.5 -14h2q33 -14 60 -22q27 -10 43 -10q43 0 71 12q29 14 45 31q29 45 41 92h-34q-10 -25 -23 -39q-27 -39 -78 -39q-39 0 -69 14 q-31 10 -60 25q-33 14 -59 23q-25 8 -60 8q-33 0 -57 -13q-27 -14 -41 -32q-16 -20 -33 -56z" />
<glyph unicode="&#xf6;" d="M-31 31q0 12 9.5 21t21.5 9h285q-23 16 -41.5 32t-34.5 36q-59 70 -90 160q-31 92 -31 196q0 106 31 199q31 94 90 162q61 72 151 108q88 41 203 41t203 -41q86 -35 149 -108q61 -68 91 -162q31 -92 30 -199q0 -104 -30 -196q-27 -90 -91 -160q-16 -20 -34.5 -35.5 t-38.5 -32.5h284q12 0 21.5 -9t9.5 -21t-9 -21.5t-22 -9.5h-417q-27 0 -31 27q-4 25 20 34q29 6 43 15q78 35 127 92q51 61 80 141q27 78 27 176q0 100 -27 181q-29 82 -80 139q-47 59 -127 94t-178 35t-178 -35q-78 -35 -129 -94q-53 -59 -78 -139q-29 -86 -28 -181 q0 -47 7 -91t19 -85q27 -80 80 -141q51 -59 129 -92q10 -4 20.5 -7t20.5 -8q27 -10 23 -34q-4 -27 -31 -27h-418q-12 0 -21.5 9t-9.5 22zM238 1137q0 57 38.5 97t96.5 40q57 0 96 -40t39 -97q0 -55 -39 -95.5t-96 -40.5t-96 40t-39 96zM299 1137q0 -31 21.5 -52.5 t52.5 -21.5t52 21.5t21 52.5t-21 53t-52 22t-52.5 -22.5t-21.5 -52.5zM627 1137q0 57 39 97t96 40t96 -40t39 -97q0 -55 -39 -95.5t-96 -40.5t-96 40t-39 96zM688 1137q0 -31 21.5 -52.5t52.5 -21.5t52.5 21.5t21.5 52.5t-21.5 53t-52.5 22t-52.5 -22.5t-21.5 -52.5z" />
<glyph unicode="&#xf7;" horiz-adv-x="888" d="M-31 31q0 12 9.5 21t21.5 9h98l514 1299q6 18 29 18h129q14 0 25 -12q10 -12 2 -29l-504 -1276h596q12 0 21.5 -9t9.5 -21t-9.5 -21.5t-21.5 -9.5h-641q-18 0 -27 12q-8 14 -2 29l504 1276h-61l-515 -1299q-8 -18 -26 -18h-121q-12 0 -21.5 9t-9.5 22z" />
<glyph unicode="&#xf8;" horiz-adv-x="1177" d="M-31 31q0 12 9.5 21t21.5 9h92q0 8 8 17l93 104q-16 25 -24.5 46.5t-18.5 50.5q-4 12 -7 20q-14 43 -20 91t-6 97q0 102 28 199q29 88 91 162q61 68 151 108q88 41 203 41q96 0 176 -28q68 -25 117 -64l82 92q6 10 20 11q12 0 23 -11l69 -65q8 -10 9 -21.5t-9 -21.5 l-88 -96q16 -25 23.5 -46.5t15.5 -48.5q2 -4 3 -10t3 -10q27 -86 27 -191q0 -53 -6 -101t-23 -93q-31 -94 -90 -162q-35 -37 -80 -70h316q12 0 21 -9t9 -21t-9 -21.5t-21 -9.5h-455q-27 0 -31 27q-2 10 4 20t19 12q14 4 27.5 9.5t25.5 9.5q78 35 127 94q53 59 78 139 q14 41 20 85t6 91q0 92 -22 172q-6 12 -6 21q-10 33 -18.5 52.5t-26.5 41.5q-16 20 0 41l86 94l-23 23l-82 -90q-6 -10 -20 -11q-14 0 -23 9q-55 49 -119 71q-35 10 -72.5 17.5t-82.5 7.5q-98 0 -178 -35q-74 -33 -129 -94q-53 -59 -78 -141q-27 -78 -27 -179q0 -94 25 -170 q2 -8 6 -20q10 -31 18.5 -52.5t28.5 -45.5q16 -20 -2 -39l-88 -99l8 -8q14 -12 8 -33q-6 -20 -28 -20h-154q-12 0 -21.5 9t-9.5 22z" />
<glyph unicode="&#xf9;" horiz-adv-x="995" d="M-31 31q0 12 9.5 21t21.5 9h184q-12 8 -20 21q-23 25 -36 54.5t-24 64.5q-16 66 -16 141v600q0 12 9 21.5t22 9.5h151q12 0 21.5 -9.5t9.5 -21.5v-618q0 -72 39 -111q41 -41 115 -41q63 0 106 18q43 16 74 52q14 16 25.5 36.5t17.5 43.5q16 53 16 104v516q0 12 9.5 21.5 t21.5 9.5h149q12 0 21.5 -9.5t9.5 -21.5v-881h90q12 0 21.5 -9t9.5 -21q0 -14 -9 -22.5t-22 -8.5h-121q-12 0 -21 8t-9 23v880h-88v-485q0 -66 -19 -123q-18 -57 -55 -100t-96 -70q-57 -23 -131 -22q-100 0 -158 57q-57 57 -57 156v587h-90v-569q0 -35 4 -66.5t10 -60.5 q16 -59 47 -92q31 -41 84 -60q8 -4 10 -4q25 -10 21 -34q-4 -25 -31 -25h-295q-12 0 -21.5 8t-9.5 23zM225 1321q10 18 29 18h190q16 0 27 -16l152 -252q10 -14 0 -31q-9 -14 -27 -14h-113q-14 0 -22 8l-230 252q-12 16 -6 35zM324 1278l174 -191h43l-113 191h-104z" />
<glyph unicode="&#xfa;" horiz-adv-x="995" d="M-31 31q0 12 9.5 21t21.5 9h184q-12 8 -20 21q-23 25 -36 54.5t-24 64.5q-16 66 -16 141v600q0 12 9 21.5t22 9.5h151q12 0 21.5 -9.5t9.5 -21.5v-618q0 -72 39 -111q41 -41 115 -41q63 0 106 18q43 16 74 52q14 16 25.5 36.5t17.5 43.5q16 53 16 104v516q0 12 9.5 21.5 t21.5 9.5h149q12 0 21.5 -9.5t9.5 -21.5v-881h90q12 0 21.5 -9t9.5 -21q0 -14 -9 -22.5t-22 -8.5h-121q-12 0 -21 8t-9 23v880h-88v-485q0 -66 -19 -123q-18 -57 -55 -100t-96 -70q-57 -23 -131 -22q-100 0 -158 57q-57 57 -57 156v587h-90v-569q0 -35 4 -66.5t10 -60.5 q16 -59 47 -92q31 -41 84 -60q8 -4 10 -4q25 -10 21 -34q-4 -25 -31 -25h-295q-12 0 -21.5 8t-9.5 23zM430 1057q-6 16 0 30l152 252q10 16 26 17h193q18 0 28 -19q6 -18 -6 -34l-231 -252q-7 -9 -23 -9h-112q-18 0 -27 15zM512 1104h45l174 190h-104z" />
<glyph unicode="&#xfb;" horiz-adv-x="995" d="M-31 31q0 12 9.5 21t21.5 9h184q-12 8 -20 21q-23 25 -36 54.5t-24 64.5q-16 66 -16 141v600q0 12 9 21.5t22 9.5h151q12 0 21.5 -9.5t9.5 -21.5v-618q0 -72 39 -111q41 -41 115 -41q63 0 106 18q43 16 74 52q14 16 25.5 36.5t17.5 43.5q16 53 16 104v516q0 12 9.5 21.5 t21.5 9.5h149q12 0 21.5 -9.5t9.5 -21.5v-881h90q12 0 21.5 -9t9.5 -21q0 -14 -9 -22.5t-22 -8.5h-121q-12 0 -21 8t-9 23v880h-88v-485q0 -66 -19 -123q-18 -57 -55 -100t-96 -70q-57 -23 -131 -22q-100 0 -158 57q-57 57 -57 156v587h-90v-569q0 -35 4 -66.5t10 -60.5 q16 -59 47 -92q31 -41 84 -60q8 -4 10 -4q25 -10 21 -34q-4 -25 -31 -25h-295q-12 0 -21.5 8t-9.5 23zM207 1051q-8 18 4 30l178 252q10 14 27 15h164q14 0 24 -15l182 -252q12 -14 2 -30q-6 -17 -26 -17h-148q-18 0 -24 13l-98 135l-99 -135q-10 -12 -24 -13h-133 q-18 0 -29 17zM295 1096h59l113 155q8 12 25 13q16 0 26 -13l111 -155h71l-137 190h-133z" />
<glyph unicode="&#xfc;" horiz-adv-x="995" d="M-31 31q0 12 9.5 21t21.5 9h184q-12 8 -20 21q-23 25 -36 54.5t-24 64.5q-16 66 -16 141v600q0 12 9 21.5t22 9.5h151q12 0 21.5 -9.5t9.5 -21.5v-618q0 -72 39 -111q41 -41 115 -41q63 0 106 18q43 16 74 52q14 16 25.5 36.5t17.5 43.5q16 53 16 104v516q0 12 9.5 21.5 t21.5 9.5h149q12 0 21.5 -9.5t9.5 -21.5v-881h90q12 0 21.5 -9t9.5 -21q0 -14 -9 -22.5t-22 -8.5h-121q-12 0 -21 8t-9 23v880h-88v-485q0 -66 -19 -123q-18 -57 -55 -100t-96 -70q-57 -23 -131 -22q-100 0 -158 57q-57 57 -57 156v587h-90v-569q0 -35 4 -66.5t10 -60.5 q16 -59 47 -92q31 -41 84 -60q8 -4 10 -4q25 -10 21 -34q-4 -25 -31 -25h-295q-12 0 -21.5 8t-9.5 23zM166 1139q0 57 39 97t96 40t96 -40t39 -97q0 -55 -39 -95t-96 -40t-96 39.5t-39 95.5zM227 1139q0 -31 21.5 -52.5t52.5 -21.5t52.5 21.5t21.5 52.5t-21.5 53t-52.5 22 t-52.5 -22.5t-21.5 -52.5zM555 1139q0 57 39 97t96 40t96 -40t39 -97q0 -55 -39 -95t-96 -40t-96 39.5t-39 95.5zM616 1139q0 -31 21.5 -52.5t52.5 -21.5t52.5 21.5t21.5 52.5t-21.5 53t-52.5 22t-52.5 -22.5t-21.5 -52.5z" />
<glyph unicode="&#xfd;" horiz-adv-x="1095" d="M-31 31q0 14 9.5 22t21.5 8h440l-348 871q-6 14 4 29q6 14 25 14h170q23 0 28 -21l238 -669l229 669q6 20 29 21h160q16 0 24 -14q10 -14 5 -29l-410 -1059q-2 -2 -2 -4q-25 -47 -60 -72q-33 -27 -92 -26q-31 0 -53 8h-4v-72l25 -6q12 -2 24 -2h25q43 0 78 10 q29 12 57 37q25 23 51 68q23 41 49 108l47 121q6 18 29 18h328q12 0 21 -8t9 -22q0 -12 -9 -21.5t-21 -9.5h-308l-38 -100q-14 -35 -26.5 -64t-27.5 -53q-27 -47 -61 -82q-37 -35 -80 -49q-41 -14 -98 -14q-14 0 -28.5 1t-29.5 3q-33 4 -57 14q-20 6 -20 29v137q0 14 12 24 q14 10 28 4q10 -4 21.5 -7t22.5 -7q10 -4 17 -4h17q39 0 56 14q20 14 41 50l393 1017h-92l-248 -727q-6 -20 -31 -20h-2q-23 0 -29 20l-260 727h-102l348 -870q4 -18 -4 -29q-10 -14 -25 -14h-485q-12 0 -21.5 9t-9.5 22zM451 1057q-6 16 0 30l151 252q10 16 27 17h192 q18 0 29 -19q6 -18 -6 -34l-232 -252q-6 -9 -22 -9h-113q-18 0 -26 15zM532 1104h46l174 190h-105z" />
<glyph unicode="&#xfe;" horiz-adv-x="1257" d="M-31 31q0 12 8.5 21t22.5 9h123q12 0 21.5 -9t9.5 -21v-318h88v318q0 12 9 21t21 9t21.5 -9t9.5 -21v-348q0 -12 -9.5 -21.5t-21.5 -9.5h-149q-14 0 -22.5 9t-8.5 22v317h-92q-14 0 -22.5 9t-8.5 22zM242 31v1257q0 12 9 21.5t21 9.5h150q12 0 21.5 -9.5t9.5 -21.5v-383 q16 16 34.5 28.5t40.5 22.5q86 37 189 37q113 0 196 -43q84 -39 142 -112q55 -72 84 -162q27 -88 26 -193q0 -104 -26 -192q-29 -94 -82 -160q-16 -20 -33.5 -36.5t-40.5 -33.5h274q14 0 22.5 -9t8.5 -21t-8 -21.5t-23 -9.5h-401q-25 0 -31 27q-4 25 23 32q18 6 41 17 q74 35 119 92q51 63 71 141q25 80 25 174q0 90 -25 174q-27 84 -73 142q-47 61 -119 96q-74 37 -170 37q-92 0 -164 -33q-68 -31 -100 -94q-8 -18 -27 -19h-4q-12 0 -21.5 9.5t-9.5 21.5v440h-88v-1226q0 -12 -9 -21.5t-22 -9.5q-12 0 -21 9t-9 22z" />
<glyph unicode="&#xff;" horiz-adv-x="1095" d="M-31 31q0 14 9.5 22t21.5 8h440l-348 871q-6 14 4 29q6 14 25 14h170q23 0 28 -21l238 -669l229 669q6 20 29 21h160q16 0 24 -14q10 -14 5 -29l-410 -1059q-2 -2 -2 -4q-25 -47 -60 -72q-33 -27 -92 -26q-31 0 -53 8h-4v-72l25 -6q12 -2 24 -2h25q43 0 78 10 q29 12 57 37q25 23 51 68q23 41 49 108l47 121q6 18 29 18h328q12 0 21 -8t9 -22q0 -12 -9 -21.5t-21 -9.5h-308l-38 -100q-14 -35 -26.5 -64t-27.5 -53q-27 -47 -61 -82q-37 -35 -80 -49q-41 -14 -98 -14q-14 0 -28.5 1t-29.5 3q-33 4 -57 14q-20 6 -20 29v137q0 14 12 24 q14 10 28 4q10 -4 21.5 -7t22.5 -7q10 -4 17 -4h17q39 0 56 14q20 14 41 50l393 1017h-92l-248 -727q-6 -20 -31 -20h-2q-23 0 -29 20l-260 727h-102l348 -870q4 -18 -4 -29q-10 -14 -25 -14h-485q-12 0 -21.5 9t-9.5 22zM225 1147q0 57 39 97t96 40t96.5 -40t39.5 -97 q0 -55 -39.5 -95t-96.5 -40t-96 40t-39 95zM287 1147q0 -31 21.5 -52.5t51.5 -21.5q31 0 52.5 21.5t21.5 52.5t-21.5 53.5t-52.5 22.5t-52 -22.5t-21 -53.5zM614 1147q0 57 39 97t97 40q57 0 96 -40t39 -97q0 -55 -39 -95t-96 -40t-96.5 40t-39.5 95zM676 1147 q0 -31 21.5 -52.5t52.5 -21.5t52 21.5t21 52.5t-21 53.5t-52 22.5t-52.5 -22.5t-21.5 -53.5z" />
<glyph unicode="&#x152;" horiz-adv-x="1923" d="M-31 31q0 12 9.5 21t21.5 9h389q-76 47 -137 121q-82 96 -121 221q-18 61 -28.5 126t-10.5 130q0 66 10.5 131.5t28.5 127.5q39 123 121 219q80 98 199 155q121 57 274 58q115 0 207 -31h862q14 0 22.5 -9.5t8.5 -21.5v-141q0 -12 -8.5 -21.5t-22.5 -9.5h-577 q68 -86 102 -198q10 -35 18.5 -70t14.5 -70h395q12 0 21.5 -9t9.5 -21v-142q0 -12 -9.5 -21.5t-21.5 -9.5h-391q-10 -90 -37 -172q-33 -111 -102 -200h583q12 0 21.5 -9.5t9.5 -21.5v-111h92q12 0 21.5 -9t9.5 -21t-9.5 -21.5t-21.5 -9.5h-123q-12 0 -21.5 9t-9.5 22v110 h-620q-18 0 -27 19q-10 20 6 33q6 8 12.5 15t12.5 13q72 88 109 201q29 92 34 186q0 12 9.5 20.5t21.5 8.5h389v80h-393q-27 0 -31 28q-4 39 -12 77t-18 75q-37 113 -109 201q-6 8 -12 14t-13 14q-18 14 -6 33q6 18 27 19h614v79h-835q-8 0 -10 3q-90 29 -193 28 q-139 0 -248 -51q-106 -51 -178 -139q-70 -82 -109 -201q-37 -115 -36 -238q0 -125 36 -237q18 -57 45 -107.5t64 -93.5q70 -84 178 -137q14 -6 28.5 -12t31.5 -13q27 -6 22 -32q-4 -27 -31 -27h-528q-12 0 -21.5 9t-9.5 22z" />
<glyph unicode="&#x153;" horiz-adv-x="1587" d="M-31 31q0 12 9.5 21t21.5 9h287q-41 27 -74 66q-61 72 -92 162q-29 96 -29 196q0 104 29 197q33 96 92 162q57 70 149 110q86 39 203 39q119 0 203 -39l49 -24q10 6 23.5 13t25.5 13q86 37 185 37q129 0 219 -55q84 -53 137 -137q27 -41 44 -86t28 -92q10 -47 14 -93.5 t0 -89.5q0 -12 -9 -20t-22 -8h-428q-10 -70 -26 -123q-10 -27 -20.5 -52.5t-24.5 -48.5q45 -16 102 -16q82 0 137 39q51 35 70 115q4 25 28 24h150q12 0 23 -10q8 -12 6 -27q-31 -164 -144 -247l-4 -5h256q12 0 21.5 -9t9.5 -21t-9.5 -21.5t-21.5 -9.5h-385q-27 0 -31 27 q-4 25 21 34q57 14 106 52q78 59 113 176h-86q-25 -84 -86 -127q-70 -51 -174 -51q-78 0 -141 28q-6 2 -11.5 4t-11.5 7q-10 8 -14 20t6 25q35 45 57 114q10 31 16.5 65t8.5 68q2 12 10 21.5t21 9.5h428q0 59 -17 137q-8 43 -23.5 83t-37.5 75q-23 35 -52.5 65.5t-66.5 53.5 q-72 45 -186 45q-88 0 -160 -33q-16 -6 -29.5 -14t-27.5 -19q-18 -10 -35 0q-25 18 -56 31q-80 35 -178 35t-178 -35q-78 -35 -129 -92q-53 -63 -78 -141q-27 -80 -26 -179q0 -98 26 -176q12 -41 31.5 -75.5t46.5 -65.5q51 -59 129 -92q10 -4 21.5 -7t21.5 -8q25 -10 21 -34 q-4 -27 -31 -27h-420q-12 0 -21.5 9t-9.5 22z" />
<glyph unicode="&#x178;" horiz-adv-x="1376" d="M-31 31q0 14 9.5 22t21.5 8h578v476l-484 737q-10 16 0 33q6 14 27 14h198q18 0 27 -14l352 -557l342 557q8 14 27 14h190q16 0 27 -14q8 -14 -2 -33l-475 -737v-476h569q31 0 31 -30q0 -12 -8.5 -21.5t-22.5 -9.5h-600q-14 0 -22.5 9t-8.5 22v516q0 12 5 16l450 697 h-117l-360 -584q-6 -14 -25 -14q-18 0 -26 14l-369 584h-125l455 -697q6 -6 6 -16v-516q0 -12 -9 -21.5t-22 -9.5h-608q-12 0 -21.5 9t-9.5 22zM365 1382q0 57 38.5 97.5t96.5 40.5q57 0 96 -40t39 -98q0 -55 -39 -95t-96 -40t-96 40t-39 95zM426 1382q0 -31 21.5 -52 t52.5 -21t52 21.5t21 51.5q0 31 -21 53.5t-52 22.5t-52.5 -22.5t-21.5 -53.5zM754 1382q0 57 38.5 97.5t96.5 40.5q57 0 96 -40t39 -98q0 -55 -39 -95t-96 -40t-96 40t-39 95zM815 1382q0 -31 21.5 -52t52.5 -21t52.5 21.5t21.5 51.5q0 31 -21.5 53.5t-52.5 22.5 t-52.5 -22.5t-21.5 -53.5z" />
<glyph unicode="&#x2c6;" horiz-adv-x="772" d="M-31 31q0 12 9.5 21t21.5 9h772q12 0 21.5 -9t9.5 -21t-9.5 -21.5t-21.5 -9.5h-772q-12 0 -21.5 9t-9.5 22zM94 1370q-8 18 4 31l178 252q10 14 27 14h164q14 0 25 -14l182 -252q12 -14 2 -31q-7 -16 -27 -16h-147q-18 0 -25 12l-98 135l-98 -135q-10 -12 -25 -12h-133 q-18 0 -29 16zM182 1415h60l112 156q8 12 25 12q16 0 27 -12l110 -156h72l-137 191h-134z" />
<glyph unicode="&#x2dc;" horiz-adv-x="911" d="M-31 31q0 12 8.5 21t22.5 9h911q12 0 21.5 -9t9.5 -21t-9.5 -21.5t-21.5 -9.5h-911q-14 0 -22.5 9t-8.5 22zM123 1405q6 20 12 39.5t15 38.5q10 18 19 35.5t21 31.5q23 33 62 52q37 18 86 18q41 0 78 -12q37 -10 65 -25q14 -6 28.5 -12t29.5 -12q23 -8 47 -9q20 0 28 13 q16 25 23 45q6 20 29 20h92q16 0 22 -10q10 -14 8 -25q-12 -86 -59 -155q-2 0 -2 -1t-2 -1q-20 -27 -66 -47q-37 -18 -96 -19q-27 0 -63 12q-16 6 -31.5 12.5t-32.5 14.5q-16 6 -30.5 11t-30.5 10q-27 10 -45 10q-25 0 -39 -13q-10 -10 -17 -36q-3 -25 -30 -25h-90 q-16 0 -25 12q-10 10 -6 27zM195 1427h26q8 25 29 46q35 29 80 28q29 0 65 -12q16 -6 31.5 -11t32.5 -14h2q33 -14 59 -22q27 -10 43 -10q43 0 72 12q29 14 45 31q29 45 41 92h-35q-10 -25 -22 -39q-27 -39 -78 -39q-39 0 -70 14q-14 4 -28.5 11.5t-30.5 13.5t-29.5 12 t-30.5 10q-27 8 -59 9q-37 0 -57 -13q-27 -12 -43 -33q-18 -25 -31 -55z" />
<glyph unicode="&#x2000;" horiz-adv-x="914" />
<glyph unicode="&#x2001;" horiz-adv-x="1829" />
<glyph unicode="&#x2002;" horiz-adv-x="914" />
<glyph unicode="&#x2003;" horiz-adv-x="1829" />
<glyph unicode="&#x2004;" horiz-adv-x="609" />
<glyph unicode="&#x2005;" horiz-adv-x="457" />
<glyph unicode="&#x2006;" horiz-adv-x="304" />
<glyph unicode="&#x2007;" horiz-adv-x="304" />
<glyph unicode="&#x2008;" horiz-adv-x="228" />
<glyph unicode="&#x2009;" horiz-adv-x="365" />
<glyph unicode="&#x200a;" horiz-adv-x="101" />
<glyph unicode="&#x2010;" horiz-adv-x="755" d="M-31 31q0 12 9.5 21t21.5 9h756q12 0 21 -9t9 -21t-9 -21.5t-21 -9.5h-756q-12 0 -21.5 9t-9.5 22zM92 406v141q0 12 9.5 21.5t21.5 9.5h510q12 0 21.5 -9.5t9.5 -21.5v-141q0 -12 -9.5 -21.5t-21.5 -9.5h-510q-12 0 -21.5 9t-9.5 22zM154 436h448v80h-448v-80z" />
<glyph unicode="&#x2011;" horiz-adv-x="755" d="M-31 31q0 12 9.5 21t21.5 9h756q12 0 21 -9t9 -21t-9 -21.5t-21 -9.5h-756q-12 0 -21.5 9t-9.5 22zM92 406v141q0 12 9.5 21.5t21.5 9.5h510q12 0 21.5 -9.5t9.5 -21.5v-141q0 -12 -9.5 -21.5t-21.5 -9.5h-510q-12 0 -21.5 9t-9.5 22zM154 436h448v80h-448v-80z" />
<glyph unicode="&#x2012;" horiz-adv-x="755" d="M-31 31q0 12 9.5 21t21.5 9h756q12 0 21 -9t9 -21t-9 -21.5t-21 -9.5h-756q-12 0 -21.5 9t-9.5 22zM92 406v141q0 12 9.5 21.5t21.5 9.5h510q12 0 21.5 -9.5t9.5 -21.5v-141q0 -12 -9.5 -21.5t-21.5 -9.5h-510q-12 0 -21.5 9t-9.5 22zM154 436h448v80h-448v-80z" />
<glyph unicode="&#x2013;" horiz-adv-x="1103" d="M-31 31q0 12 9.5 21t21.5 9h1104q12 0 21.5 -9t9.5 -21t-9.5 -21.5t-21.5 -9.5h-1104q-12 0 -21.5 9t-9.5 22zM92 406v141q0 12 9.5 21.5t21.5 9.5h858q12 0 21.5 -9.5t9.5 -21.5v-141q0 -12 -9.5 -21.5t-21.5 -9.5h-858q-12 0 -21.5 9t-9.5 22zM154 436h796v80h-796v-80 z" />
<glyph unicode="&#x2014;" horiz-adv-x="1308" d="M-31 31q0 12 9.5 21t21.5 9h1309q12 0 21 -9t9 -21t-9 -21.5t-21 -9.5h-1309q-12 0 -21.5 9t-9.5 22zM92 406v141q0 12 9.5 21.5t21.5 9.5h1063q12 0 21.5 -9.5t9.5 -21.5v-141q0 -12 -9.5 -21.5t-21.5 -9.5h-1063q-12 0 -21.5 9t-9.5 22zM154 436h1001v80h-1001v-80z " />
<glyph unicode="&#x2018;" horiz-adv-x="440" d="M-31 31q0 14 9.5 22t21.5 8h440q31 0 31 -30q0 -12 -8.5 -21.5t-22.5 -9.5h-440q-12 0 -21.5 9t-9.5 22zM92 872v197q0 57 12 107q6 27 16.5 49t22.5 43q29 41 72 65q43 25 102 25q12 0 21.5 -9.5t9.5 -21.5v-88q0 -12 -9 -21.5t-22 -9.5q-23 0 -30 -8q-16 -14 -25 -29 q-10 -23 -12 -47q-2 -6 -2 -12t-2 -12h71q14 0 22.5 -9.5t8.5 -21.5v-197q0 -12 -8.5 -21t-22.5 -9h-194q-12 0 -21.5 9t-9.5 21zM154 903h133v135h-72q-31 0 -31 31v31.5t4 32.5q6 41 21 65q14 31 39 51q20 14 39 17v28q-12 -2 -21.5 -6t-19.5 -8q-27 -16 -51 -47 q-20 -31 -31 -72q-10 -47 -10 -92v-166z" />
<glyph unicode="&#x2019;" horiz-adv-x="444" d="M-31 31q0 14 9.5 22t21.5 8h444q12 0 21.5 -8t9.5 -22q0 -12 -9.5 -21.5t-21.5 -9.5h-444q-12 0 -21.5 9t-9.5 22zM94 1085v197q0 12 8.5 21.5t22.5 9.5h194q12 0 21.5 -9.5t9.5 -21.5v-197q0 -57 -12 -106q-6 -27 -16.5 -49.5t-22.5 -42.5q-27 -39 -70 -66 q-43 -24 -102 -24q-31 0 -31 30v88q0 12 8.5 21.5t22.5 9.5q20 0 29 8q14 8 24 29q10 23 13 47q4 16 4 25h-72q-14 0 -22.5 9t-8.5 21zM156 1116h71q14 0 22.5 -9t8.5 -22v-32.5t-4 -32.5q-6 -37 -18 -64q-16 -33 -41 -51q-19 -12 -37 -18v-27q10 2 20 6t21 8q31 20 49 48 q20 31 31 71q10 47 10 92v166h-133v-135z" />
<glyph unicode="&#x201a;" horiz-adv-x="540" d="M-31 31q0 12 9.5 21t21.5 9h102q-14 33 -14 60q0 57 40 96t97 39t94 -37q16 -18 27.5 -41.5t13.5 -52.5v-2v-2v-74v-16q0 -12 -1 -24.5t-3 -26.5q-6 -33 -20 -58q-8 -14 -17.5 -27.5t-21.5 -23.5q-14 -18 -41 -31v-24q61 29 92 75q39 59 41 142q0 12 9.5 20t21.5 8h121 q12 0 21 -9t9 -21t-9 -21.5t-21 -9.5h-92q-10 -84 -50 -141q-53 -84 -166 -115q-2 -2 -8 -2q-10 0 -18 6q-12 8 -12 25v88q0 23 20 28q23 8 39 25q16 14 27 37q10 16 14 39q2 10 3 20t1 19v2v16v72q-4 35 -23.5 55.5t-50.5 20.5t-53 -21.5t-22 -52.5q0 -18 11 -35.5 t27 -28.5q18 -14 13 -34q-6 -23 -29 -23h-172q-12 0 -21.5 9t-9.5 22z" />
<glyph unicode="&#x201c;" horiz-adv-x="768" d="M-31 31q0 14 9.5 22t21.5 8h328h112h328q31 0 31 -30q0 -12 -8.5 -21.5t-22.5 -9.5h-328h-112h-328q-12 0 -21.5 9t-9.5 22zM92 872v197q0 57 12 107q6 27 16.5 49t22.5 43q29 41 72 65q43 25 100 25q14 0 22.5 -9.5t8.5 -21.5v-88q0 -12 -8 -21.5t-23 -9.5q-20 0 -28 -8 q-16 -14 -25 -29q-10 -23 -12 -47q-2 -6 -2 -12t-2 -12h71q14 0 22.5 -9.5t8.5 -21.5v-197q0 -12 -8 -21t-23 -9h-194q-12 0 -21.5 9t-9.5 21zM154 903h133v135h-72q-31 0 -31 31v31.5t4 32.5q6 39 19 65q14 27 41 51q20 14 37 17v28q-10 -2 -19.5 -6t-19.5 -8 q-27 -16 -51 -47q-20 -31 -31 -72q-10 -47 -10 -92v-166zM420 872v197q0 57 12 107q6 27 16.5 49t22.5 43q29 41 72 65q43 25 100 25q14 0 22.5 -9.5t8.5 -21.5v-88q0 -12 -8.5 -21.5t-22.5 -9.5q-20 0 -29 -8q-16 -14 -24 -29q-10 -23 -12 -47q-2 -6 -2.5 -12t-2.5 -12h72 q14 0 22.5 -9.5t8.5 -21.5v-197q0 -12 -8.5 -21t-22.5 -9h-194q-12 0 -21.5 9t-9.5 21zM481 903h133v135h-71q-31 0 -31 31v31.5t4 32.5q6 39 19 65q14 27 40 51q20 14 37 17v28q-10 -2 -19 -6t-20 -8q-27 -16 -51 -47q-20 -31 -30 -72q-10 -47 -11 -92v-166z" />
<glyph unicode="&#x201d;" horiz-adv-x="772" d="M-31 31q0 14 9.5 22t21.5 8h328h116h328q12 0 21.5 -8t9.5 -22q0 -12 -9.5 -21.5t-21.5 -9.5h-328h-116h-328q-12 0 -21.5 9t-9.5 22zM94 827v88q0 12 9.5 21.5t21.5 9.5q23 0 31 8q14 8 24 29q10 23 13 47q2 6 2 12.5t2 12.5h-72q-14 0 -22.5 9t-8.5 21v197 q0 12 8.5 21.5t22.5 9.5h194q12 0 21.5 -9.5t9.5 -21.5v-197q0 -57 -12 -106q-6 -27 -16.5 -49.5t-22.5 -42.5q-27 -39 -70 -66q-43 -25 -104 -24q-12 0 -21.5 8t-9.5 22zM156 860q23 2 41 14q31 18 51 48q20 31 31 71q10 47 10 92v166h-133v-135h71q14 0 22.5 -9t8.5 -22 v-32.5t-4 -32.5q-8 -39 -21 -64q-18 -35 -38 -51q-18 -12 -39 -18v-27zM422 827v88q0 12 9 21.5t22 9.5q23 0 30 8q14 8 25 29q10 23 12 47q2 6 2 12.5t2 12.5h-71q-14 0 -22.5 9t-8.5 21v197q0 12 8 21.5t23 9.5h194q12 0 21.5 -9.5t9.5 -21.5v-197q0 -57 -12 -106 q-6 -27 -16.5 -49.5t-22.5 -42.5q-27 -39 -70 -66q-43 -25 -104 -24q-12 0 -21.5 8t-9.5 22zM483 860q23 2 41 14q31 18 51 48q20 31 31 71q10 47 10 92v166h-133v-135h72q14 0 22.5 -9t8.5 -22v-32.5t-4 -32.5q-8 -39 -21 -64q-18 -35 -39 -51q-18 -12 -39 -18v-27z" />
<glyph unicode="&#x201e;" horiz-adv-x="1081" d="M-31 31q0 12 9.5 21t21.5 9h102q-14 33 -14 60q0 57 40 96t97 39t94 -37q16 -18 27.5 -41.5t13.5 -52.5v-2v-2v-74v-16q0 -12 -1 -24.5t-3 -26.5q-6 -33 -20 -58q-8 -14 -17.5 -27.5t-21.5 -23.5q-14 -18 -41 -31v-24q61 29 92 75q39 59 41 142q0 12 9.5 20t21.5 8h121 q12 0 21 -9t9 -21t-9 -21.5t-21 -9.5h-92q-10 -84 -50 -141q-53 -84 -166 -115q-2 -2 -8 -2q-10 0 -18 6q-12 8 -12 25v88q0 23 20 28q23 8 39 25q16 14 27 37q10 16 14 39q2 10 3 20t1 19v2v16v72q-4 35 -23.5 55.5t-50.5 20.5t-53 -21.5t-22 -52.5q0 -18 11 -35.5 t27 -28.5q18 -14 13 -34q-6 -23 -29 -23h-172q-12 0 -21.5 9t-9.5 22zM510 31q0 12 9 21t22 9h102q-14 33 -14 60q0 57 40 96t97 39t94 -37q16 -18 27.5 -41.5t13.5 -52.5v-2v-2v-74v-16q0 -12 -1 -24.5t-3 -26.5q-6 -33 -20 -58q-8 -14 -17.5 -27.5t-21.5 -23.5 q-14 -18 -41 -31v-24q61 29 92 75q39 59 41 142q0 12 9 20t22 8h120q12 0 21.5 -9t9.5 -21t-9 -21.5t-22 -9.5h-92q-10 -84 -49 -141q-53 -84 -166 -115q-2 -2 -8 -2q-10 0 -18 6q-12 8 -13 25v88q0 23 21 28q23 8 39 25q16 14 26 37q10 16 15 39q2 10 3 20t1 19v2v16v72 q-4 35 -23.5 55.5t-50.5 20.5t-53.5 -21.5t-22.5 -52.5q0 -18 11.5 -35.5t27.5 -28.5q18 -14 12 -34q-6 -23 -28 -23h-172q-12 0 -21.5 9t-9.5 22z" />
<glyph unicode="&#x2022;" horiz-adv-x="874" d="M-31 31q0 12 9.5 21t21.5 9h874q14 0 22.5 -9t8.5 -21t-8.5 -21.5t-22.5 -9.5h-874q-12 0 -21.5 9t-9.5 22zM92 696q0 68 29 135q25 61 72 109q45 45 110 74q59 27 133 26q76 0 135 -26q61 -29 111 -74q45 -45 74 -109q27 -61 26 -135q0 -74 -26 -135q-29 -61 -74 -110 q-49 -47 -111 -74q-59 -27 -135 -27q-74 0 -133 27q-66 29 -110 76q-47 47 -72 108q-29 68 -29 135zM154 696q0 -55 22 -110q23 -53 62 -90q37 -39 90 -62q51 -23 108 -22q59 0 111 22q51 20 92 62q37 37 61 90q20 49 21 110q0 61 -21 111q-27 51 -61 90q-41 39 -92 59 q-52 23 -111 23q-57 0 -108 -23q-53 -23 -90 -59q-41 -41 -62 -90q-23 -55 -22 -111z" />
<glyph unicode="&#x2026;" horiz-adv-x="1341" d="M-33 31q0 12 10 22q8 8 21 8h96q-6 20 -6 45q0 55 40 95.5t95 40.5q57 0 96 -40t39 -96q0 -25 -6 -45h97q14 0 22 -8t8 -22q0 -10 -7 -20.5t-26 -10.5h-149q-18 0 -29 18q-8 23 8 35q20 20 21 53q0 31 -21.5 52.5t-52.5 21.5t-52 -21.5t-21 -52.5t22 -53q12 -14 6 -35 q-8 -18 -28 -18h-150q-16 0 -24.5 10t-8.5 21zM414 31q0 12 10 22q8 8 20 8h97q-6 20 -6 45q0 55 39.5 95.5t95.5 40.5q57 0 96 -40t39 -96q0 -25 -6 -45h96q14 0 23 -8q8 -8 8 -22q0 -10 -7.5 -20.5t-25.5 -10.5h-150q-18 0 -28 18q-8 23 8 35q20 20 20 53q0 31 -21.5 52.5 t-51.5 21.5q-31 0 -52.5 -21.5t-21.5 -52.5t22 -53q12 -14 7 -35q-8 -18 -29 -18h-150q-16 0 -24 10t-8 21zM860 31q0 12 10 22q8 8 21 8h96q-6 20 -6 45q0 55 40 95.5t95 40.5q57 0 96 -40t39 -96q0 -25 -6 -45h96q14 0 23 -8q8 -8 8 -22q0 -10 -7 -20.5t-26 -10.5h-149 q-18 0 -29 18q-8 23 8 35q20 20 21 53q0 31 -21.5 52.5t-52.5 21.5t-52.5 -21.5t-21.5 -52.5t23 -53q12 -14 6 -35q-8 -18 -29 -18h-149q-16 0 -24.5 10t-8.5 21z" />
<glyph unicode="&#x202f;" horiz-adv-x="365" />
<glyph unicode="&#x2039;" horiz-adv-x="1136" d="M-31 31q0 12 9.5 21t21.5 9h612l-506 228q-18 8 -18 26v111q0 18 18 29l898 405q14 6 28 -2q14 -10 15 -27v-120q0 -20 -19 -27l-688 -313l682 -310h115q12 0 21 -9t9 -21t-9 -21.5t-21 -9.5h-121q-8 0 -12 2l-750 342q-18 6 -18 27q0 18 18 28l731 332v53l-835 -378v-70 l616 -279q23 -6 18 -32q-5 -25 -30 -25h-754q-12 0 -21.5 9t-9.5 22z" />
<glyph unicode="&#x203a;" horiz-adv-x="1138" d="M-31 31q0 12 8.5 21t22.5 9h113l684 310l-691 313q-18 8 -18 27v120q0 16 14 27q18 6 31 2l899 -405q18 -10 19 -29v-111q0 -18 -19 -26l-506 -228h613q14 0 22 -9t8 -21t-8 -21.5t-22 -9.5h-756q-27 0 -31 25q-4 27 19 32l618 279v70l-839 378v-53l735 -332 q18 -10 18 -28t-18 -27l-752 -342q-4 -2 -14 -2h-119q-14 0 -22.5 9t-8.5 22z" />
<glyph unicode="&#x205f;" horiz-adv-x="457" />
<glyph unicode="&#x20ac;" horiz-adv-x="1206" d="M-31 31q0 12 9.5 21t21.5 9h459q-176 127 -226 424h-110q-18 0 -25 15q-10 14 -4 28l49 109q8 18 27 18h49v29h-96q-18 0 -25 14q-10 14 -4 29l47 109q8 18 29 18h70q47 211 161 332q141 152 363 151q172 0 336 -114q25 -16 10 -41l-82 -146q-6 -12 -22 -16q-12 -4 -25 8 q-113 113 -231 113q-117 0 -193 -101q-55 -74 -86 -186h461q16 0 24 -14q10 -14 5 -29l-50 -109q-8 -18 -26 -18h-434v-29h409q14 0 25 -14q8 -12 2 -29l-45 -108q-8 -18 -29 -19h-346q57 -317 297 -317q76 0 135 31q23 10 51.5 32.5t63.5 55.5q16 12 35 6q18 -8 18 -29 v-184q0 -10 -6 -19h145q12 0 21.5 -9t9.5 -21t-9.5 -21.5t-21.5 -9.5h-272q-27 0 -31 25q-4 29 21 34q41 14 82 37v101q-23 -16 -42.5 -29.5t-35.5 -24.5q-72 -37 -164 -37q-150 0 -244 107q-90 102 -121 299q-2 10 7 25q10 10 24 10h363l20 47h-391q-27 0 -31 24 q-2 8 -2 23v47q0 20 2 31q4 27 31 26h442l21 48h-451q-14 0 -24 10q-10 12 -7 26q31 152 105 248q94 125 242 125q125 0 243 -102l49 86q-135 90 -278 90q-193 0 -318 -131v-2q-111 -117 -151 -326q-6 -25 -31 -24h-76l-18 -48h82q14 0 22 -10q8 -8 9 -24q-2 -6 -2 -21v-49 q0 -6 2 -10q2 -10 -7 -27q-10 -10 -24 -10h-62l-20 -47h88q27 0 31 -27q29 -193 103.5 -305.5t203.5 -155.5q27 -8 20 -32q-4 -27 -28 -27h-588q-12 0 -21.5 9t-9.5 22z" />
<glyph unicode="&#x2122;" horiz-adv-x="1054" d="M-31 31q0 31 31 30h88v103q0 12 9 21.5t22 9.5h602q-10 27 -31 53q-29 41 -78 80q-23 18 -48 35.5t-54 33.5q-29 18 -58.5 36t-58.5 34q-29 20 -57.5 39.5t-56.5 40.5q-29 23 -54.5 46t-48.5 50q-45 53 -72 121q-29 74 -28 158q0 94 35 170q16 35 38.5 65.5t51.5 54.5 q55 47 135 76q76 25 162 25q102 0 188 -35q84 -37 139 -102q55 -57 84 -152q12 -43 18.5 -89t2.5 -97q0 -12 -9.5 -20.5t-21.5 -8.5h-149q-10 0 -23 8q-8 8 -8 23q2 49 -10 104q-12 53 -39 90q-14 18 -29.5 34.5t-38.5 27.5q-37 25 -96 24q-23 0 -43.5 -4t-38.5 -10 q-39 -14 -68 -41q-29 -25 -43 -61q-18 -35 -18 -80q0 -59 18 -103q20 -47 56 -82q39 -41 94 -80q29 -20 63.5 -42.5t73.5 -47.5q33 -20 64.5 -40.5t62.5 -43.5q63 -49 113 -108q27 -31 47 -68t37 -78q14 -35 23 -77.5t16 -92.5h92q12 0 21 -8t9 -22q0 -12 -9 -21.5t-21 -9.5 h-121q-27 0 -31 29q-4 53 -13 98t-24 82q-14 37 -32.5 69.5t-40.5 59.5q-23 29 -48.5 52.5t-54.5 45.5q-59 43 -123 80q-41 27 -75.5 49.5t-63.5 42.5q-33 23 -58.5 44.5t-45.5 43.5q-45 47 -66 103q-12 27 -17 58.5t-5 66.5q0 59 20 106q27 49 59 80q18 18 41 30.5t47 22.5 q49 18 103 19q72 0 127 -33q53 -31 88 -80q33 -51 47 -111q8 -43 12 -88h90q0 37 -5 71t-15 67q-20 70 -70 129q-47 53 -118 84q-72 31 -164 30q-39 0 -74 -5t-70 -17q-68 -23 -112 -62q-49 -43 -76 -102q-29 -63 -29 -143q0 -76 23 -134q25 -61 63 -106q20 -23 43 -45.5 t49 -40.5q27 -20 54.5 -38.5t56.5 -37.5q29 -16 57.5 -34.5t57.5 -34.5q66 -39 110 -76q27 -20 48.5 -43t39.5 -47q39 -47 52 -115q2 -10 -7 -27q-10 -10 -24 -10h-610v-102q0 -12 -9.5 -21.5t-21.5 -9.5h-119q-14 0 -22.5 9t-8.5 22z" />
<glyph unicode="&#x25fc;" horiz-adv-x="972" d="M0 0v973h973v-973h-973z" />
<glyph unicode="&#xfb01;" horiz-adv-x="1015" d="M-31 31q0 12 8.5 21t22.5 9h246v717h-123q-14 0 -22.5 9.5t-8.5 21.5v131q0 31 31 31h123v106q0 123 73 191q76 66 209 65q10 0 22.5 -1t29.5 -3q31 -4 55 -12q20 -6 20 -29v-131q0 -14 -14 -24t-27 -5l-36 9q-10 2 -19.5 2h-17.5q-47 0 -68 -15q-10 -8 -13 -24.5 t-3 -32.5v-96h145q12 0 21.5 -8.5t9.5 -22.5v-131q0 -12 -9.5 -21.5t-21.5 -9.5h-145v-717h256v879q0 14 9 22.5t21 8.5h150q31 0 31 -31v-879h92q14 0 22.5 -9t8.5 -21t-8.5 -21.5t-22.5 -9.5h-123q-12 0 -21.5 9t-9.5 22v878h-88v-878q0 -12 -8 -21.5t-23 -9.5h-317 q-14 0 -22.5 9t-8.5 22v778q0 12 8.5 21.5t22.5 9.5h145v69h-145q-14 0 -22.5 9.5t-8.5 21.5v127q0 76 43 107q35 27 103 26h21t24 -2q6 0 8 -2v68q-6 2 -11 3t-12 1q-12 2 -22 3t-21 1q-113 0 -168 -49q-53 -47 -53 -146v-137q0 -12 -9 -21.5t-22 -9.5h-122v-69h122 q12 0 21.5 -9.5t9.5 -21.5v-778q0 -12 -9 -21.5t-22 -9.5h-276q-14 0 -22.5 9t-8.5 22zM684 1184q0 55 39 95t96 40q55 0 95 -40t40 -95q0 -57 -40 -97t-95 -40q-57 0 -96 39.5t-39 97.5zM745 1184q0 -31 21.5 -53.5t52.5 -22.5t52.5 22.5t21.5 53.5t-21.5 52t-52.5 21 t-52.5 -21.5t-21.5 -51.5z" />
<glyph unicode="&#xfb02;" horiz-adv-x="1017" d="M-31 31q0 12 9.5 21t21.5 9h246v717h-123q-12 0 -21.5 9.5t-9.5 21.5v131q0 14 9.5 22.5t21.5 8.5h123v106q0 123 76 191q72 66 206 65q12 0 24.5 -1t29.5 -3q29 -2 53 -12q20 -6 20 -29v-131q0 -16 -12 -24q-14 -10 -29 -5q-8 4 -16 5.5t-18 3.5t-19.5 2h-19.5 q-45 0 -66 -15q-10 -8 -14 -24.5t-4 -32.5v-96h145q31 0 31 -31v-131q0 -12 -8.5 -21.5t-22.5 -9.5h-145v-717h258v1227q0 12 9 21.5t21 9.5h150q12 0 21.5 -9.5t9.5 -21.5v-1227h92q12 0 21.5 -9t9.5 -21t-9.5 -21.5t-21.5 -9.5h-123q-12 0 -21.5 9t-9.5 22v1226h-88v-1226 q0 -12 -9 -21.5t-22 -9.5h-319q-12 0 -21.5 9t-9.5 22v778q0 12 9.5 21.5t21.5 9.5h145v69h-145q-12 0 -21.5 9.5t-9.5 21.5v127q0 76 43 107q39 27 103 26h22t25 -2q4 0 6 -2v68q-12 4 -21 4q-12 2 -23 3t-22 1q-111 0 -166 -49t-55 -146v-137q0 -12 -9 -21.5t-22 -9.5 h-122v-69h122q12 0 21.5 -9.5t9.5 -21.5v-778q0 -12 -9 -21.5t-22 -9.5h-276q-12 0 -21.5 9t-9.5 22z" />
</font>
</defs>
</svg>
